<svg viewBox="0 0 330 200" xmlns="http://www.w3.org/2000/svg"><g><g><g><g><g><line x1="50" y1="178" x2="45" y2="178" style="visibility: inherit;" fill="rgb(0, 0, 0)" stroke="rgb(204, 204, 204)" stroke-width="1px"></line><line x1="50" y1="161.8181818181818" x2="45" y2="161.8181818181818" style="visibility: inherit;" fill="rgb(0, 0, 0)" stroke="rgb(204, 204, 204)" stroke-width="1px"></line><line x1="50" y1="145.6363636363636" x2="45" y2="145.6363636363636" style="visibility: inherit;" fill="rgb(0, 0, 0)" stroke="rgb(204, 204, 204)" stroke-width="1px"></line><line x1="50" y1="129.45454545454558" x2="45" y2="129.45454545454558" style="visibility: inherit;" fill="rgb(0, 0, 0)" stroke="rgb(204, 204, 204)" stroke-width="1px"></line><line x1="50" y1="113.2727272727274" x2="45" y2="113.2727272727274" style="visibility: inherit;" fill="rgb(0, 0, 0)" stroke="rgb(204, 204, 204)" stroke-width="1px"></line><line x1="50" y1="97.0909090909092" x2="45" y2="97.0909090909092" style="visibility: inherit;" fill="rgb(0, 0, 0)" stroke="rgb(204, 204, 204)" stroke-width="1px"></line><line x1="50" y1="80.90909090909099" x2="45" y2="80.90909090909099" style="visibility: inherit;" fill="rgb(0, 0, 0)" stroke="rgb(204, 204, 204)" stroke-width="1px"></line><line x1="50" y1="64.72727272727279" x2="45" y2="64.72727272727279" style="visibility: inherit;" fill="rgb(0, 0, 0)" stroke="rgb(204, 204, 204)" stroke-width="1px"></line><line x1="50" y1="48.54545454545459" x2="45" y2="48.54545454545459" style="visibility: inherit;" fill="rgb(0, 0, 0)" stroke="rgb(204, 204, 204)" stroke-width="1px"></line><line x1="50" y1="32.3636363636364" x2="45" y2="32.3636363636364" style="visibility: inherit;" fill="rgb(0, 0, 0)" stroke="rgb(204, 204, 204)" stroke-width="1px"></line><line x1="50" y1="16.181818181818215" x2="45" y2="16.181818181818215" style="visibility: inherit;" fill="rgb(0, 0, 0)" stroke="rgb(204, 204, 204)" stroke-width="1px"></line><line x1="50" y1="0" x2="45" y2="0" style="visibility: inherit;" fill="rgb(0, 0, 0)" stroke="rgb(204, 204, 204)" stroke-width="1px"></line></g><g transform="translate(40, 0)"><text x="0" y="178" dx="0em" dy="0.3em" style="text-anchor: end; visibility: hidden; font-family: &quot;Helvetica Neue&quot;, sans-serif; font-size: 12px; font-weight: 200;" fill="rgb(50, 49, 63)" stroke="none" stroke-width="1px">0.91</text><text x="0" y="161.8181818181818" dx="0em" dy="0.3em" style="text-anchor: end; visibility: inherit; font-family: &quot;Helvetica Neue&quot;, sans-serif; font-size: 12px; font-weight: 200;" fill="rgb(50, 49, 63)" stroke="none" stroke-width="1px">0.92</text><text x="0" y="145.6363636363636" dx="0em" dy="0.3em" style="text-anchor: end; visibility: hidden; font-family: &quot;Helvetica Neue&quot;, sans-serif; font-size: 12px; font-weight: 200;" fill="rgb(50, 49, 63)" stroke="none" stroke-width="1px">0.93</text><text x="0" y="129.45454545454558" dx="0em" dy="0.3em" style="text-anchor: end; visibility: inherit; font-family: &quot;Helvetica Neue&quot;, sans-serif; font-size: 12px; font-weight: 200;" fill="rgb(50, 49, 63)" stroke="none" stroke-width="1px">0.94</text><text x="0" y="113.2727272727274" dx="0em" dy="0.3em" style="text-anchor: end; visibility: hidden; font-family: &quot;Helvetica Neue&quot;, sans-serif; font-size: 12px; font-weight: 200;" fill="rgb(50, 49, 63)" stroke="none" stroke-width="1px">0.95</text><text x="0" y="97.0909090909092" dx="0em" dy="0.3em" style="text-anchor: end; visibility: inherit; font-family: &quot;Helvetica Neue&quot;, sans-serif; font-size: 12px; font-weight: 200;" fill="rgb(50, 49, 63)" stroke="none" stroke-width="1px">0.96</text><text x="0" y="80.90909090909099" dx="0em" dy="0.3em" style="text-anchor: end; visibility: hidden; font-family: &quot;Helvetica Neue&quot;, sans-serif; font-size: 12px; font-weight: 200;" fill="rgb(50, 49, 63)" stroke="none" stroke-width="1px">0.97</text><text x="0" y="64.72727272727279" dx="0em" dy="0.3em" style="text-anchor: end; visibility: inherit; font-family: &quot;Helvetica Neue&quot;, sans-serif; font-size: 12px; font-weight: 200;" fill="rgb(50, 49, 63)" stroke="none" stroke-width="1px">0.98</text><text x="0" y="48.54545454545459" dx="0em" dy="0.3em" style="text-anchor: end; visibility: hidden; font-family: &quot;Helvetica Neue&quot;, sans-serif; font-size: 12px; font-weight: 200;" fill="rgb(50, 49, 63)" stroke="none" stroke-width="1px">0.99</text><text x="0" y="32.3636363636364" dx="0em" dy="0.3em" style="text-anchor: end; visibility: inherit; font-family: &quot;Helvetica Neue&quot;, sans-serif; font-size: 12px; font-weight: 200;" fill="rgb(50, 49, 63)" stroke="none" stroke-width="1px">1</text><text x="0" y="16.181818181818215" dx="0em" dy="0.3em" style="text-anchor: end; visibility: hidden; font-family: &quot;Helvetica Neue&quot;, sans-serif; font-size: 12px; font-weight: 200;" fill="rgb(50, 49, 63)" stroke="none" stroke-width="1px">1.01</text><text x="0" y="0" dx="0em" dy="0.3em" style="text-anchor: end; visibility: hidden; font-family: &quot;Helvetica Neue&quot;, sans-serif; font-size: 12px; font-weight: 200;" fill="rgb(50, 49, 63)" stroke="none" stroke-width="1px">1.02</text></g><line x1="50" y1="0" x2="50" y2="178" fill="rgb(0, 0, 0)" stroke="rgb(204, 204, 204)" stroke-width="1px"></line></g></g><g transform="translate(50, 0)" clip-path="url(#clip_0)"><clipPath id="clip_0"><rect width="280" height="178"></rect></clipPath><g><g><g><line x1="0" y1="0" x2="0" y2="178" fill="rgb(0, 0, 0)" stroke="rgb(60, 60, 60)" stroke-width="1px" opacity="0.25"></line><line x1="21.53846153846154" y1="0" x2="21.53846153846154" y2="178" fill="rgb(0, 0, 0)" stroke="rgb(60, 60, 60)" stroke-width="1px" opacity="0.25"></line><line x1="43.07692307692308" y1="0" x2="43.07692307692308" y2="178" fill="rgb(0, 0, 0)" stroke="rgb(60, 60, 60)" stroke-width="1px" opacity="0.25"></line><line x1="64.61538461538461" y1="0" x2="64.61538461538461" y2="178" fill="rgb(0, 0, 0)" stroke="rgb(60, 60, 60)" stroke-width="1px" opacity="0.25"></line><line x1="86.15384615384616" y1="0" x2="86.15384615384616" y2="178" fill="rgb(0, 0, 0)" stroke="rgb(60, 60, 60)" stroke-width="1px" opacity="0.25"></line><line x1="107.6923076923077" y1="0" x2="107.6923076923077" y2="178" fill="rgb(0, 0, 0)" stroke="rgb(60, 60, 60)" stroke-width="1px" opacity="0.25"></line><line x1="129.23076923076923" y1="0" x2="129.23076923076923" y2="178" fill="rgb(0, 0, 0)" stroke="rgb(60, 60, 60)" stroke-width="1px" opacity="0.25"></line><line x1="150.76923076923077" y1="0" x2="150.76923076923077" y2="178" fill="rgb(0, 0, 0)" stroke="rgb(60, 60, 60)" stroke-width="1px" opacity="0.25"></line><line x1="172.30769230769232" y1="0" x2="172.30769230769232" y2="178" fill="rgb(0, 0, 0)" stroke="rgb(60, 60, 60)" stroke-width="1px" opacity="0.25"></line><line x1="193.84615384615384" y1="0" x2="193.84615384615384" y2="178" fill="rgb(0, 0, 0)" stroke="rgb(60, 60, 60)" stroke-width="1px" opacity="0.25"></line><line x1="215.3846153846154" y1="0" x2="215.3846153846154" y2="178" fill="rgb(0, 0, 0)" stroke="rgb(60, 60, 60)" stroke-width="1px" opacity="0.25"></line><line x1="236.92307692307693" y1="0" x2="236.92307692307693" y2="178" fill="rgb(0, 0, 0)" stroke="rgb(60, 60, 60)" stroke-width="1px" opacity="0.25"></line><line x1="258.46153846153845" y1="0" x2="258.46153846153845" y2="178" fill="rgb(0, 0, 0)" stroke="rgb(60, 60, 60)" stroke-width="1px" opacity="0.25"></line><line x1="280" y1="0" x2="280" y2="178" fill="rgb(0, 0, 0)" stroke="rgb(60, 60, 60)" stroke-width="1px" opacity="0.25"></line></g><g><line x1="0" y1="178" x2="280" y2="178" fill="rgb(0, 0, 0)" stroke="rgb(60, 60, 60)" stroke-width="1px" opacity="0.25"></line><line x1="0" y1="161.8181818181818" x2="280" y2="161.8181818181818" fill="rgb(0, 0, 0)" stroke="rgb(60, 60, 60)" stroke-width="1px" opacity="0.25"></line><line x1="0" y1="145.6363636363636" x2="280" y2="145.6363636363636" fill="rgb(0, 0, 0)" stroke="rgb(60, 60, 60)" stroke-width="1px" opacity="0.25"></line><line x1="0" y1="129.45454545454558" x2="280" y2="129.45454545454558" fill="rgb(0, 0, 0)" stroke="rgb(60, 60, 60)" stroke-width="1px" opacity="0.25"></line><line x1="0" y1="113.2727272727274" x2="280" y2="113.2727272727274" fill="rgb(0, 0, 0)" stroke="rgb(60, 60, 60)" stroke-width="1px" opacity="0.25"></line><line x1="0" y1="97.0909090909092" x2="280" y2="97.0909090909092" fill="rgb(0, 0, 0)" stroke="rgb(60, 60, 60)" stroke-width="1px" opacity="0.25"></line><line x1="0" y1="80.90909090909099" x2="280" y2="80.90909090909099" fill="rgb(0, 0, 0)" stroke="rgb(60, 60, 60)" stroke-width="1px" opacity="0.25"></line><line x1="0" y1="64.72727272727279" x2="280" y2="64.72727272727279" fill="rgb(0, 0, 0)" stroke="rgb(60, 60, 60)" stroke-width="1px" opacity="0.25"></line><line x1="0" y1="48.54545454545459" x2="280" y2="48.54545454545459" fill="rgb(0, 0, 0)" stroke="rgb(60, 60, 60)" stroke-width="1px" opacity="0.25"></line><line x1="0" y1="32.3636363636364" x2="280" y2="32.3636363636364" fill="rgb(0, 0, 0)" stroke="rgb(60, 60, 60)" stroke-width="1px" opacity="0.25"></line><line x1="0" y1="16.181818181818215" x2="280" y2="16.181818181818215" fill="rgb(0, 0, 0)" stroke="rgb(60, 60, 60)" stroke-width="1px" opacity="0.25"></line><line x1="0" y1="0" x2="280" y2="0" fill="rgb(0, 0, 0)" stroke="rgb(60, 60, 60)" stroke-width="1px" opacity="0.25"></line></g></g></g><g><g><line x1="0" y1="1650.5454545454547" x2="280" y2="1650.5454545454547" fill="rgb(0, 0, 0)" stroke="rgb(153, 153, 153)" stroke-width="1.5px"></line></g></g><g><g><line x1="21.53846153846154" y1="0" x2="21.53846153846154" y2="178" fill="rgb(0, 0, 0)" stroke="rgb(153, 153, 153)" stroke-width="1.5px"></line></g></g><g><g><g><g><g><path stroke="rgb(255, 112, 67)" stroke-width="2px" d="M31.876923076923077,218.77994019584509L33.815384615384616,175.51228604170626L35.753846153846155,142.127836749693L37.800000000000004,117.58957762170343L39.73846153846154,99.15549464376853L41.676923076923075,85.0788106953829L43.72307692307692,74.19474431062653L45.76923076923077,65.69784198328088L47.81538461538461,59.01457575964537L49.86153846153846,53.72673978256597L51.8,49.52342147223189L53.84615384615385,46.16978824065029L55.676923076923075,43.48616157015519L57.61538461538461,41.33360186357399L59.44615384615385,39.603739525867496L61.27692307692308,38.211450726251826L63,37.0894854730721L64.93846153846154,36.18446505557014L66.98461538461538,35.45385898751044L68.92307692307693,34.86367501344111L70.86153846153846,34.38667641168843L72.8,34.00099466140705L74.73846153846154,33.68904216958762L76.67692307692307,66.30471251482757L78.61538461538461,92.69847647677108L80.55384615384615,81.21814633535207L82.6,71.92483245212371L84.75384615384615,64.40101991709138L86.8,58.309204693839774L88.73846153846154,53.376455955571544L90.78461538461538,49.381992928132604L92.83076923076923,46.147175352818124L94.76923076923077,43.52743059701976L96.81538461538462,41.40573742618821L98.86153846153846,39.68736280326593L100.6923076923077,38.295608488845005L102.73846153846154,37.168372205744475L104.78461538461539,36.25536639001038L106.83076923076923,35.51586813806648L108.76923076923077,34.916898473004096L110.81538461538462,34.43174873671367L112.86153846153846,34.038787745655156L114.90769230769232,33.720496097427L116.73846153846154,33.46268429388073L118.67692307692309,33.25385964045947L120.72307692307693,33.08471357873063L122.76923076923077,32.94770652024991L124.60000000000001,65.63233312565771L124.70769230769231,59.31120846632709L124.70769230769231,54.191122347716345L124.81538461538462,50.04386889919216L124.92307692307693,46.68460430521418L124.92307692307693,43.96360700388993L125.03076923076924,41.759603795490335L125.03076923076924,39.97436421846038L125.13846153846154,38.5283221436471L125.24615384615385,37.35702936381725L126.32307692307691,36.40828306558862L128.26153846153846,35.63979912395979L130.20000000000002,35.01732749861503L132.03076923076924,34.513125723119686L133.86153846153846,34.104722443110745L135.9076923076923,33.77391589006086L137.73846153846154,33.50596265016537L139.56923076923076,33.28892057051385L141.5076923076923,33.11311651530025L143.33846153846153,32.97071524980373L145.27692307692308,32.85537023736583L147.1076923076923,32.761940785567504L148.93846153846155,32.68626293504087L150.87692307692308,32.62496387967707L152.7076923076923,65.37045315762582L154.64615384615385,59.09915751053252L156.4769230769231,54.019408193286594L158.41538461538462,49.90481134925864L160.35384615384615,46.57198797313623L162.18461538461537,43.87240108278999L164.01538461538462,41.685735730683376L165.95384615384617,39.91453681455215L167.8923076923077,38.47986570500129L169.72307692307692,37.317782114476216L171.55384615384614,69.17163333461653L173.4923076923077,68.32719894752239L175.32307692307694,61.49412200763061L177.36923076923077,55.95932970315339L179.20000000000002,51.476147947572244L181.0307692307692,47.84477073279848L182.75384615384615,44.903355193586435L184.04615384615383,75.31594725684315L185.87692307692308,67.15500817062123L187.81538461538463,60.54464751646009L189.75384615384615,55.1902553903155L191.6923076923077,50.85319777058275L193.5230769230769,47.34018110020327L195.46153846153845,44.49463759824803L197.5076923076923,42.18974736235464L199.33846153846153,40.32278627173406L201.27692307692305,38.8105477886285L203.2153846153846,37.58563461750805L205.15384615384613,36.59345494902831L206.98461538461538,68.58492798915508L208.92307692307693,61.702882579195915L210.75384615384615,88.92356436677476L212.69230769230768,78.17717804504068L214.41538461538462,69.47260512482715L216.35384615384615,62.42190105971102L218.1846153846154,56.71083076713548L220.12307692307695,52.084863830259735L221.95384615384614,48.33783061146292L223.8923076923077,78.09787227024263L225.72307692307692,69.40836744777694L227.44615384615383,62.369868541652096L229.27692307692308,56.66868442773854L231.1076923076923,52.05072529549963L233.04615384615386,48.31017839840672L234.98461538461538,45.28033541177456L236.92307692307693,42.826162592611325L238.75384615384613,40.8382826090951L240.6923076923077,39.22809982245087L242.52307692307693,37.92385176527148L244.46153846153845,36.86741083895751L246.29230769230767,36.01169368864424L248.23076923076923,35.31856279689151L250.06153846153848,67.55226533960035L252,60.86642583415869L253.93846153846155,55.45089583475384" style="fill: none;" fill="none"></path></g></g></g></g><g opacity="0.2"><g><g><g><path stroke="rgb(255, 112, 67)" stroke-width="2px" d="M21.53846153846154,1650.5454545454547L23.369230769230768,32.3636363636364L25.523076923076925,32.3636363636364L27.56923076923077,32.3636363636364L29.723076923076924,204.96962881088263L31.876923076923077,32.3636363636364L33.815384615384616,43.15150486339226L35.753846153846155,32.3636363636364L37.800000000000004,32.3636363636364L39.73846153846154,32.3636363636364L41.676923076923075,32.3636363636364L43.72307692307692,32.3636363636364L45.76923076923077,32.3636363636364L47.81538461538461,32.3636363636364L49.86153846153846,32.3636363636364L51.8,32.3636363636364L53.84615384615385,32.3636363636364L55.676923076923075,32.3636363636364L57.61538461538461,32.3636363636364L59.44615384615385,32.3636363636364L61.27692307692308,32.3636363636364L63,32.3636363636364L64.93846153846154,32.3636363636364L66.98461538461538,32.3636363636364L68.92307692307693,32.3636363636364L70.86153846153846,32.3636363636364L72.8,32.3636363636364L74.73846153846154,32.3636363636364L76.67692307692307,204.96962881088263L78.61538461538461,204.96962881088263L80.55384615384615,32.3636363636364L82.6,32.3636363636364L84.75384615384615,32.3636363636364L86.8,32.3636363636364L88.73846153846154,32.3636363636364L90.78461538461538,32.3636363636364L92.83076923076923,32.3636363636364L94.76923076923077,32.3636363636364L96.81538461538462,32.3636363636364L98.86153846153846,32.3636363636364L100.6923076923077,32.3636363636364L102.73846153846154,32.3636363636364L104.78461538461539,32.3636363636364L106.83076923076923,32.3636363636364L108.76923076923077,32.3636363636364L110.81538461538462,32.3636363636364L112.86153846153846,32.3636363636364L114.90769230769232,32.3636363636364L116.73846153846154,32.3636363636364L118.67692307692309,32.3636363636364L120.72307692307693,32.3636363636364L122.76923076923077,32.3636363636364L124.60000000000001,204.96962881088263L124.70769230769231,32.3636363636364L124.70769230769231,32.3636363636364L124.81538461538462,32.3636363636364L124.92307692307693,32.3636363636364L124.92307692307693,32.3636363636364L125.03076923076924,32.3636363636364L125.03076923076924,32.3636363636364L125.13846153846154,32.3636363636364L125.24615384615385,32.3636363636364L126.32307692307691,32.3636363636364L128.26153846153846,32.3636363636364L130.20000000000002,32.3636363636364L132.03076923076924,32.3636363636364L133.86153846153846,32.3636363636364L135.9076923076923,32.3636363636364L137.73846153846154,32.3636363636364L139.56923076923076,32.3636363636364L141.5076923076923,32.3636363636364L143.33846153846153,32.3636363636364L145.27692307692308,32.3636363636364L147.1076923076923,32.3636363636364L148.93846153846155,32.3636363636364L150.87692307692308,32.3636363636364L152.7076923076923,204.96962881088263L154.64615384615385,32.3636363636364L156.4769230769231,32.3636363636364L158.41538461538462,32.3636363636364L160.35384615384615,32.3636363636364L162.18461538461537,32.3636363636364L164.01538461538462,32.3636363636364L165.95384615384617,32.3636363636364L167.8923076923077,32.3636363636364L169.72307692307692,32.3636363636364L171.55384615384614,204.96962881088263L173.4923076923077,64.72724186290397L175.32307692307694,32.3636363636364L177.36923076923077,32.3636363636364L179.20000000000002,32.3636363636364L181.0307692307692,32.3636363636364L182.75384615384615,32.3636363636364L184.04615384615383,204.96962881088263L185.87692307692308,32.3636363636364L187.81538461538463,32.3636363636364L189.75384615384615,32.3636363636364L191.6923076923077,32.3636363636364L193.5230769230769,32.3636363636364L195.46153846153845,32.3636363636364L197.5076923076923,32.3636363636364L199.33846153846153,32.3636363636364L201.27692307692305,32.3636363636364L203.2153846153846,32.3636363636364L205.15384615384613,32.3636363636364L206.98461538461538,204.96962881088263L208.92307692307693,32.3636363636364L210.75384615384615,204.96962881088263L212.69230769230768,32.3636363636364L214.41538461538462,32.3636363636364L216.35384615384615,32.3636363636364L218.1846153846154,32.3636363636364L220.12307692307695,32.3636363636364L221.95384615384614,32.3636363636364L223.8923076923077,204.96962881088263L225.72307692307692,32.3636363636364L227.44615384615383,32.3636363636364L229.27692307692308,32.3636363636364L231.1076923076923,32.3636363636364L233.04615384615386,32.3636363636364L234.98461538461538,32.3636363636364L236.92307692307693,32.3636363636364L238.75384615384613,32.3636363636364L240.6923076923077,32.3636363636364L242.52307692307693,32.3636363636364L244.46153846153845,32.3636363636364L246.29230769230767,32.3636363636364L248.23076923076923,32.3636363636364L250.06153846153848,204.96962881088263L252,32.3636363636364L253.93846153846155,32.3636363636364" style="fill: none;" fill="none"></path></g></g></g></g></g></g><g transform="translate(50, 178)" clip-path="url(#clip_1)"><clipPath id="clip_1"><rect width="280" height="22"></rect></clipPath><g><g><line x1="0" y1="0" x2="0" y2="5" style="visibility: inherit;" fill="rgb(0, 0, 0)" stroke="rgb(204, 204, 204)" stroke-width="1px"></line><line x1="21.53846153846154" y1="0" x2="21.53846153846154" y2="5" style="visibility: inherit;" fill="rgb(0, 0, 0)" stroke="rgb(204, 204, 204)" stroke-width="1px"></line><line x1="43.07692307692308" y1="0" x2="43.07692307692308" y2="5" style="visibility: inherit;" fill="rgb(0, 0, 0)" stroke="rgb(204, 204, 204)" stroke-width="1px"></line><line x1="64.61538461538461" y1="0" x2="64.61538461538461" y2="5" style="visibility: inherit;" fill="rgb(0, 0, 0)" stroke="rgb(204, 204, 204)" stroke-width="1px"></line><line x1="86.15384615384616" y1="0" x2="86.15384615384616" y2="5" style="visibility: inherit;" fill="rgb(0, 0, 0)" stroke="rgb(204, 204, 204)" stroke-width="1px"></line><line x1="107.6923076923077" y1="0" x2="107.6923076923077" y2="5" style="visibility: inherit;" fill="rgb(0, 0, 0)" stroke="rgb(204, 204, 204)" stroke-width="1px"></line><line x1="129.23076923076923" y1="0" x2="129.23076923076923" y2="5" style="visibility: inherit;" fill="rgb(0, 0, 0)" stroke="rgb(204, 204, 204)" stroke-width="1px"></line><line x1="150.76923076923077" y1="0" x2="150.76923076923077" y2="5" style="visibility: inherit;" fill="rgb(0, 0, 0)" stroke="rgb(204, 204, 204)" stroke-width="1px"></line><line x1="172.30769230769232" y1="0" x2="172.30769230769232" y2="5" style="visibility: inherit;" fill="rgb(0, 0, 0)" stroke="rgb(204, 204, 204)" stroke-width="1px"></line><line x1="193.84615384615384" y1="0" x2="193.84615384615384" y2="5" style="visibility: inherit;" fill="rgb(0, 0, 0)" stroke="rgb(204, 204, 204)" stroke-width="1px"></line><line x1="215.3846153846154" y1="0" x2="215.3846153846154" y2="5" style="visibility: inherit;" fill="rgb(0, 0, 0)" stroke="rgb(204, 204, 204)" stroke-width="1px"></line><line x1="236.92307692307693" y1="0" x2="236.92307692307693" y2="5" style="visibility: inherit;" fill="rgb(0, 0, 0)" stroke="rgb(204, 204, 204)" stroke-width="1px"></line><line x1="258.46153846153845" y1="0" x2="258.46153846153845" y2="5" style="visibility: inherit;" fill="rgb(0, 0, 0)" stroke="rgb(204, 204, 204)" stroke-width="1px"></line><line x1="280" y1="0" x2="280" y2="5" style="visibility: inherit;" fill="rgb(0, 0, 0)" stroke="rgb(204, 204, 204)" stroke-width="1px"></line></g><g transform="translate(0, 8)"><text x="0" y="0" dx="0em" dy="0.95em" style="text-anchor: middle; visibility: hidden; font-family: &quot;Helvetica Neue&quot;, sans-serif; font-size: 12px; font-weight: 200;" fill="rgb(50, 49, 63)" stroke="none" stroke-width="1px">-200</text><text x="21.53846153846154" y="0" dx="0em" dy="0.95em" style="text-anchor: middle; visibility: inherit; font-family: &quot;Helvetica Neue&quot;, sans-serif; font-size: 12px; font-weight: 200;" fill="rgb(50, 49, 63)" stroke="none" stroke-width="1px">0</text><text x="43.07692307692308" y="0" dx="0em" dy="0.95em" style="text-anchor: middle; visibility: hidden; font-family: &quot;Helvetica Neue&quot;, sans-serif; font-size: 12px; font-weight: 200;" fill="rgb(50, 49, 63)" stroke="none" stroke-width="1px">200</text><text x="64.61538461538461" y="0" dx="0em" dy="0.95em" style="text-anchor: middle; visibility: inherit; font-family: &quot;Helvetica Neue&quot;, sans-serif; font-size: 12px; font-weight: 200;" fill="rgb(50, 49, 63)" stroke="none" stroke-width="1px">400</text><text x="86.15384615384616" y="0" dx="0em" dy="0.95em" style="text-anchor: middle; visibility: hidden; font-family: &quot;Helvetica Neue&quot;, sans-serif; font-size: 12px; font-weight: 200;" fill="rgb(50, 49, 63)" stroke="none" stroke-width="1px">600</text><text x="107.6923076923077" y="0" dx="0em" dy="0.95em" style="text-anchor: middle; visibility: inherit; font-family: &quot;Helvetica Neue&quot;, sans-serif; font-size: 12px; font-weight: 200;" fill="rgb(50, 49, 63)" stroke="none" stroke-width="1px">800</text><text x="129.23076923076923" y="0" dx="0em" dy="0.95em" style="text-anchor: middle; visibility: hidden; font-family: &quot;Helvetica Neue&quot;, sans-serif; font-size: 12px; font-weight: 200;" fill="rgb(50, 49, 63)" stroke="none" stroke-width="1px">1k</text><text x="150.76923076923077" y="0" dx="0em" dy="0.95em" style="text-anchor: middle; visibility: inherit; font-family: &quot;Helvetica Neue&quot;, sans-serif; font-size: 12px; font-weight: 200;" fill="rgb(50, 49, 63)" stroke="none" stroke-width="1px">1.2k</text><text x="172.30769230769232" y="0" dx="0em" dy="0.95em" style="text-anchor: middle; visibility: hidden; font-family: &quot;Helvetica Neue&quot;, sans-serif; font-size: 12px; font-weight: 200;" fill="rgb(50, 49, 63)" stroke="none" stroke-width="1px">1.4k</text><text x="193.84615384615384" y="0" dx="0em" dy="0.95em" style="text-anchor: middle; visibility: inherit; font-family: &quot;Helvetica Neue&quot;, sans-serif; font-size: 12px; font-weight: 200;" fill="rgb(50, 49, 63)" stroke="none" stroke-width="1px">1.6k</text><text x="215.3846153846154" y="0" dx="0em" dy="0.95em" style="text-anchor: middle; visibility: hidden; font-family: &quot;Helvetica Neue&quot;, sans-serif; font-size: 12px; font-weight: 200;" fill="rgb(50, 49, 63)" stroke="none" stroke-width="1px">1.8k</text><text x="236.92307692307693" y="0" dx="0em" dy="0.95em" style="text-anchor: middle; visibility: inherit; font-family: &quot;Helvetica Neue&quot;, sans-serif; font-size: 12px; font-weight: 200;" fill="rgb(50, 49, 63)" stroke="none" stroke-width="1px">2k</text><text x="258.46153846153845" y="0" dx="0em" dy="0.95em" style="text-anchor: middle; visibility: hidden; font-family: &quot;Helvetica Neue&quot;, sans-serif; font-size: 12px; font-weight: 200;" fill="rgb(50, 49, 63)" stroke="none" stroke-width="1px">2.2k</text><text x="280" y="0" dx="0em" dy="0.95em" style="text-anchor: middle; visibility: hidden; font-family: &quot;Helvetica Neue&quot;, sans-serif; font-size: 12px; font-weight: 200;" fill="rgb(50, 49, 63)" stroke="none" stroke-width="1px">2.4k</text></g><line x1="0" y1="0" x2="280" y2="0" fill="rgb(0, 0, 0)" stroke="rgb(204, 204, 204)" stroke-width="1px"></line></g></g></g></g></svg>