<svg viewBox="0 0 330 200" xmlns="http://www.w3.org/2000/svg"><g><g><g><g><g><line x1="60" y1="178" x2="55" y2="178" style="visibility: inherit;" fill="rgb(0, 0, 0)" stroke="rgb(204, 204, 204)" stroke-width="1px"></line><line x1="60" y1="160.2" x2="55" y2="160.2" style="visibility: inherit;" fill="rgb(0, 0, 0)" stroke="rgb(204, 204, 204)" stroke-width="1px"></line><line x1="60" y1="142.4" x2="55" y2="142.4" style="visibility: inherit;" fill="rgb(0, 0, 0)" stroke="rgb(204, 204, 204)" stroke-width="1px"></line><line x1="60" y1="124.6" x2="55" y2="124.6" style="visibility: inherit;" fill="rgb(0, 0, 0)" stroke="rgb(204, 204, 204)" stroke-width="1px"></line><line x1="60" y1="106.8" x2="55" y2="106.8" style="visibility: inherit;" fill="rgb(0, 0, 0)" stroke="rgb(204, 204, 204)" stroke-width="1px"></line><line x1="60" y1="88.99999999999999" x2="55" y2="88.99999999999999" style="visibility: inherit;" fill="rgb(0, 0, 0)" stroke="rgb(204, 204, 204)" stroke-width="1px"></line><line x1="60" y1="71.19999999999999" x2="55" y2="71.19999999999999" style="visibility: inherit;" fill="rgb(0, 0, 0)" stroke="rgb(204, 204, 204)" stroke-width="1px"></line><line x1="60" y1="53.400000000000006" x2="55" y2="53.400000000000006" style="visibility: inherit;" fill="rgb(0, 0, 0)" stroke="rgb(204, 204, 204)" stroke-width="1px"></line><line x1="60" y1="35.599999999999994" x2="55" y2="35.599999999999994" style="visibility: inherit;" fill="rgb(0, 0, 0)" stroke="rgb(204, 204, 204)" stroke-width="1px"></line><line x1="60" y1="17.799999999999983" x2="55" y2="17.799999999999983" style="visibility: inherit;" fill="rgb(0, 0, 0)" stroke="rgb(204, 204, 204)" stroke-width="1px"></line><line x1="60" y1="0" x2="55" y2="0" style="visibility: inherit;" fill="rgb(0, 0, 0)" stroke="rgb(204, 204, 204)" stroke-width="1px"></line></g><g transform="translate(50, 0)"><text x="0" y="178" dx="0em" dy="0.3em" style="text-anchor: end; visibility: hidden; font-family: &quot;Helvetica Neue&quot;, sans-serif; font-size: 12px; font-weight: 200;" fill="rgb(50, 49, 63)" stroke="none" stroke-width="1px">-0.02</text><text x="0" y="160.2" dx="0em" dy="0.3em" style="text-anchor: end; visibility: inherit; font-family: &quot;Helvetica Neue&quot;, sans-serif; font-size: 12px; font-weight: 200;" fill="rgb(50, 49, 63)" stroke="none" stroke-width="1px">0</text><text x="0" y="142.4" dx="0em" dy="0.3em" style="text-anchor: end; visibility: hidden; font-family: &quot;Helvetica Neue&quot;, sans-serif; font-size: 12px; font-weight: 200;" fill="rgb(50, 49, 63)" stroke="none" stroke-width="1px">0.02</text><text x="0" y="124.6" dx="0em" dy="0.3em" style="text-anchor: end; visibility: inherit; font-family: &quot;Helvetica Neue&quot;, sans-serif; font-size: 12px; font-weight: 200;" fill="rgb(50, 49, 63)" stroke="none" stroke-width="1px">0.04</text><text x="0" y="106.8" dx="0em" dy="0.3em" style="text-anchor: end; visibility: hidden; font-family: &quot;Helvetica Neue&quot;, sans-serif; font-size: 12px; font-weight: 200;" fill="rgb(50, 49, 63)" stroke="none" stroke-width="1px">0.06</text><text x="0" y="88.99999999999999" dx="0em" dy="0.3em" style="text-anchor: end; visibility: inherit; font-family: &quot;Helvetica Neue&quot;, sans-serif; font-size: 12px; font-weight: 200;" fill="rgb(50, 49, 63)" stroke="none" stroke-width="1px">0.08</text><text x="0" y="71.19999999999999" dx="0em" dy="0.3em" style="text-anchor: end; visibility: hidden; font-family: &quot;Helvetica Neue&quot;, sans-serif; font-size: 12px; font-weight: 200;" fill="rgb(50, 49, 63)" stroke="none" stroke-width="1px">0.1</text><text x="0" y="53.400000000000006" dx="0em" dy="0.3em" style="text-anchor: end; visibility: inherit; font-family: &quot;Helvetica Neue&quot;, sans-serif; font-size: 12px; font-weight: 200;" fill="rgb(50, 49, 63)" stroke="none" stroke-width="1px">0.12</text><text x="0" y="35.599999999999994" dx="0em" dy="0.3em" style="text-anchor: end; visibility: hidden; font-family: &quot;Helvetica Neue&quot;, sans-serif; font-size: 12px; font-weight: 200;" fill="rgb(50, 49, 63)" stroke="none" stroke-width="1px">0.14</text><text x="0" y="17.799999999999983" dx="0em" dy="0.3em" style="text-anchor: end; visibility: inherit; font-family: &quot;Helvetica Neue&quot;, sans-serif; font-size: 12px; font-weight: 200;" fill="rgb(50, 49, 63)" stroke="none" stroke-width="1px">0.16</text><text x="0" y="0" dx="0em" dy="0.3em" style="text-anchor: end; visibility: hidden; font-family: &quot;Helvetica Neue&quot;, sans-serif; font-size: 12px; font-weight: 200;" fill="rgb(50, 49, 63)" stroke="none" stroke-width="1px">0.18</text></g><line x1="60" y1="0" x2="60" y2="178" fill="rgb(0, 0, 0)" stroke="rgb(204, 204, 204)" stroke-width="1px"></line></g></g><g transform="translate(60, 0)" clip-path="url(#clip_0)"><clipPath id="clip_0"><rect width="270" height="178"></rect></clipPath><g><g><g><line x1="0" y1="0" x2="0" y2="178" fill="rgb(0, 0, 0)" stroke="rgb(60, 60, 60)" stroke-width="1px" opacity="0.25"></line><line x1="20.76923076923077" y1="0" x2="20.76923076923077" y2="178" fill="rgb(0, 0, 0)" stroke="rgb(60, 60, 60)" stroke-width="1px" opacity="0.25"></line><line x1="41.53846153846154" y1="0" x2="41.53846153846154" y2="178" fill="rgb(0, 0, 0)" stroke="rgb(60, 60, 60)" stroke-width="1px" opacity="0.25"></line><line x1="62.307692307692314" y1="0" x2="62.307692307692314" y2="178" fill="rgb(0, 0, 0)" stroke="rgb(60, 60, 60)" stroke-width="1px" opacity="0.25"></line><line x1="83.07692307692308" y1="0" x2="83.07692307692308" y2="178" fill="rgb(0, 0, 0)" stroke="rgb(60, 60, 60)" stroke-width="1px" opacity="0.25"></line><line x1="103.84615384615385" y1="0" x2="103.84615384615385" y2="178" fill="rgb(0, 0, 0)" stroke="rgb(60, 60, 60)" stroke-width="1px" opacity="0.25"></line><line x1="124.61538461538463" y1="0" x2="124.61538461538463" y2="178" fill="rgb(0, 0, 0)" stroke="rgb(60, 60, 60)" stroke-width="1px" opacity="0.25"></line><line x1="145.3846153846154" y1="0" x2="145.3846153846154" y2="178" fill="rgb(0, 0, 0)" stroke="rgb(60, 60, 60)" stroke-width="1px" opacity="0.25"></line><line x1="166.15384615384616" y1="0" x2="166.15384615384616" y2="178" fill="rgb(0, 0, 0)" stroke="rgb(60, 60, 60)" stroke-width="1px" opacity="0.25"></line><line x1="186.9230769230769" y1="0" x2="186.9230769230769" y2="178" fill="rgb(0, 0, 0)" stroke="rgb(60, 60, 60)" stroke-width="1px" opacity="0.25"></line><line x1="207.6923076923077" y1="0" x2="207.6923076923077" y2="178" fill="rgb(0, 0, 0)" stroke="rgb(60, 60, 60)" stroke-width="1px" opacity="0.25"></line><line x1="228.46153846153845" y1="0" x2="228.46153846153845" y2="178" fill="rgb(0, 0, 0)" stroke="rgb(60, 60, 60)" stroke-width="1px" opacity="0.25"></line><line x1="249.23076923076925" y1="0" x2="249.23076923076925" y2="178" fill="rgb(0, 0, 0)" stroke="rgb(60, 60, 60)" stroke-width="1px" opacity="0.25"></line><line x1="270" y1="0" x2="270" y2="178" fill="rgb(0, 0, 0)" stroke="rgb(60, 60, 60)" stroke-width="1px" opacity="0.25"></line></g><g><line x1="0" y1="178" x2="270" y2="178" fill="rgb(0, 0, 0)" stroke="rgb(60, 60, 60)" stroke-width="1px" opacity="0.25"></line><line x1="0" y1="160.2" x2="270" y2="160.2" fill="rgb(0, 0, 0)" stroke="rgb(60, 60, 60)" stroke-width="1px" opacity="0.25"></line><line x1="0" y1="142.4" x2="270" y2="142.4" fill="rgb(0, 0, 0)" stroke="rgb(60, 60, 60)" stroke-width="1px" opacity="0.25"></line><line x1="0" y1="124.6" x2="270" y2="124.6" fill="rgb(0, 0, 0)" stroke="rgb(60, 60, 60)" stroke-width="1px" opacity="0.25"></line><line x1="0" y1="106.8" x2="270" y2="106.8" fill="rgb(0, 0, 0)" stroke="rgb(60, 60, 60)" stroke-width="1px" opacity="0.25"></line><line x1="0" y1="88.99999999999999" x2="270" y2="88.99999999999999" fill="rgb(0, 0, 0)" stroke="rgb(60, 60, 60)" stroke-width="1px" opacity="0.25"></line><line x1="0" y1="71.19999999999999" x2="270" y2="71.19999999999999" fill="rgb(0, 0, 0)" stroke="rgb(60, 60, 60)" stroke-width="1px" opacity="0.25"></line><line x1="0" y1="53.400000000000006" x2="270" y2="53.400000000000006" fill="rgb(0, 0, 0)" stroke="rgb(60, 60, 60)" stroke-width="1px" opacity="0.25"></line><line x1="0" y1="35.599999999999994" x2="270" y2="35.599999999999994" fill="rgb(0, 0, 0)" stroke="rgb(60, 60, 60)" stroke-width="1px" opacity="0.25"></line><line x1="0" y1="17.799999999999983" x2="270" y2="17.799999999999983" fill="rgb(0, 0, 0)" stroke="rgb(60, 60, 60)" stroke-width="1px" opacity="0.25"></line><line x1="0" y1="0" x2="270" y2="0" fill="rgb(0, 0, 0)" stroke="rgb(60, 60, 60)" stroke-width="1px" opacity="0.25"></line></g></g></g><g><g><line x1="0" y1="160.2" x2="270" y2="160.2" fill="rgb(0, 0, 0)" stroke="rgb(153, 153, 153)" stroke-width="1.5px"></line></g></g><g><g><line x1="20.76923076923077" y1="0" x2="20.76923076923077" y2="178" fill="rgb(0, 0, 0)" stroke="rgb(153, 153, 153)" stroke-width="1.5px"></line></g></g><g><g><g><g><g><path stroke="rgb(255, 112, 67)" stroke-width="2px" d="M20.76923076923077,160.2L22.534615384615385,89.38945322049915L24.507692307692306,60.971950671530806L26.584615384615386,44.58292616119007L28.661538461538463,35.04039915537183L30.73846153846154,28.90485542249351L32.607692307692304,28.362733146793943L34.47692307692308,27.975244810021422L36.34615384615385,27.688630297500936L38.31923076923077,25.871382208280494L40.18846153846154,26.051368497732398L42.161538461538456,24.715329398875298L44.13461538461539,23.548836251163777L46.107692307692304,22.694189956560678L48.08076923076923,22.013168638372036L49.95,23.056013710739307L51.92307692307693,22.189099059976826L53.58461538461539,25.95490363435215L55.55769230769231,24.65719965091526L57.323076923076925,26.483378406289148L59.088461538461544,28.091945797400456L60.75,30.536632731621864L62.61923076923077,29.895976972857795L64.48846153846154,29.18836266169373L66.46153846153847,27.338237106913084L68.33076923076923,27.189028645629463L70.09615384615385,28.498919566996932L72.06923076923077,26.746047724719773L73.93846153846154,26.734490164160263L75.8076923076923,26.729676105875313L77.67692307692307,26.99629959809525L79.64999999999999,25.23287636171611L81.72692307692309,22.692378844049443L83.59615384615385,23.45504324467413L85.56923076923077,22.74459482049511L87.54230769230769,22.039583486494053L89.51538461538462,21.481420417076805L91.38461538461539,22.471069220077L93.3576923076923,21.870529310330113L95.22692307692307,22.78288432122511L97.09615384615384,23.53382970651228L99.06923076923077,22.720376537182005L100.93846153846154,23.474868054557845L102.91153846153847,22.681110914061122L104.88461538461539,22.034645174791564L106.75384615384615,22.939156545857458L108.72692307692307,22.22639002413632L110.80384615384615,20.25451232972918L112.46538461538461,24.297695321556517L114.43846153846154,23.353572070807132L116.41153846153847,22.57675318672463L118.28076923076924,23.356985061493504L120.15,46.80315465792208L120.15,68.348801621778L120.15,85.80069094234335M120.15,99.93666570747327ZM120.15,111.38676879841509ZM120.25384615384615,100.4695459215944L121.81153846153846,90.67903435355132L123.68076923076924,78.52150348378451L125.55000000000001,68.67605880471169L127.31538461538462,62.34573904678325L129.08076923076922,56.74648739894967L130.95,51.033868684461325L132.81923076923076,46.4141163920317L134.58461538461538,44.07283910044251L136.35,42.1828155698243L138.1153846153846,40.650352360232944L139.98461538461538,37.99865425432762L141.85384615384615,35.850668359901505L143.61923076923077,35.5205378380177L145.48846153846154,33.86976908458561L147.25384615384615,33.89544303909929L149.01923076923077,33.93571185267783L150.88846153846154,32.56077673714245L152.7576923076923,31.447777339185137L154.52307692307693,31.982362436143035L156.3923076923077,30.99526497013514L158.15769230769232,31.544502328918014L160.02692307692308,30.62353935749252L161.7923076923077,31.28978376377404L163.5576923076923,31.828655550635432L165.42692307692306,30.85438382864521L167.29615384615383,30.060977902231883L169.06153846153848,30.833408471502338L170.93076923076924,30.10724458618705L172.69615384615383,30.927436046836448L174.5653846153846,30.002057899635588L176.12307692307692,33.59962446004337L177.47307692307692,39.3357637065848L179.23846153846154,38.34333666004582L181.1076923076923,36.25668531106837L182.87307692307692,35.730964074500434L184.7423076923077,34.01438442710804L186.61153846153846,32.6971295101757L188.48076923076923,31.533753561525714L190.35,30.68524328893517L192.21923076923076,29.81186878536741L194.08846153846153,29.21766959724951L195.85384615384615,30.150230460601165L197.72307692307692,29.492432975792553L199.59230769230768,28.980090277394112L201.3576923076923,29.93848208835928L203.22692307692307,29.32466119699393L205.09615384615384,28.825296738997423L206.7576923076923,31.239940946460933L208.52307692307693,31.79706430728342L210.28846153846155,32.226306257175224L212.15769230769232,31.176808497771503L214.02692307692308,30.325891342553575L215.89615384615385,29.655047926838705L217.66153846153844,30.598268157340243L219.3230769230769,32.57213936488753L221.08846153846156,32.862890949887344L222.85384615384615,33.10189215762563L224.72307692307692,31.884838698484288L226.59230769230768,31.00174196768458L228.3576923076923,31.497377424913708L230.22692307692307,30.586832225069827L231.9923076923077,31.254318446795935L233.7576923076923,31.798673773406023L235.62692307692308,30.83396144628304L237.49615384615385,30.04496746373755L239.26153846153846,30.818008409634643L241.13076923076923,30.038491117557328L243,29.40281863245812L244.86923076923077,28.9505028137265" style="fill: none;" fill="none"></path></g></g></g></g><g opacity="0.2"><g><g><g><path stroke="rgb(255, 112, 67)" stroke-width="2px" d="M20.76923076923077,160.2L22.534615384615385,32.03291032910349L24.507692307692306,19.309050184488314L26.584615384615386,11.845177751779573L28.661538461538463,11.871065241098421L30.73846153846154,11.868373048305529L32.607692307692304,26.704318118095415L34.47692307692308,26.701228064298647L36.34615384615385,26.693164747953432L38.31923076923077,19.286982160806673L40.18846153846154,26.725391489267366L42.161538461538456,19.5804842233658L44.13461538461539,18.972565871477144L46.107692307692304,19.286106866598146L48.08076923076923,19.2618108212948L49.95,27.313363742828386L51.92307692307693,18.620206904411333L53.58461538461539,41.562609714269655L55.55769230769231,19.24951691627504L57.323076923076925,34.12660081386568L59.088461538461544,34.84816153049471L60.75,40.833940547704714L62.61923076923077,27.19124693870546L64.48846153846154,26.19538758397104L66.46153846153847,19.50104464292528L68.33076923076923,26.556207728385942L70.09615384615385,34.05987952351572L72.06923076923077,19.298546653985994L73.93846153846154,26.685353410244005L75.8076923076923,26.709198546409624L77.67692307692307,28.130915057659166L79.64999999999999,17.726067346334474L81.72692307692309,11.874606204032915L83.59615384615385,26.7032969415188L85.56923076923077,19.71818391680719L87.54230769230769,19.035892081260698L89.51538461538462,19.10309080481531L91.38461538461539,26.688363891839998L93.3576923076923,19.31118537187578L95.22692307692307,26.67134870290758L97.09615384615384,26.734529030323046L99.06923076923077,19.253110927343386L100.93846153846154,26.690923464298265L102.91153846153847,19.297591787576692L104.88461538461539,19.278918844461458L106.75384615384615,26.794937592744844L108.72692307692307,19.18794129490854L110.80384615384615,11.848506522178667L112.46538461538461,41.53372500538828L114.43846153846154,19.328757566213625L116.41153846153847,19.265139591693895L118.28076923076924,26.68316517472269L120.15,146.75613576993345L120.15,160.2L120.15,160.2M120.15,160.2ZM120.15,160.2ZM120.25384615384615,53.92798383235932L121.81153846153846,48.940743100643175L123.68076923076924,26.692236405611055L125.55000000000001,26.7035091340542L127.31538461538462,35.35865698456766L129.08076923076922,32.87604410648348L130.95,26.680114907026308L132.81923076923076,26.719410312175768L134.58461538461538,34.09161556959154L136.35,34.1253541827202L138.1153846153846,34.117224556207674L139.98461538461538,26.69405330419542L141.85384615384615,26.69346977472307L143.61923076923077,34.113139849901216L145.48846153846154,26.832283478975313L147.25384615384615,34.00489513278009L149.01923076923077,34.10738412737848L150.88846153846154,26.699212235212343L152.7576923076923,26.702885818481462L154.52307692307693,34.261382859945314L156.3923076923077,26.787112993001955L158.15769230769232,33.8859877407551L160.02692307692308,26.697329026460665L161.7923076923077,34.13008872866632L163.5576923076923,34.125950974226015L165.42692307692306,26.700909775495546L167.29615384615383,26.678563249111193L169.06153846153848,34.12640188336374L170.93076923076924,27.011493337154405L172.69615384615383,34.424041700363176L174.5653846153846,26.057024788856523L176.12307692307692,48.93661860823633L177.47307692307692,63.78983084559441L179.23846153846154,34.11246348619463L181.1076923076923,27.360961180925386L182.87307692307692,33.48973144292833L184.7423076923077,26.696334373950975L186.61153846153846,27.081463825702684L188.48076923076923,26.574098211526888L190.35,27.067910027503984L192.21923076923076,26.08853538036348L194.08846153846153,26.684504640102404L195.85384615384615,34.1258846640587L197.72307692307692,26.688138437271135L199.59230769230768,26.795892459154146L201.3576923076923,34.02425770163538L203.22692307692307,26.707845818996446L205.09615384615384,26.696427208185213L206.7576923076923,41.53395045995714L208.52307692307693,34.17216916084291L210.28846153846155,34.056232464313524L212.15769230769232,26.702633839845674L214.02692307692308,26.69829715490343L215.89615384615385,26.795136523246782L217.66153846153844,34.619364929199236L219.3230769230769,40.98706398606302L221.08846153846156,34.102410864830034L222.85384615384615,34.12079204320909L224.72307692307692,26.696347635984438L226.59230769230768,27.236961168050783L228.3576923076923,33.61034963726999L230.22692307692307,26.70503426790239L231.9923076923077,34.09991760253908L233.7576923076923,34.11934648156168L235.62692307692308,26.721240472793596L237.49615384615385,26.681361538171785L239.26153846153846,34.113604021072405L241.13076923076923,26.715285819768923L243,26.69284645915033L244.86923076923077,27.022209060192125" style="fill: none;" fill="none"></path></g></g></g></g></g></g><g transform="translate(60, 178)" clip-path="url(#clip_1)"><clipPath id="clip_1"><rect width="270" height="22"></rect></clipPath><g><g><line x1="0" y1="0" x2="0" y2="5" style="visibility: inherit;" fill="rgb(0, 0, 0)" stroke="rgb(204, 204, 204)" stroke-width="1px"></line><line x1="20.76923076923077" y1="0" x2="20.76923076923077" y2="5" style="visibility: inherit;" fill="rgb(0, 0, 0)" stroke="rgb(204, 204, 204)" stroke-width="1px"></line><line x1="41.53846153846154" y1="0" x2="41.53846153846154" y2="5" style="visibility: inherit;" fill="rgb(0, 0, 0)" stroke="rgb(204, 204, 204)" stroke-width="1px"></line><line x1="62.307692307692314" y1="0" x2="62.307692307692314" y2="5" style="visibility: inherit;" fill="rgb(0, 0, 0)" stroke="rgb(204, 204, 204)" stroke-width="1px"></line><line x1="83.07692307692308" y1="0" x2="83.07692307692308" y2="5" style="visibility: inherit;" fill="rgb(0, 0, 0)" stroke="rgb(204, 204, 204)" stroke-width="1px"></line><line x1="103.84615384615385" y1="0" x2="103.84615384615385" y2="5" style="visibility: inherit;" fill="rgb(0, 0, 0)" stroke="rgb(204, 204, 204)" stroke-width="1px"></line><line x1="124.61538461538463" y1="0" x2="124.61538461538463" y2="5" style="visibility: inherit;" fill="rgb(0, 0, 0)" stroke="rgb(204, 204, 204)" stroke-width="1px"></line><line x1="145.3846153846154" y1="0" x2="145.3846153846154" y2="5" style="visibility: inherit;" fill="rgb(0, 0, 0)" stroke="rgb(204, 204, 204)" stroke-width="1px"></line><line x1="166.15384615384616" y1="0" x2="166.15384615384616" y2="5" style="visibility: inherit;" fill="rgb(0, 0, 0)" stroke="rgb(204, 204, 204)" stroke-width="1px"></line><line x1="186.9230769230769" y1="0" x2="186.9230769230769" y2="5" style="visibility: inherit;" fill="rgb(0, 0, 0)" stroke="rgb(204, 204, 204)" stroke-width="1px"></line><line x1="207.6923076923077" y1="0" x2="207.6923076923077" y2="5" style="visibility: inherit;" fill="rgb(0, 0, 0)" stroke="rgb(204, 204, 204)" stroke-width="1px"></line><line x1="228.46153846153845" y1="0" x2="228.46153846153845" y2="5" style="visibility: inherit;" fill="rgb(0, 0, 0)" stroke="rgb(204, 204, 204)" stroke-width="1px"></line><line x1="249.23076923076925" y1="0" x2="249.23076923076925" y2="5" style="visibility: inherit;" fill="rgb(0, 0, 0)" stroke="rgb(204, 204, 204)" stroke-width="1px"></line><line x1="270" y1="0" x2="270" y2="5" style="visibility: inherit;" fill="rgb(0, 0, 0)" stroke="rgb(204, 204, 204)" stroke-width="1px"></line></g><g transform="translate(0, 8)"><text x="0" y="0" dx="0em" dy="0.95em" style="text-anchor: middle; visibility: hidden; font-family: &quot;Helvetica Neue&quot;, sans-serif; font-size: 12px; font-weight: 200;" fill="rgb(50, 49, 63)" stroke="none" stroke-width="1px">-200</text><text x="20.76923076923077" y="0" dx="0em" dy="0.95em" style="text-anchor: middle; visibility: inherit; font-family: &quot;Helvetica Neue&quot;, sans-serif; font-size: 12px; font-weight: 200;" fill="rgb(50, 49, 63)" stroke="none" stroke-width="1px">0</text><text x="41.53846153846154" y="0" dx="0em" dy="0.95em" style="text-anchor: middle; visibility: hidden; font-family: &quot;Helvetica Neue&quot;, sans-serif; font-size: 12px; font-weight: 200;" fill="rgb(50, 49, 63)" stroke="none" stroke-width="1px">200</text><text x="62.307692307692314" y="0" dx="0em" dy="0.95em" style="text-anchor: middle; visibility: inherit; font-family: &quot;Helvetica Neue&quot;, sans-serif; font-size: 12px; font-weight: 200;" fill="rgb(50, 49, 63)" stroke="none" stroke-width="1px">400</text><text x="83.07692307692308" y="0" dx="0em" dy="0.95em" style="text-anchor: middle; visibility: hidden; font-family: &quot;Helvetica Neue&quot;, sans-serif; font-size: 12px; font-weight: 200;" fill="rgb(50, 49, 63)" stroke="none" stroke-width="1px">600</text><text x="103.84615384615385" y="0" dx="0em" dy="0.95em" style="text-anchor: middle; visibility: inherit; font-family: &quot;Helvetica Neue&quot;, sans-serif; font-size: 12px; font-weight: 200;" fill="rgb(50, 49, 63)" stroke="none" stroke-width="1px">800</text><text x="124.61538461538463" y="0" dx="0em" dy="0.95em" style="text-anchor: middle; visibility: hidden; font-family: &quot;Helvetica Neue&quot;, sans-serif; font-size: 12px; font-weight: 200;" fill="rgb(50, 49, 63)" stroke="none" stroke-width="1px">1k</text><text x="145.3846153846154" y="0" dx="0em" dy="0.95em" style="text-anchor: middle; visibility: inherit; font-family: &quot;Helvetica Neue&quot;, sans-serif; font-size: 12px; font-weight: 200;" fill="rgb(50, 49, 63)" stroke="none" stroke-width="1px">1.2k</text><text x="166.15384615384616" y="0" dx="0em" dy="0.95em" style="text-anchor: middle; visibility: hidden; font-family: &quot;Helvetica Neue&quot;, sans-serif; font-size: 12px; font-weight: 200;" fill="rgb(50, 49, 63)" stroke="none" stroke-width="1px">1.4k</text><text x="186.9230769230769" y="0" dx="0em" dy="0.95em" style="text-anchor: middle; visibility: inherit; font-family: &quot;Helvetica Neue&quot;, sans-serif; font-size: 12px; font-weight: 200;" fill="rgb(50, 49, 63)" stroke="none" stroke-width="1px">1.6k</text><text x="207.6923076923077" y="0" dx="0em" dy="0.95em" style="text-anchor: middle; visibility: hidden; font-family: &quot;Helvetica Neue&quot;, sans-serif; font-size: 12px; font-weight: 200;" fill="rgb(50, 49, 63)" stroke="none" stroke-width="1px">1.8k</text><text x="228.46153846153845" y="0" dx="0em" dy="0.95em" style="text-anchor: middle; visibility: inherit; font-family: &quot;Helvetica Neue&quot;, sans-serif; font-size: 12px; font-weight: 200;" fill="rgb(50, 49, 63)" stroke="none" stroke-width="1px">2k</text><text x="249.23076923076925" y="0" dx="0em" dy="0.95em" style="text-anchor: middle; visibility: hidden; font-family: &quot;Helvetica Neue&quot;, sans-serif; font-size: 12px; font-weight: 200;" fill="rgb(50, 49, 63)" stroke="none" stroke-width="1px">2.2k</text><text x="270" y="0" dx="0em" dy="0.95em" style="text-anchor: middle; visibility: hidden; font-family: &quot;Helvetica Neue&quot;, sans-serif; font-size: 12px; font-weight: 200;" fill="rgb(50, 49, 63)" stroke="none" stroke-width="1px">2.4k</text></g><line x1="0" y1="0" x2="270" y2="0" fill="rgb(0, 0, 0)" stroke="rgb(204, 204, 204)" stroke-width="1px"></line></g></g></g></g></svg>