<svg viewBox="0 0 330 200" xmlns="http://www.w3.org/2000/svg"><g><g><g><g><g><line x1="50" y1="170.475845410628" x2="45" y2="170.475845410628" style="visibility: inherit;" fill="rgb(0, 0, 0)" stroke="rgb(204, 204, 204)" stroke-width="1px"></line><line x1="50" y1="151.34299516908214" x2="45" y2="151.34299516908214" style="visibility: inherit;" fill="rgb(0, 0, 0)" stroke="rgb(204, 204, 204)" stroke-width="1px"></line><line x1="50" y1="132.21014492753622" x2="45" y2="132.21014492753622" style="visibility: inherit;" fill="rgb(0, 0, 0)" stroke="rgb(204, 204, 204)" stroke-width="1px"></line><line x1="50" y1="113.07729468599034" x2="45" y2="113.07729468599034" style="visibility: inherit;" fill="rgb(0, 0, 0)" stroke="rgb(204, 204, 204)" stroke-width="1px"></line><line x1="50" y1="93.94444444444444" x2="45" y2="93.94444444444444" style="visibility: inherit;" fill="rgb(0, 0, 0)" stroke="rgb(204, 204, 204)" stroke-width="1px"></line><line x1="50" y1="74.81159420289855" x2="45" y2="74.81159420289855" style="visibility: inherit;" fill="rgb(0, 0, 0)" stroke="rgb(204, 204, 204)" stroke-width="1px"></line><line x1="50" y1="55.678743961352666" x2="45" y2="55.678743961352666" style="visibility: inherit;" fill="rgb(0, 0, 0)" stroke="rgb(204, 204, 204)" stroke-width="1px"></line><line x1="50" y1="36.54589371980677" x2="45" y2="36.54589371980677" style="visibility: inherit;" fill="rgb(0, 0, 0)" stroke="rgb(204, 204, 204)" stroke-width="1px"></line><line x1="50" y1="17.413043478260846" x2="45" y2="17.413043478260846" style="visibility: inherit;" fill="rgb(0, 0, 0)" stroke="rgb(204, 204, 204)" stroke-width="1px"></line></g><g transform="translate(40, 0)"><text x="0" y="170.475845410628" dx="0em" dy="0.3em" style="text-anchor: end; visibility: inherit; font-family: &quot;Helvetica Neue&quot;, sans-serif; font-size: 12px; font-weight: 200;" fill="rgb(50, 49, 63)" stroke="none" stroke-width="1px">-0.5</text><text x="0" y="151.34299516908214" dx="0em" dy="0.3em" style="text-anchor: end; visibility: hidden; font-family: &quot;Helvetica Neue&quot;, sans-serif; font-size: 12px; font-weight: 200;" fill="rgb(50, 49, 63)" stroke="none" stroke-width="1px">-0.4</text><text x="0" y="132.21014492753622" dx="0em" dy="0.3em" style="text-anchor: end; visibility: inherit; font-family: &quot;Helvetica Neue&quot;, sans-serif; font-size: 12px; font-weight: 200;" fill="rgb(50, 49, 63)" stroke="none" stroke-width="1px">-0.3</text><text x="0" y="113.07729468599034" dx="0em" dy="0.3em" style="text-anchor: end; visibility: hidden; font-family: &quot;Helvetica Neue&quot;, sans-serif; font-size: 12px; font-weight: 200;" fill="rgb(50, 49, 63)" stroke="none" stroke-width="1px">-0.2</text><text x="0" y="93.94444444444444" dx="0em" dy="0.3em" style="text-anchor: end; visibility: inherit; font-family: &quot;Helvetica Neue&quot;, sans-serif; font-size: 12px; font-weight: 200;" fill="rgb(50, 49, 63)" stroke="none" stroke-width="1px">-0.1</text><text x="0" y="74.81159420289855" dx="0em" dy="0.3em" style="text-anchor: end; visibility: hidden; font-family: &quot;Helvetica Neue&quot;, sans-serif; font-size: 12px; font-weight: 200;" fill="rgb(50, 49, 63)" stroke="none" stroke-width="1px">0</text><text x="0" y="55.678743961352666" dx="0em" dy="0.3em" style="text-anchor: end; visibility: inherit; font-family: &quot;Helvetica Neue&quot;, sans-serif; font-size: 12px; font-weight: 200;" fill="rgb(50, 49, 63)" stroke="none" stroke-width="1px">0.1</text><text x="0" y="36.54589371980677" dx="0em" dy="0.3em" style="text-anchor: end; visibility: hidden; font-family: &quot;Helvetica Neue&quot;, sans-serif; font-size: 12px; font-weight: 200;" fill="rgb(50, 49, 63)" stroke="none" stroke-width="1px">0.2</text><text x="0" y="17.413043478260846" dx="0em" dy="0.3em" style="text-anchor: end; visibility: inherit; font-family: &quot;Helvetica Neue&quot;, sans-serif; font-size: 12px; font-weight: 200;" fill="rgb(50, 49, 63)" stroke="none" stroke-width="1px">0.3</text></g><line x1="50" y1="0" x2="50" y2="178" fill="rgb(0, 0, 0)" stroke="rgb(204, 204, 204)" stroke-width="1px"></line></g></g><g transform="translate(50, 0)" clip-path="url(#clip_0)"><clipPath id="clip_0"><rect width="280" height="178"></rect></clipPath><g><g><g><line x1="14.52402004126142" y1="0" x2="14.52402004126142" y2="178" fill="rgb(0, 0, 0)" stroke="rgb(60, 60, 60)" stroke-width="1px" opacity="0.25"></line><line x1="37.63041556145004" y1="0" x2="37.63041556145004" y2="178" fill="rgb(0, 0, 0)" stroke="rgb(60, 60, 60)" stroke-width="1px" opacity="0.25"></line><line x1="60.73681108163867" y1="0" x2="60.73681108163867" y2="178" fill="rgb(0, 0, 0)" stroke="rgb(60, 60, 60)" stroke-width="1px" opacity="0.25"></line><line x1="83.84320660182728" y1="0" x2="83.84320660182728" y2="178" fill="rgb(0, 0, 0)" stroke="rgb(60, 60, 60)" stroke-width="1px" opacity="0.25"></line><line x1="106.9496021220159" y1="0" x2="106.9496021220159" y2="178" fill="rgb(0, 0, 0)" stroke="rgb(60, 60, 60)" stroke-width="1px" opacity="0.25"></line><line x1="130.05599764220455" y1="0" x2="130.05599764220455" y2="178" fill="rgb(0, 0, 0)" stroke="rgb(60, 60, 60)" stroke-width="1px" opacity="0.25"></line><line x1="153.16239316239316" y1="0" x2="153.16239316239316" y2="178" fill="rgb(0, 0, 0)" stroke="rgb(60, 60, 60)" stroke-width="1px" opacity="0.25"></line><line x1="176.26878868258177" y1="0" x2="176.26878868258177" y2="178" fill="rgb(0, 0, 0)" stroke="rgb(60, 60, 60)" stroke-width="1px" opacity="0.25"></line><line x1="199.3751842027704" y1="0" x2="199.3751842027704" y2="178" fill="rgb(0, 0, 0)" stroke="rgb(60, 60, 60)" stroke-width="1px" opacity="0.25"></line><line x1="222.481579722959" y1="0" x2="222.481579722959" y2="178" fill="rgb(0, 0, 0)" stroke="rgb(60, 60, 60)" stroke-width="1px" opacity="0.25"></line><line x1="245.58797524314764" y1="0" x2="245.58797524314764" y2="178" fill="rgb(0, 0, 0)" stroke="rgb(60, 60, 60)" stroke-width="1px" opacity="0.25"></line><line x1="268.6943707633362" y1="0" x2="268.6943707633362" y2="178" fill="rgb(0, 0, 0)" stroke="rgb(60, 60, 60)" stroke-width="1px" opacity="0.25"></line></g><g><line x1="0" y1="170.475845410628" x2="280" y2="170.475845410628" fill="rgb(0, 0, 0)" stroke="rgb(60, 60, 60)" stroke-width="1px" opacity="0.25"></line><line x1="0" y1="151.34299516908214" x2="280" y2="151.34299516908214" fill="rgb(0, 0, 0)" stroke="rgb(60, 60, 60)" stroke-width="1px" opacity="0.25"></line><line x1="0" y1="132.21014492753622" x2="280" y2="132.21014492753622" fill="rgb(0, 0, 0)" stroke="rgb(60, 60, 60)" stroke-width="1px" opacity="0.25"></line><line x1="0" y1="113.07729468599034" x2="280" y2="113.07729468599034" fill="rgb(0, 0, 0)" stroke="rgb(60, 60, 60)" stroke-width="1px" opacity="0.25"></line><line x1="0" y1="93.94444444444444" x2="280" y2="93.94444444444444" fill="rgb(0, 0, 0)" stroke="rgb(60, 60, 60)" stroke-width="1px" opacity="0.25"></line><line x1="0" y1="74.81159420289855" x2="280" y2="74.81159420289855" fill="rgb(0, 0, 0)" stroke="rgb(60, 60, 60)" stroke-width="1px" opacity="0.25"></line><line x1="0" y1="55.678743961352666" x2="280" y2="55.678743961352666" fill="rgb(0, 0, 0)" stroke="rgb(60, 60, 60)" stroke-width="1px" opacity="0.25"></line><line x1="0" y1="36.54589371980677" x2="280" y2="36.54589371980677" fill="rgb(0, 0, 0)" stroke="rgb(60, 60, 60)" stroke-width="1px" opacity="0.25"></line><line x1="0" y1="17.413043478260846" x2="280" y2="17.413043478260846" fill="rgb(0, 0, 0)" stroke="rgb(60, 60, 60)" stroke-width="1px" opacity="0.25"></line></g></g></g><g><g><line x1="0" y1="74.81159420289855" x2="280" y2="74.81159420289855" fill="rgb(0, 0, 0)" stroke="rgb(153, 153, 153)" stroke-width="1.5px"></line></g></g><g><g><line x1="14.52402004126142" y1="0" x2="14.52402004126142" y2="178" fill="rgb(0, 0, 0)" stroke="rgb(153, 153, 153)" stroke-width="1.5px"></line></g></g><g><g><g><g><g><path stroke="rgb(255, 112, 67)" stroke-width="2px" d="M14.52402004126142,74.04628015688625L18.452107279693482,74.04628015688625L23.073386383731208,74.04628015688625L27.463601532567047,74.04628015688625L32.08488063660477,74.04628015688625L36.7061597406425,74.04628015688625L40.86531093427645,74.04628015688625L45.0244621279104,74.04628015688625L49.41467727674623,74.04628015688625L53.573828470380185,74.04628015688625L57.732979664014145,74.04628015688625L62.12319481284999,74.04628015688625L66.51340996168582,74.04628015688625L70.90362511052166,74.04628015688625L75.2938402593575,74.04628015688625L79.45299145299145,74.04628015688625L83.84320660182728,74.04628015688625L87.77129384025935,74.04628015688625L91.9304450338933,74.04628015688625L95.85853227232536,74.04628015688625L99.78661951075743,74.04628015688625L103.48364279398761,74.04628015688625L107.64279398762156,74.04628015688625L112.03300913645741,74.04628015688625L116.19216033009135,74.04628015688625L120.35131152372531,74.04628015688625L124.51046271735926,74.04628015688625L128.6696139109932,74.04628015688625L132.82876510462717,74.04628015688625L136.9879162982611,74.04628015688625L141.1470674918951,74.04628015688625L145.53728264073092,74.04628015688625L150.15856174476863,74.04628015688625L154.54877689360447,74.04628015688625L158.70792808723843,74.04628015688625L163.09814323607426,74.04628015688625L167.48835838491007,74.04628015688625L171.64750957854406,74.04628015688625L176.0377247273799,74.04628015688625L180.4279398762157,74.04628015688625L184.3560271146478,74.04628015688625L188.74624226348365,74.04628015688625L193.13645741231946,74.04628015688625L197.5266725611553,74.04628015688625L201.68582375478925,74.04628015688625L206.0760389036251,74.04628015688625L210.46625405246093,74.04628015688625L214.85646920129676,74.04628015688625L218.78455643972882,74.04628015688625L222.94370763336278,74.04628015688625L227.33392278219864,74.04628015688625L231.72413793103445,74.04628015688625L235.65222516946653,74.04628015688625L235.8832891246684,74.04628015688625L235.8832891246684,74.04628015688625L236.11435307987028,74.04628015688625L236.34541703507216,74.04628015688625L236.34541703507216,74.04628015688625L236.5764809902741,74.04628015688625L236.5764809902741,74.04628015688625L236.80754494547597,74.04628015688625L237.03860890067784,74.04628015688625L239.3492484526967,74.04628015688625L243.50839964633064,74.04628015688625L247.6675508399646,74.04628015688625L251.59563807839666,74.04628015688625L255.52372531682875,74.04628015688625L259.91394046566455,74.04628015688625L263.84202770409667,74.04628015688625L267.7701149425287,74.04628015688625L271.92926613616265,74.04628015688625L275.8573533745947,74.04628015688625L280.01650456822864,74.04628015688625" style="fill: none;" fill="none"></path></g></g></g></g><g opacity="0.2"><g><g><g><path stroke="rgb(255, 112, 67)" stroke-width="2px" d="M14.52402004126142,74.04628015688625L18.452107279693482,74.04628015688625L23.073386383731208,74.04628015688625L27.463601532567047,74.04628015688625L32.08488063660477,74.04628015688625L36.7061597406425,74.04628015688625L40.86531093427645,74.04628015688625L45.0244621279104,74.04628015688625L49.41467727674623,74.04628015688625L53.573828470380185,74.04628015688625L57.732979664014145,74.04628015688625L62.12319481284999,74.04628015688625L66.51340996168582,74.04628015688625L70.90362511052166,74.04628015688625L75.2938402593575,74.04628015688625L79.45299145299145,74.04628015688625L83.84320660182728,74.04628015688625L87.77129384025935,74.04628015688625L91.9304450338933,74.04628015688625L95.85853227232536,74.04628015688625L99.78661951075743,74.04628015688625L103.48364279398761,74.04628015688625L107.64279398762156,74.04628015688625L112.03300913645741,74.04628015688625L116.19216033009135,74.04628015688625L120.35131152372531,74.04628015688625L124.51046271735926,74.04628015688625L128.6696139109932,74.04628015688625L132.82876510462717,74.04628015688625L136.9879162982611,74.04628015688625L141.1470674918951,74.04628015688625L145.53728264073092,74.04628015688625L150.15856174476863,74.04628015688625L154.54877689360447,74.04628015688625L158.70792808723843,74.04628015688625L163.09814323607426,74.04628015688625L167.48835838491007,74.04628015688625L171.64750957854406,74.04628015688625L176.0377247273799,74.04628015688625L180.4279398762157,74.04628015688625L184.3560271146478,74.04628015688625L188.74624226348365,74.04628015688625L193.13645741231946,74.04628015688625L197.5266725611553,74.04628015688625L201.68582375478925,74.04628015688625L206.0760389036251,74.04628015688625L210.46625405246093,74.04628015688625L214.85646920129676,74.04628015688625L218.78455643972882,74.04628015688625L222.94370763336278,74.04628015688625L227.33392278219864,74.04628015688625L231.72413793103445,74.04628015688625L235.65222516946653,74.04628015688625L235.8832891246684,74.04628015688625L235.8832891246684,74.04628015688625L236.11435307987028,74.04628015688625L236.34541703507216,74.04628015688625L236.34541703507216,74.04628015688625L236.5764809902741,74.04628015688625L236.5764809902741,74.04628015688625L236.80754494547597,74.04628015688625L237.03860890067784,74.04628015688625L239.3492484526967,74.04628015688625L243.50839964633064,74.04628015688625L247.6675508399646,74.04628015688625L251.59563807839666,74.04628015688625L255.52372531682875,74.04628015688625L259.91394046566455,74.04628015688625L263.84202770409667,74.04628015688625L267.7701149425287,74.04628015688625L271.92926613616265,74.04628015688625L275.8573533745947,74.04628015688625L280.01650456822864,74.04628015688625" style="fill: none;" fill="none"></path></g></g></g></g></g></g><g transform="translate(50, 178)" clip-path="url(#clip_1)"><clipPath id="clip_1"><rect width="280" height="22"></rect></clipPath><g><g><line x1="14.52402004126142" y1="0" x2="14.52402004126142" y2="5" style="visibility: inherit;" fill="rgb(0, 0, 0)" stroke="rgb(204, 204, 204)" stroke-width="1px"></line><line x1="37.63041556145004" y1="0" x2="37.63041556145004" y2="5" style="visibility: inherit;" fill="rgb(0, 0, 0)" stroke="rgb(204, 204, 204)" stroke-width="1px"></line><line x1="60.73681108163867" y1="0" x2="60.73681108163867" y2="5" style="visibility: inherit;" fill="rgb(0, 0, 0)" stroke="rgb(204, 204, 204)" stroke-width="1px"></line><line x1="83.84320660182728" y1="0" x2="83.84320660182728" y2="5" style="visibility: inherit;" fill="rgb(0, 0, 0)" stroke="rgb(204, 204, 204)" stroke-width="1px"></line><line x1="106.9496021220159" y1="0" x2="106.9496021220159" y2="5" style="visibility: inherit;" fill="rgb(0, 0, 0)" stroke="rgb(204, 204, 204)" stroke-width="1px"></line><line x1="130.05599764220455" y1="0" x2="130.05599764220455" y2="5" style="visibility: inherit;" fill="rgb(0, 0, 0)" stroke="rgb(204, 204, 204)" stroke-width="1px"></line><line x1="153.16239316239316" y1="0" x2="153.16239316239316" y2="5" style="visibility: inherit;" fill="rgb(0, 0, 0)" stroke="rgb(204, 204, 204)" stroke-width="1px"></line><line x1="176.26878868258177" y1="0" x2="176.26878868258177" y2="5" style="visibility: inherit;" fill="rgb(0, 0, 0)" stroke="rgb(204, 204, 204)" stroke-width="1px"></line><line x1="199.3751842027704" y1="0" x2="199.3751842027704" y2="5" style="visibility: inherit;" fill="rgb(0, 0, 0)" stroke="rgb(204, 204, 204)" stroke-width="1px"></line><line x1="222.481579722959" y1="0" x2="222.481579722959" y2="5" style="visibility: inherit;" fill="rgb(0, 0, 0)" stroke="rgb(204, 204, 204)" stroke-width="1px"></line><line x1="245.58797524314764" y1="0" x2="245.58797524314764" y2="5" style="visibility: inherit;" fill="rgb(0, 0, 0)" stroke="rgb(204, 204, 204)" stroke-width="1px"></line><line x1="268.6943707633362" y1="0" x2="268.6943707633362" y2="5" style="visibility: inherit;" fill="rgb(0, 0, 0)" stroke="rgb(204, 204, 204)" stroke-width="1px"></line></g><g transform="translate(0, 8)"><text x="14.52402004126142" y="0" dx="0em" dy="0.95em" style="text-anchor: middle; visibility: inherit; font-family: &quot;Helvetica Neue&quot;, sans-serif; font-size: 12px; font-weight: 200;" fill="rgb(50, 49, 63)" stroke="none" stroke-width="1px">0</text><text x="37.63041556145004" y="0" dx="0em" dy="0.95em" style="text-anchor: middle; visibility: hidden; font-family: &quot;Helvetica Neue&quot;, sans-serif; font-size: 12px; font-weight: 200;" fill="rgb(50, 49, 63)" stroke="none" stroke-width="1px">100</text><text x="60.73681108163867" y="0" dx="0em" dy="0.95em" style="text-anchor: middle; visibility: inherit; font-family: &quot;Helvetica Neue&quot;, sans-serif; font-size: 12px; font-weight: 200;" fill="rgb(50, 49, 63)" stroke="none" stroke-width="1px">200</text><text x="83.84320660182728" y="0" dx="0em" dy="0.95em" style="text-anchor: middle; visibility: hidden; font-family: &quot;Helvetica Neue&quot;, sans-serif; font-size: 12px; font-weight: 200;" fill="rgb(50, 49, 63)" stroke="none" stroke-width="1px">300</text><text x="106.9496021220159" y="0" dx="0em" dy="0.95em" style="text-anchor: middle; visibility: inherit; font-family: &quot;Helvetica Neue&quot;, sans-serif; font-size: 12px; font-weight: 200;" fill="rgb(50, 49, 63)" stroke="none" stroke-width="1px">400</text><text x="130.05599764220455" y="0" dx="0em" dy="0.95em" style="text-anchor: middle; visibility: hidden; font-family: &quot;Helvetica Neue&quot;, sans-serif; font-size: 12px; font-weight: 200;" fill="rgb(50, 49, 63)" stroke="none" stroke-width="1px">500</text><text x="153.16239316239316" y="0" dx="0em" dy="0.95em" style="text-anchor: middle; visibility: inherit; font-family: &quot;Helvetica Neue&quot;, sans-serif; font-size: 12px; font-weight: 200;" fill="rgb(50, 49, 63)" stroke="none" stroke-width="1px">600</text><text x="176.26878868258177" y="0" dx="0em" dy="0.95em" style="text-anchor: middle; visibility: hidden; font-family: &quot;Helvetica Neue&quot;, sans-serif; font-size: 12px; font-weight: 200;" fill="rgb(50, 49, 63)" stroke="none" stroke-width="1px">700</text><text x="199.3751842027704" y="0" dx="0em" dy="0.95em" style="text-anchor: middle; visibility: inherit; font-family: &quot;Helvetica Neue&quot;, sans-serif; font-size: 12px; font-weight: 200;" fill="rgb(50, 49, 63)" stroke="none" stroke-width="1px">800</text><text x="222.481579722959" y="0" dx="0em" dy="0.95em" style="text-anchor: middle; visibility: hidden; font-family: &quot;Helvetica Neue&quot;, sans-serif; font-size: 12px; font-weight: 200;" fill="rgb(50, 49, 63)" stroke="none" stroke-width="1px">900</text><text x="245.58797524314764" y="0" dx="0em" dy="0.95em" style="text-anchor: middle; visibility: inherit; font-family: &quot;Helvetica Neue&quot;, sans-serif; font-size: 12px; font-weight: 200;" fill="rgb(50, 49, 63)" stroke="none" stroke-width="1px">1k</text><text x="268.6943707633362" y="0" dx="0em" dy="0.95em" style="text-anchor: middle; visibility: hidden; font-family: &quot;Helvetica Neue&quot;, sans-serif; font-size: 12px; font-weight: 200;" fill="rgb(50, 49, 63)" stroke="none" stroke-width="1px">1.1k</text></g><line x1="0" y1="0" x2="280" y2="0" fill="rgb(0, 0, 0)" stroke="rgb(204, 204, 204)" stroke-width="1px"></line></g></g></g></g></svg>