<svg viewBox="0 0 330 200" xmlns="http://www.w3.org/2000/svg"><g><g><g><g><g><line x1="50" y1="178" x2="45" y2="178" style="visibility: inherit;" fill="rgb(0, 0, 0)" stroke="rgb(204, 204, 204)" stroke-width="1px"></line><line x1="50" y1="163.16666666666666" x2="45" y2="163.16666666666666" style="visibility: inherit;" fill="rgb(0, 0, 0)" stroke="rgb(204, 204, 204)" stroke-width="1px"></line><line x1="50" y1="148.33333333333334" x2="45" y2="148.33333333333334" style="visibility: inherit;" fill="rgb(0, 0, 0)" stroke="rgb(204, 204, 204)" stroke-width="1px"></line><line x1="50" y1="133.5" x2="45" y2="133.5" style="visibility: inherit;" fill="rgb(0, 0, 0)" stroke="rgb(204, 204, 204)" stroke-width="1px"></line><line x1="50" y1="118.66666666666667" x2="45" y2="118.66666666666667" style="visibility: inherit;" fill="rgb(0, 0, 0)" stroke="rgb(204, 204, 204)" stroke-width="1px"></line><line x1="50" y1="103.83333333333333" x2="45" y2="103.83333333333333" style="visibility: inherit;" fill="rgb(0, 0, 0)" stroke="rgb(204, 204, 204)" stroke-width="1px"></line><line x1="50" y1="89" x2="45" y2="89" style="visibility: inherit;" fill="rgb(0, 0, 0)" stroke="rgb(204, 204, 204)" stroke-width="1px"></line><line x1="50" y1="74.16666666666666" x2="45" y2="74.16666666666666" style="visibility: inherit;" fill="rgb(0, 0, 0)" stroke="rgb(204, 204, 204)" stroke-width="1px"></line><line x1="50" y1="59.33333333333334" x2="45" y2="59.33333333333334" style="visibility: inherit;" fill="rgb(0, 0, 0)" stroke="rgb(204, 204, 204)" stroke-width="1px"></line><line x1="50" y1="44.5" x2="45" y2="44.5" style="visibility: inherit;" fill="rgb(0, 0, 0)" stroke="rgb(204, 204, 204)" stroke-width="1px"></line><line x1="50" y1="29.666666666666657" x2="45" y2="29.666666666666657" style="visibility: inherit;" fill="rgb(0, 0, 0)" stroke="rgb(204, 204, 204)" stroke-width="1px"></line><line x1="50" y1="14.833333333333343" x2="45" y2="14.833333333333343" style="visibility: inherit;" fill="rgb(0, 0, 0)" stroke="rgb(204, 204, 204)" stroke-width="1px"></line><line x1="50" y1="0" x2="45" y2="0" style="visibility: inherit;" fill="rgb(0, 0, 0)" stroke="rgb(204, 204, 204)" stroke-width="1px"></line></g><g transform="translate(40, 0)"><text x="0" y="178" dx="0em" dy="0.3em" style="text-anchor: end; visibility: hidden; font-family: &quot;Helvetica Neue&quot;, sans-serif; font-size: 12px; font-weight: 200;" fill="rgb(50, 49, 63)" stroke="none" stroke-width="1px">-0.5</text><text x="0" y="163.16666666666666" dx="0em" dy="0.3em" style="text-anchor: end; visibility: inherit; font-family: &quot;Helvetica Neue&quot;, sans-serif; font-size: 12px; font-weight: 200;" fill="rgb(50, 49, 63)" stroke="none" stroke-width="1px">0</text><text x="0" y="148.33333333333334" dx="0em" dy="0.3em" style="text-anchor: end; visibility: hidden; font-family: &quot;Helvetica Neue&quot;, sans-serif; font-size: 12px; font-weight: 200;" fill="rgb(50, 49, 63)" stroke="none" stroke-width="1px">0.5</text><text x="0" y="133.5" dx="0em" dy="0.3em" style="text-anchor: end; visibility: inherit; font-family: &quot;Helvetica Neue&quot;, sans-serif; font-size: 12px; font-weight: 200;" fill="rgb(50, 49, 63)" stroke="none" stroke-width="1px">1</text><text x="0" y="118.66666666666667" dx="0em" dy="0.3em" style="text-anchor: end; visibility: hidden; font-family: &quot;Helvetica Neue&quot;, sans-serif; font-size: 12px; font-weight: 200;" fill="rgb(50, 49, 63)" stroke="none" stroke-width="1px">1.5</text><text x="0" y="103.83333333333333" dx="0em" dy="0.3em" style="text-anchor: end; visibility: inherit; font-family: &quot;Helvetica Neue&quot;, sans-serif; font-size: 12px; font-weight: 200;" fill="rgb(50, 49, 63)" stroke="none" stroke-width="1px">2</text><text x="0" y="89" dx="0em" dy="0.3em" style="text-anchor: end; visibility: hidden; font-family: &quot;Helvetica Neue&quot;, sans-serif; font-size: 12px; font-weight: 200;" fill="rgb(50, 49, 63)" stroke="none" stroke-width="1px">2.5</text><text x="0" y="74.16666666666666" dx="0em" dy="0.3em" style="text-anchor: end; visibility: inherit; font-family: &quot;Helvetica Neue&quot;, sans-serif; font-size: 12px; font-weight: 200;" fill="rgb(50, 49, 63)" stroke="none" stroke-width="1px">3</text><text x="0" y="59.33333333333334" dx="0em" dy="0.3em" style="text-anchor: end; visibility: hidden; font-family: &quot;Helvetica Neue&quot;, sans-serif; font-size: 12px; font-weight: 200;" fill="rgb(50, 49, 63)" stroke="none" stroke-width="1px">3.5</text><text x="0" y="44.5" dx="0em" dy="0.3em" style="text-anchor: end; visibility: inherit; font-family: &quot;Helvetica Neue&quot;, sans-serif; font-size: 12px; font-weight: 200;" fill="rgb(50, 49, 63)" stroke="none" stroke-width="1px">4</text><text x="0" y="29.666666666666657" dx="0em" dy="0.3em" style="text-anchor: end; visibility: hidden; font-family: &quot;Helvetica Neue&quot;, sans-serif; font-size: 12px; font-weight: 200;" fill="rgb(50, 49, 63)" stroke="none" stroke-width="1px">4.5</text><text x="0" y="14.833333333333343" dx="0em" dy="0.3em" style="text-anchor: end; visibility: inherit; font-family: &quot;Helvetica Neue&quot;, sans-serif; font-size: 12px; font-weight: 200;" fill="rgb(50, 49, 63)" stroke="none" stroke-width="1px">5</text><text x="0" y="0" dx="0em" dy="0.3em" style="text-anchor: end; visibility: hidden; font-family: &quot;Helvetica Neue&quot;, sans-serif; font-size: 12px; font-weight: 200;" fill="rgb(50, 49, 63)" stroke="none" stroke-width="1px">5.5</text></g><line x1="50" y1="0" x2="50" y2="178" fill="rgb(0, 0, 0)" stroke="rgb(204, 204, 204)" stroke-width="1px"></line></g></g><g transform="translate(50, 0)" clip-path="url(#clip_0)"><clipPath id="clip_0"><rect width="280" height="178"></rect></clipPath><g><g><g><line x1="0" y1="0" x2="0" y2="178" fill="rgb(0, 0, 0)" stroke="rgb(60, 60, 60)" stroke-width="1px" opacity="0.25"></line><line x1="21.53846153846154" y1="0" x2="21.53846153846154" y2="178" fill="rgb(0, 0, 0)" stroke="rgb(60, 60, 60)" stroke-width="1px" opacity="0.25"></line><line x1="43.07692307692308" y1="0" x2="43.07692307692308" y2="178" fill="rgb(0, 0, 0)" stroke="rgb(60, 60, 60)" stroke-width="1px" opacity="0.25"></line><line x1="64.61538461538461" y1="0" x2="64.61538461538461" y2="178" fill="rgb(0, 0, 0)" stroke="rgb(60, 60, 60)" stroke-width="1px" opacity="0.25"></line><line x1="86.15384615384616" y1="0" x2="86.15384615384616" y2="178" fill="rgb(0, 0, 0)" stroke="rgb(60, 60, 60)" stroke-width="1px" opacity="0.25"></line><line x1="107.6923076923077" y1="0" x2="107.6923076923077" y2="178" fill="rgb(0, 0, 0)" stroke="rgb(60, 60, 60)" stroke-width="1px" opacity="0.25"></line><line x1="129.23076923076923" y1="0" x2="129.23076923076923" y2="178" fill="rgb(0, 0, 0)" stroke="rgb(60, 60, 60)" stroke-width="1px" opacity="0.25"></line><line x1="150.76923076923077" y1="0" x2="150.76923076923077" y2="178" fill="rgb(0, 0, 0)" stroke="rgb(60, 60, 60)" stroke-width="1px" opacity="0.25"></line><line x1="172.30769230769232" y1="0" x2="172.30769230769232" y2="178" fill="rgb(0, 0, 0)" stroke="rgb(60, 60, 60)" stroke-width="1px" opacity="0.25"></line><line x1="193.84615384615384" y1="0" x2="193.84615384615384" y2="178" fill="rgb(0, 0, 0)" stroke="rgb(60, 60, 60)" stroke-width="1px" opacity="0.25"></line><line x1="215.3846153846154" y1="0" x2="215.3846153846154" y2="178" fill="rgb(0, 0, 0)" stroke="rgb(60, 60, 60)" stroke-width="1px" opacity="0.25"></line><line x1="236.92307692307693" y1="0" x2="236.92307692307693" y2="178" fill="rgb(0, 0, 0)" stroke="rgb(60, 60, 60)" stroke-width="1px" opacity="0.25"></line><line x1="258.46153846153845" y1="0" x2="258.46153846153845" y2="178" fill="rgb(0, 0, 0)" stroke="rgb(60, 60, 60)" stroke-width="1px" opacity="0.25"></line><line x1="280" y1="0" x2="280" y2="178" fill="rgb(0, 0, 0)" stroke="rgb(60, 60, 60)" stroke-width="1px" opacity="0.25"></line></g><g><line x1="0" y1="178" x2="280" y2="178" fill="rgb(0, 0, 0)" stroke="rgb(60, 60, 60)" stroke-width="1px" opacity="0.25"></line><line x1="0" y1="163.16666666666666" x2="280" y2="163.16666666666666" fill="rgb(0, 0, 0)" stroke="rgb(60, 60, 60)" stroke-width="1px" opacity="0.25"></line><line x1="0" y1="148.33333333333334" x2="280" y2="148.33333333333334" fill="rgb(0, 0, 0)" stroke="rgb(60, 60, 60)" stroke-width="1px" opacity="0.25"></line><line x1="0" y1="133.5" x2="280" y2="133.5" fill="rgb(0, 0, 0)" stroke="rgb(60, 60, 60)" stroke-width="1px" opacity="0.25"></line><line x1="0" y1="118.66666666666667" x2="280" y2="118.66666666666667" fill="rgb(0, 0, 0)" stroke="rgb(60, 60, 60)" stroke-width="1px" opacity="0.25"></line><line x1="0" y1="103.83333333333333" x2="280" y2="103.83333333333333" fill="rgb(0, 0, 0)" stroke="rgb(60, 60, 60)" stroke-width="1px" opacity="0.25"></line><line x1="0" y1="89" x2="280" y2="89" fill="rgb(0, 0, 0)" stroke="rgb(60, 60, 60)" stroke-width="1px" opacity="0.25"></line><line x1="0" y1="74.16666666666666" x2="280" y2="74.16666666666666" fill="rgb(0, 0, 0)" stroke="rgb(60, 60, 60)" stroke-width="1px" opacity="0.25"></line><line x1="0" y1="59.33333333333334" x2="280" y2="59.33333333333334" fill="rgb(0, 0, 0)" stroke="rgb(60, 60, 60)" stroke-width="1px" opacity="0.25"></line><line x1="0" y1="44.5" x2="280" y2="44.5" fill="rgb(0, 0, 0)" stroke="rgb(60, 60, 60)" stroke-width="1px" opacity="0.25"></line><line x1="0" y1="29.666666666666657" x2="280" y2="29.666666666666657" fill="rgb(0, 0, 0)" stroke="rgb(60, 60, 60)" stroke-width="1px" opacity="0.25"></line><line x1="0" y1="14.833333333333343" x2="280" y2="14.833333333333343" fill="rgb(0, 0, 0)" stroke="rgb(60, 60, 60)" stroke-width="1px" opacity="0.25"></line><line x1="0" y1="0" x2="280" y2="0" fill="rgb(0, 0, 0)" stroke="rgb(60, 60, 60)" stroke-width="1px" opacity="0.25"></line></g></g></g><g><g><line x1="0" y1="163.16666666666666" x2="280" y2="163.16666666666666" fill="rgb(0, 0, 0)" stroke="rgb(153, 153, 153)" stroke-width="1.5px"></line></g></g><g><g><line x1="21.53846153846154" y1="0" x2="21.53846153846154" y2="178" fill="rgb(0, 0, 0)" stroke="rgb(153, 153, 153)" stroke-width="1.5px"></line></g></g><g><g><g><g><g><path stroke="rgb(255, 112, 67)" stroke-width="2px" d="M29.723076923076924,-7.149481931058688L31.876923076923077,17.17222767604744L33.815384615384616,30.848122930206443L35.753846153846155,46.61252195424311L37.800000000000004,56.905356770880005L39.73846153846154,68.60228022819433L41.676923076923075,77.31695667004307L43.72307692307692,84.63976053263461L45.76923076923077,91.86206310707757L47.81538461538461,92.0640129834888L49.86153846153846,97.88097158590585L51.8,98.77117253550784L53.84615384615385,101.6389225708825L55.676923076923075,105.98120790715254L57.61538461538461,108.83597647348897L59.44615384615385,112.91397515914608L61.27692307692308,114.11355252622249L63,113.66462325598297L64.93846153846154,115.93135976835299L66.98461538461538,112.40931832420878L68.92307692307693,114.30268160855469L70.86153846153846,113.17594698371018L72.8,116.07140995014872L74.73846153846154,116.48938935166437L76.67692307692307,119.55331752699391L78.61538461538461,117.46276360405504L80.55384615384615,121.27519209100467L82.6,122.25543530297011L84.75384615384615,125.49188867925355L86.8,125.32031581810597L88.73846153846154,125.26600990023184L90.78461538461538,125.61946136136527L92.83076923076923,126.21674131743325L94.76923076923077,125.83378586952404L96.81538461538462,127.56800778705765L98.86153846153846,128.37071588364438L100.6923076923077,128.2900711240198L102.73846153846154,130.83190963982136L104.78461538461539,129.19228897945305L106.83076923076923,126.69219818405097L108.76923076923077,127.57419201911469L110.81538461538462,121.44531425576592L112.86153846153846,122.57316710466333L114.90769230769232,124.33403342251523L116.73846153846154,125.0360767575147L118.67692307692309,125.44283512714478L120.72307692307693,123.36240273969727L122.76923076923077,125.39527242397648L124.60000000000001,128.51596808113766L124.70769230769231,129.53909210780608L124.70769230769231,131.7814929325287L124.81538461538462,133.33809632362335L124.92307692307693,130.7492723937636L124.92307692307693,130.28582389987702L125.03076923076924,129.3788497794096L125.03076923076924,128.96503162765302L125.13846153846154,132.32042153753974L125.24615384615385,131.53240341462504L126.32307692307691,131.4035794038038L128.26153846153846,133.10544797659747L130.20000000000002,133.0072960363683L132.03076923076924,131.71502141042436L133.86153846153846,128.5091675875909L135.9076923076923,129.686571790218L137.73846153846154,130.64797278261267L139.56923076923076,126.77425337356016L141.5076923076923,129.45816671549227L143.33846153846153,128.4448045603461L145.27692307692308,129.5382207315389L147.1076923076923,128.6471487976983L148.93846153846155,128.8114148612456L150.87692307692308,128.7932058932921L152.7076923076923,130.1745057501887L154.64615384615385,130.82607056100534L156.4769230769231,131.3214651683179L158.41538461538462,132.39949736264626L160.35384615384615,131.17507090271707L162.18461538461537,130.41097809248402L164.01538461538462,130.7834342553553L165.95384615384617,130.248157537689L167.8923076923077,131.56364172595124L169.72307692307692,132.96239475185672L171.55384615384614,134.42720864601773L173.4923076923077,131.77461444946584L175.32307692307694,132.04246275901053L177.36923076923077,133.39807305006258L179.20000000000002,133.62809095935L181.0307692307692,132.4779164877089L182.75384615384615,133.68431121066797L184.04615384615383,132.51683558196282L185.87692307692308,131.72153093642078L187.81538461538463,131.9893066772551L189.75384615384615,131.69073804277994L191.6923076923077,133.66668002289063L193.5230769230769,131.39215233912677L195.46153846153845,132.06701621224803L197.5076923076923,131.56359949059686L199.33846153846153,131.67398804611503L201.27692307692305,132.87752564267834L203.2153846153846,133.17052178837199L205.15384615384613,134.08374742389776L206.98461538461538,132.59688692196443L208.92307692307693,130.6009380231301L210.75384615384615,129.54379744298348L212.69230769230768,130.22129812211358L214.41538461538462,131.90865492875105L216.35384615384615,134.3072677995871L218.1846153846154,136.39403477703846L220.12307692307695,132.99680152152595L221.95384615384614,131.81707681848064L223.8923076923077,132.95900256262757L225.72307692307692,134.40874992085526L227.44615384615383,136.5886265020118L229.27692307692308,137.56998591367397L231.1076923076923,137.73675402187158L233.04615384615386,136.11282876835668L234.98461538461538,136.39489878398604L236.92307692307693,134.11013755953502L238.75384615384613,134.22204244238713L240.6923076923077,135.3756270351371L242.52307692307693,136.01332604759293L244.46153846153845,134.60790864206356L246.29230769230767,136.56093286770425L248.23076923076923,137.81691284807022L250.06153846153848,136.09575281841796L252,136.5037754846183L253.93846153846155,136.68181400267102" style="fill: none;" fill="none"></path></g></g></g></g><g opacity="0.2"><g><g><g><path stroke="rgb(255, 112, 67)" stroke-width="2px" d="M21.53846153846154,-391.0262540181478L23.369230769230768,1.953331311543792L25.523076923076925,48.36196780204773L27.56923076923077,57.577659368515015L29.723076923076924,64.40922633806863L31.876923076923077,84.70599404970804L33.815384615384616,72.68427546819052L35.753846153846155,98.44403902689616L37.800000000000004,92.65428789456685L39.73846153846154,110.98351800441742L41.676923076923075,109.95217740535736L43.72307692307692,112.78374532858531L45.76923076923077,120.19588522116344L47.81538461538461,92.86933088302612L49.86153846153846,121.38175503412883L51.8,102.40536244710286L53.84615384615385,113.44480288028717L55.676923076923075,123.97818887233734L57.61538461538461,120.73212758700053L59.44615384615385,129.98188312848407L61.27692307692308,119.15195099512736L63,111.7736805677414L64.93846153846154,125.50110177199046L66.98461538461538,97.51224501927693L68.92307692307693,122.32303051153819L70.86153846153846,108.39725526173909L72.8,128.36369578043622L74.73846153846154,118.26527619361877L76.67692307692307,132.57955121994019L78.61538461538461,108.57017449537913L80.55384615384615,137.498969912529L82.6,126.42828412850697L84.75384615384615,139.2731329202652L86.8,124.58957215150197L88.73846153846154,125.03467428684235L90.78461538461538,127.12533660729726L92.83076923076923,128.7617477575938L94.76923076923077,124.20185748736064L96.81538461538462,134.95880776643753L98.86153846153846,131.79186423619586L100.6923076923077,127.94634489218394L102.73846153846154,141.66625094413757L104.78461538461539,122.20332916577657L106.83076923076923,116.03515386581421L108.76923076923077,131.33391737937927L110.81538461538462,95.31893102327983L112.86153846153846,127.38108519713084L114.90769230769232,131.8405093749364L116.73846153846154,128.02887717882794L118.67692307692309,127.17685341835022L120.72307692307693,114.49342656135559L122.76923076923077,134.06153041124344L124.60000000000001,141.81975456078848L124.70769230769231,133.90076980988184L124.70769230769231,141.3410924077034L124.81538461538462,139.9740809003512L124.92307692307693,119.71279001235962L124.92307692307693,128.310081799825L125.03076923076924,125.51229492823283L125.03076923076924,127.20086654027303L125.13846153846154,146.62493232885996L125.24615384615385,128.17296651999158L126.32307692307691,130.85438346862793L128.26153846153846,140.3607699672381L130.20000000000002,132.58885939915973L132.03076923076924,126.20585683981578L133.86153846153846,114.8421190182368L135.9076923076923,134.70602810382843L137.73846153846154,134.74657456080118L139.56923076923076,110.25998389720917L141.5076923076923,140.90010857582092L143.33846153846153,124.12468306223552L145.27692307692308,134.199625313282L147.1076923076923,124.8483692407608L148.93846153846155,129.51170690854389L150.87692307692308,128.71557819843292L152.7076923076923,136.06320448716482L154.64615384615385,133.6037939786911L156.4769230769231,133.43341044584912L158.41538461538462,136.99531855185828L160.35384615384615,125.95514782269795L162.18461538461537,127.15352992216746L164.01538461538462,132.37127363681793L165.95384615384617,127.96618843078613L167.8923076923077,137.17175841331482L169.72307692307692,138.92549965778986L171.55384615384614,140.67194147904715L173.4923076923077,120.46618668238322L175.32307692307694,133.18434238433838L177.36923076923077,139.17725372314453L179.20000000000002,134.60869361956915L181.0307692307692,127.57454113165538L182.75384615384615,138.82736237843832L184.04615384615383,127.53970265388489L185.87692307692308,128.3310216665268L187.81538461538463,133.130876938502L189.75384615384615,130.41789281368256L191.6923076923077,142.0904326637586L193.5230769230769,121.69548169771831L195.46153846153845,134.9440674583117L197.5076923076923,129.41745452086133L199.33846153846153,132.14459188779193L201.27692307692305,138.00839644670486L203.2153846153846,134.41961061954498L205.15384615384613,137.97697250048319L206.98461538461538,126.25816583633423L208.92307692307693,122.0918927192688L210.75384615384615,125.03704023361206L212.69230769230768,133.10959049065906L214.41538461538462,139.10212341944376L216.35384615384615,144.53293319543204L218.1846153846154,145.29025189081827L220.12307692307695,118.51385974884033L221.95384615384614,126.78772413730621L223.8923076923077,137.82721231381097L225.72307692307692,140.58925181627274L227.44615384615383,145.8817845582962L229.27692307692308,141.75367603699365L231.1076923076923,138.44771279891333L233.04615384615386,129.18977900346118L234.98461538461538,137.59740779797235L236.92307692307693,124.36983970801036L238.75384615384613,134.69911062717438L240.6923076923077,140.29354029893875L242.52307692307693,138.73193762699762L244.46153846153845,128.61639233430225L246.29230769230767,144.8869835138321L248.23076923076923,143.17135381698608L250.06153846153848,128.75817584991455L252,138.24324053525925L253.93846153846155,137.44082031647363" style="fill: none;" fill="none"></path></g></g></g></g></g></g><g transform="translate(50, 178)" clip-path="url(#clip_1)"><clipPath id="clip_1"><rect width="280" height="22"></rect></clipPath><g><g><line x1="0" y1="0" x2="0" y2="5" style="visibility: inherit;" fill="rgb(0, 0, 0)" stroke="rgb(204, 204, 204)" stroke-width="1px"></line><line x1="21.53846153846154" y1="0" x2="21.53846153846154" y2="5" style="visibility: inherit;" fill="rgb(0, 0, 0)" stroke="rgb(204, 204, 204)" stroke-width="1px"></line><line x1="43.07692307692308" y1="0" x2="43.07692307692308" y2="5" style="visibility: inherit;" fill="rgb(0, 0, 0)" stroke="rgb(204, 204, 204)" stroke-width="1px"></line><line x1="64.61538461538461" y1="0" x2="64.61538461538461" y2="5" style="visibility: inherit;" fill="rgb(0, 0, 0)" stroke="rgb(204, 204, 204)" stroke-width="1px"></line><line x1="86.15384615384616" y1="0" x2="86.15384615384616" y2="5" style="visibility: inherit;" fill="rgb(0, 0, 0)" stroke="rgb(204, 204, 204)" stroke-width="1px"></line><line x1="107.6923076923077" y1="0" x2="107.6923076923077" y2="5" style="visibility: inherit;" fill="rgb(0, 0, 0)" stroke="rgb(204, 204, 204)" stroke-width="1px"></line><line x1="129.23076923076923" y1="0" x2="129.23076923076923" y2="5" style="visibility: inherit;" fill="rgb(0, 0, 0)" stroke="rgb(204, 204, 204)" stroke-width="1px"></line><line x1="150.76923076923077" y1="0" x2="150.76923076923077" y2="5" style="visibility: inherit;" fill="rgb(0, 0, 0)" stroke="rgb(204, 204, 204)" stroke-width="1px"></line><line x1="172.30769230769232" y1="0" x2="172.30769230769232" y2="5" style="visibility: inherit;" fill="rgb(0, 0, 0)" stroke="rgb(204, 204, 204)" stroke-width="1px"></line><line x1="193.84615384615384" y1="0" x2="193.84615384615384" y2="5" style="visibility: inherit;" fill="rgb(0, 0, 0)" stroke="rgb(204, 204, 204)" stroke-width="1px"></line><line x1="215.3846153846154" y1="0" x2="215.3846153846154" y2="5" style="visibility: inherit;" fill="rgb(0, 0, 0)" stroke="rgb(204, 204, 204)" stroke-width="1px"></line><line x1="236.92307692307693" y1="0" x2="236.92307692307693" y2="5" style="visibility: inherit;" fill="rgb(0, 0, 0)" stroke="rgb(204, 204, 204)" stroke-width="1px"></line><line x1="258.46153846153845" y1="0" x2="258.46153846153845" y2="5" style="visibility: inherit;" fill="rgb(0, 0, 0)" stroke="rgb(204, 204, 204)" stroke-width="1px"></line><line x1="280" y1="0" x2="280" y2="5" style="visibility: inherit;" fill="rgb(0, 0, 0)" stroke="rgb(204, 204, 204)" stroke-width="1px"></line></g><g transform="translate(0, 8)"><text x="0" y="0" dx="0em" dy="0.95em" style="text-anchor: middle; visibility: hidden; font-family: &quot;Helvetica Neue&quot;, sans-serif; font-size: 12px; font-weight: 200;" fill="rgb(50, 49, 63)" stroke="none" stroke-width="1px">-200</text><text x="21.53846153846154" y="0" dx="0em" dy="0.95em" style="text-anchor: middle; visibility: inherit; font-family: &quot;Helvetica Neue&quot;, sans-serif; font-size: 12px; font-weight: 200;" fill="rgb(50, 49, 63)" stroke="none" stroke-width="1px">0</text><text x="43.07692307692308" y="0" dx="0em" dy="0.95em" style="text-anchor: middle; visibility: hidden; font-family: &quot;Helvetica Neue&quot;, sans-serif; font-size: 12px; font-weight: 200;" fill="rgb(50, 49, 63)" stroke="none" stroke-width="1px">200</text><text x="64.61538461538461" y="0" dx="0em" dy="0.95em" style="text-anchor: middle; visibility: inherit; font-family: &quot;Helvetica Neue&quot;, sans-serif; font-size: 12px; font-weight: 200;" fill="rgb(50, 49, 63)" stroke="none" stroke-width="1px">400</text><text x="86.15384615384616" y="0" dx="0em" dy="0.95em" style="text-anchor: middle; visibility: hidden; font-family: &quot;Helvetica Neue&quot;, sans-serif; font-size: 12px; font-weight: 200;" fill="rgb(50, 49, 63)" stroke="none" stroke-width="1px">600</text><text x="107.6923076923077" y="0" dx="0em" dy="0.95em" style="text-anchor: middle; visibility: inherit; font-family: &quot;Helvetica Neue&quot;, sans-serif; font-size: 12px; font-weight: 200;" fill="rgb(50, 49, 63)" stroke="none" stroke-width="1px">800</text><text x="129.23076923076923" y="0" dx="0em" dy="0.95em" style="text-anchor: middle; visibility: hidden; font-family: &quot;Helvetica Neue&quot;, sans-serif; font-size: 12px; font-weight: 200;" fill="rgb(50, 49, 63)" stroke="none" stroke-width="1px">1k</text><text x="150.76923076923077" y="0" dx="0em" dy="0.95em" style="text-anchor: middle; visibility: inherit; font-family: &quot;Helvetica Neue&quot;, sans-serif; font-size: 12px; font-weight: 200;" fill="rgb(50, 49, 63)" stroke="none" stroke-width="1px">1.2k</text><text x="172.30769230769232" y="0" dx="0em" dy="0.95em" style="text-anchor: middle; visibility: hidden; font-family: &quot;Helvetica Neue&quot;, sans-serif; font-size: 12px; font-weight: 200;" fill="rgb(50, 49, 63)" stroke="none" stroke-width="1px">1.4k</text><text x="193.84615384615384" y="0" dx="0em" dy="0.95em" style="text-anchor: middle; visibility: inherit; font-family: &quot;Helvetica Neue&quot;, sans-serif; font-size: 12px; font-weight: 200;" fill="rgb(50, 49, 63)" stroke="none" stroke-width="1px">1.6k</text><text x="215.3846153846154" y="0" dx="0em" dy="0.95em" style="text-anchor: middle; visibility: hidden; font-family: &quot;Helvetica Neue&quot;, sans-serif; font-size: 12px; font-weight: 200;" fill="rgb(50, 49, 63)" stroke="none" stroke-width="1px">1.8k</text><text x="236.92307692307693" y="0" dx="0em" dy="0.95em" style="text-anchor: middle; visibility: inherit; font-family: &quot;Helvetica Neue&quot;, sans-serif; font-size: 12px; font-weight: 200;" fill="rgb(50, 49, 63)" stroke="none" stroke-width="1px">2k</text><text x="258.46153846153845" y="0" dx="0em" dy="0.95em" style="text-anchor: middle; visibility: hidden; font-family: &quot;Helvetica Neue&quot;, sans-serif; font-size: 12px; font-weight: 200;" fill="rgb(50, 49, 63)" stroke="none" stroke-width="1px">2.2k</text><text x="280" y="0" dx="0em" dy="0.95em" style="text-anchor: middle; visibility: hidden; font-family: &quot;Helvetica Neue&quot;, sans-serif; font-size: 12px; font-weight: 200;" fill="rgb(50, 49, 63)" stroke="none" stroke-width="1px">2.4k</text></g><line x1="0" y1="0" x2="280" y2="0" fill="rgb(0, 0, 0)" stroke="rgb(204, 204, 204)" stroke-width="1px"></line></g></g></g></g></svg>