<svg viewBox="0 0 330 200" xmlns="http://www.w3.org/2000/svg"><g><g><g><g><g><line x1="60" y1="178" x2="55" y2="178" style="visibility: inherit;" fill="rgb(0, 0, 0)" stroke="rgb(204, 204, 204)" stroke-width="1px"></line><line x1="60" y1="160.20000000000198" x2="55" y2="160.20000000000198" style="visibility: inherit;" fill="rgb(0, 0, 0)" stroke="rgb(204, 204, 204)" stroke-width="1px"></line><line x1="60" y1="142.399999999999" x2="55" y2="142.399999999999" style="visibility: inherit;" fill="rgb(0, 0, 0)" stroke="rgb(204, 204, 204)" stroke-width="1px"></line><line x1="60" y1="124.60000000000099" x2="55" y2="124.60000000000099" style="visibility: inherit;" fill="rgb(0, 0, 0)" stroke="rgb(204, 204, 204)" stroke-width="1px"></line><line x1="60" y1="106.80000000000297" x2="55" y2="106.80000000000297" style="visibility: inherit;" fill="rgb(0, 0, 0)" stroke="rgb(204, 204, 204)" stroke-width="1px"></line><line x1="60" y1="89" x2="55" y2="89" style="visibility: inherit;" fill="rgb(0, 0, 0)" stroke="rgb(204, 204, 204)" stroke-width="1px"></line><line x1="60" y1="71.20000000000198" x2="55" y2="71.20000000000198" style="visibility: inherit;" fill="rgb(0, 0, 0)" stroke="rgb(204, 204, 204)" stroke-width="1px"></line><line x1="60" y1="53.399999999999025" x2="55" y2="53.399999999999025" style="visibility: inherit;" fill="rgb(0, 0, 0)" stroke="rgb(204, 204, 204)" stroke-width="1px"></line><line x1="60" y1="35.60000000000099" x2="55" y2="35.60000000000099" style="visibility: inherit;" fill="rgb(0, 0, 0)" stroke="rgb(204, 204, 204)" stroke-width="1px"></line><line x1="60" y1="17.800000000002967" x2="55" y2="17.800000000002967" style="visibility: inherit;" fill="rgb(0, 0, 0)" stroke="rgb(204, 204, 204)" stroke-width="1px"></line><line x1="60" y1="0" x2="55" y2="0" style="visibility: inherit;" fill="rgb(0, 0, 0)" stroke="rgb(204, 204, 204)" stroke-width="1px"></line></g><g transform="translate(50, 0)"><text x="0" y="178" dx="0em" dy="0.3em" style="text-anchor: end; visibility: hidden; font-family: &quot;Helvetica Neue&quot;, sans-serif; font-size: 12px; font-weight: 200;" fill="rgb(50, 49, 63)" stroke="none" stroke-width="1px">0.333</text><text x="0" y="160.20000000000198" dx="0em" dy="0.3em" style="text-anchor: end; visibility: inherit; font-family: &quot;Helvetica Neue&quot;, sans-serif; font-size: 12px; font-weight: 200;" fill="rgb(50, 49, 63)" stroke="none" stroke-width="1px">0.333</text><text x="0" y="142.399999999999" dx="0em" dy="0.3em" style="text-anchor: end; visibility: hidden; font-family: &quot;Helvetica Neue&quot;, sans-serif; font-size: 12px; font-weight: 200;" fill="rgb(50, 49, 63)" stroke="none" stroke-width="1px">0.333</text><text x="0" y="124.60000000000099" dx="0em" dy="0.3em" style="text-anchor: end; visibility: inherit; font-family: &quot;Helvetica Neue&quot;, sans-serif; font-size: 12px; font-weight: 200;" fill="rgb(50, 49, 63)" stroke="none" stroke-width="1px">0.333</text><text x="0" y="106.80000000000297" dx="0em" dy="0.3em" style="text-anchor: end; visibility: hidden; font-family: &quot;Helvetica Neue&quot;, sans-serif; font-size: 12px; font-weight: 200;" fill="rgb(50, 49, 63)" stroke="none" stroke-width="1px">0.333</text><text x="0" y="89" dx="0em" dy="0.3em" style="text-anchor: end; visibility: inherit; font-family: &quot;Helvetica Neue&quot;, sans-serif; font-size: 12px; font-weight: 200;" fill="rgb(50, 49, 63)" stroke="none" stroke-width="1px">0.334</text><text x="0" y="71.20000000000198" dx="0em" dy="0.3em" style="text-anchor: end; visibility: hidden; font-family: &quot;Helvetica Neue&quot;, sans-serif; font-size: 12px; font-weight: 200;" fill="rgb(50, 49, 63)" stroke="none" stroke-width="1px">0.334</text><text x="0" y="53.399999999999025" dx="0em" dy="0.3em" style="text-anchor: end; visibility: inherit; font-family: &quot;Helvetica Neue&quot;, sans-serif; font-size: 12px; font-weight: 200;" fill="rgb(50, 49, 63)" stroke="none" stroke-width="1px">0.334</text><text x="0" y="35.60000000000099" dx="0em" dy="0.3em" style="text-anchor: end; visibility: hidden; font-family: &quot;Helvetica Neue&quot;, sans-serif; font-size: 12px; font-weight: 200;" fill="rgb(50, 49, 63)" stroke="none" stroke-width="1px">0.334</text><text x="0" y="17.800000000002967" dx="0em" dy="0.3em" style="text-anchor: end; visibility: inherit; font-family: &quot;Helvetica Neue&quot;, sans-serif; font-size: 12px; font-weight: 200;" fill="rgb(50, 49, 63)" stroke="none" stroke-width="1px">0.334</text><text x="0" y="0" dx="0em" dy="0.3em" style="text-anchor: end; visibility: hidden; font-family: &quot;Helvetica Neue&quot;, sans-serif; font-size: 12px; font-weight: 200;" fill="rgb(50, 49, 63)" stroke="none" stroke-width="1px">0.335</text></g><line x1="60" y1="0" x2="60" y2="178" fill="rgb(0, 0, 0)" stroke="rgb(204, 204, 204)" stroke-width="1px"></line></g></g><g transform="translate(60, 0)" clip-path="url(#clip_0)"><clipPath id="clip_0"><rect width="270" height="178"></rect></clipPath><g><g><g><line x1="0" y1="0" x2="0" y2="178" fill="rgb(0, 0, 0)" stroke="rgb(60, 60, 60)" stroke-width="1px" opacity="0.25"></line><line x1="20.76923076923077" y1="0" x2="20.76923076923077" y2="178" fill="rgb(0, 0, 0)" stroke="rgb(60, 60, 60)" stroke-width="1px" opacity="0.25"></line><line x1="41.53846153846154" y1="0" x2="41.53846153846154" y2="178" fill="rgb(0, 0, 0)" stroke="rgb(60, 60, 60)" stroke-width="1px" opacity="0.25"></line><line x1="62.307692307692314" y1="0" x2="62.307692307692314" y2="178" fill="rgb(0, 0, 0)" stroke="rgb(60, 60, 60)" stroke-width="1px" opacity="0.25"></line><line x1="83.07692307692308" y1="0" x2="83.07692307692308" y2="178" fill="rgb(0, 0, 0)" stroke="rgb(60, 60, 60)" stroke-width="1px" opacity="0.25"></line><line x1="103.84615384615385" y1="0" x2="103.84615384615385" y2="178" fill="rgb(0, 0, 0)" stroke="rgb(60, 60, 60)" stroke-width="1px" opacity="0.25"></line><line x1="124.61538461538463" y1="0" x2="124.61538461538463" y2="178" fill="rgb(0, 0, 0)" stroke="rgb(60, 60, 60)" stroke-width="1px" opacity="0.25"></line><line x1="145.3846153846154" y1="0" x2="145.3846153846154" y2="178" fill="rgb(0, 0, 0)" stroke="rgb(60, 60, 60)" stroke-width="1px" opacity="0.25"></line><line x1="166.15384615384616" y1="0" x2="166.15384615384616" y2="178" fill="rgb(0, 0, 0)" stroke="rgb(60, 60, 60)" stroke-width="1px" opacity="0.25"></line><line x1="186.9230769230769" y1="0" x2="186.9230769230769" y2="178" fill="rgb(0, 0, 0)" stroke="rgb(60, 60, 60)" stroke-width="1px" opacity="0.25"></line><line x1="207.6923076923077" y1="0" x2="207.6923076923077" y2="178" fill="rgb(0, 0, 0)" stroke="rgb(60, 60, 60)" stroke-width="1px" opacity="0.25"></line><line x1="228.46153846153845" y1="0" x2="228.46153846153845" y2="178" fill="rgb(0, 0, 0)" stroke="rgb(60, 60, 60)" stroke-width="1px" opacity="0.25"></line><line x1="249.23076923076925" y1="0" x2="249.23076923076925" y2="178" fill="rgb(0, 0, 0)" stroke="rgb(60, 60, 60)" stroke-width="1px" opacity="0.25"></line><line x1="270" y1="0" x2="270" y2="178" fill="rgb(0, 0, 0)" stroke="rgb(60, 60, 60)" stroke-width="1px" opacity="0.25"></line></g><g><line x1="0" y1="178" x2="270" y2="178" fill="rgb(0, 0, 0)" stroke="rgb(60, 60, 60)" stroke-width="1px" opacity="0.25"></line><line x1="0" y1="160.20000000000198" x2="270" y2="160.20000000000198" fill="rgb(0, 0, 0)" stroke="rgb(60, 60, 60)" stroke-width="1px" opacity="0.25"></line><line x1="0" y1="142.399999999999" x2="270" y2="142.399999999999" fill="rgb(0, 0, 0)" stroke="rgb(60, 60, 60)" stroke-width="1px" opacity="0.25"></line><line x1="0" y1="124.60000000000099" x2="270" y2="124.60000000000099" fill="rgb(0, 0, 0)" stroke="rgb(60, 60, 60)" stroke-width="1px" opacity="0.25"></line><line x1="0" y1="106.80000000000297" x2="270" y2="106.80000000000297" fill="rgb(0, 0, 0)" stroke="rgb(60, 60, 60)" stroke-width="1px" opacity="0.25"></line><line x1="0" y1="89" x2="270" y2="89" fill="rgb(0, 0, 0)" stroke="rgb(60, 60, 60)" stroke-width="1px" opacity="0.25"></line><line x1="0" y1="71.20000000000198" x2="270" y2="71.20000000000198" fill="rgb(0, 0, 0)" stroke="rgb(60, 60, 60)" stroke-width="1px" opacity="0.25"></line><line x1="0" y1="53.399999999999025" x2="270" y2="53.399999999999025" fill="rgb(0, 0, 0)" stroke="rgb(60, 60, 60)" stroke-width="1px" opacity="0.25"></line><line x1="0" y1="35.60000000000099" x2="270" y2="35.60000000000099" fill="rgb(0, 0, 0)" stroke="rgb(60, 60, 60)" stroke-width="1px" opacity="0.25"></line><line x1="0" y1="17.800000000002967" x2="270" y2="17.800000000002967" fill="rgb(0, 0, 0)" stroke="rgb(60, 60, 60)" stroke-width="1px" opacity="0.25"></line><line x1="0" y1="0" x2="270" y2="0" fill="rgb(0, 0, 0)" stroke="rgb(60, 60, 60)" stroke-width="1px" opacity="0.25"></line></g></g></g><g><g><line x1="0" y1="29779.399999999976" x2="270" y2="29779.399999999976" fill="rgb(0, 0, 0)" stroke="rgb(153, 153, 153)" stroke-width="1.5px"></line></g></g><g><g><line x1="20.76923076923077" y1="0" x2="20.76923076923077" y2="178" fill="rgb(0, 0, 0)" stroke="rgb(153, 153, 153)" stroke-width="1.5px"></line></g></g><g><g><g><g><g><path stroke="rgb(255, 112, 67)" stroke-width="2px" d="M20.76923076923077,161.01420822143615L22.534615384615385,157.26273798230795L24.611538461538462,151.10669859543984L26.584615384615386,146.28977318741101L28.661538461538463,142.33233378903248L30.73846153846154,138.894079500958L32.607692307692304,135.84879631271923L34.47692307692308,132.91657375577063L36.45,129.99700819280545L38.31923076923077,127.04642566374213L40.18846153846154,124.09733067144657L42.161538461538456,121.21688168125044L44.13461538461539,118.36638817773849L46.107692307692304,115.45373819238853L48.08076923076923,112.55928941409623L49.95,109.70790240403068L51.92307692307693,107.0057718259454L53.68846153846154,104.42432689568307L55.55769230769231,101.87684964556107L57.323076923076925,99.42500887381813L59.088461538461544,96.9696214351224L60.75,94.57571011647228L62.61923076923077,92.2063304727945L64.59230769230768,89.90608574558598L66.46153846153847,87.68980323733287L68.33076923076923,85.543297912039L70.2,83.45071964839782L72.06923076923077,81.38826143586533L73.93846153846154,79.38121514027632L75.8076923076923,77.49350240075131L77.67692307692307,75.6592753960143L79.64999999999999,73.83137531066846L81.72692307692309,71.94292249771927L83.7,69.97107938942482L85.56923076923077,67.85652274468877L87.54230769230769,65.78569217249202L89.51538461538462,63.78248654597145L91.38461538461539,61.911639595418066L93.3576923076923,60.11770430382373L95.33076923076922,58.40720471442056L97.09615384615384,56.73553019050587L99.06923076923077,55.0761336865981L101.0423076923077,53.494712890336814L103.01538461538462,51.87463005204236L104.88461538461539,50.25951396003383L106.8576923076923,48.679662508776545L108.83076923076922,47.17977602392733L110.80384615384615,45.70988104915554L112.56923076923076,44.30509772061015L114.43846153846154,42.93390065228965L116.41153846153847,41.48155317085579L118.38461538461539,40.0738420380234L120.15,38.556135132438556L120.25384615384615,37.30916120041229L120.25384615384615,36.29609344709584L120.3576923076923,35.455353351459166L120.46153846153847,34.77385208265349L120.46153846153847,34.204198887717496L120.56538461538462,33.727158026331864L120.56538461538462,33.338235788158954L120.66923076923077,33.00859440805496L120.77307692307691,32.74057727001261L121.81153846153846,32.359697189140206L123.68076923076924,31.707989169408023L125.55000000000001,30.950301210386215L127.31538461538462,30.166236543821213L129.08076923076922,29.353247361536035L131.05384615384614,28.450810865035407L132.81923076923076,27.43006191696506L134.58461538461538,26.337165895311415L136.45384615384617,25.203973208871957L138.21923076923076,24.122805058736787L140.08846153846153,23.12056565133389L141.85384615384615,22.153532937379396L143.61923076923077,21.155046710862848L145.48846153846154,20.117980245045658L147.25384615384615,19.08393288030345L149.12307692307692,18.09567131162879L150.88846153846154,17.09057280141917L152.7576923076923,16.056717647623003L154.62692307692308,15.03434266420092L156.3923076923077,13.998084581541718L158.15769230769232,12.966707820402746L160.02692307692308,11.990688571222677L161.89615384615385,11.086722598286741L163.66153846153847,10.254222666988568L165.42692307692306,9.47205086920394L167.29615384615383,8.681257045811407L169.06153846153848,7.746906959835769L171.03461538461536,6.734073097050583L172.8,5.714110589736379L174.5653846153846,4.752376453889923L176.22692307692307,3.8519181022857936L177.47307692307692,3.04090576024646L179.23846153846154,2.30486447209276L181.1076923076923,1.596288557452965L182.97692307692307,0.8535163807945594L184.84615384615384,0.07145421461757451L186.61153846153846,-0.7797256812065427" style="fill: none;" fill="none"></path></g></g></g></g><g opacity="0.2"><g><g><g><path stroke="rgb(255, 112, 67)" stroke-width="2px" d="M20.76923076923077,161.01420822143615L22.534615384615385,154.22404708862368L24.611538461538462,142.08132925033632L26.584615384615386,136.66776719093386L28.661538461538463,132.7236384391791L30.73846153846154,129.34712471962038L32.607692307692304,126.53292121887273L34.47692307692308,123.27576580047673L36.45,119.85681357383794L38.31923076923077,116.3556367397315L40.18846153846154,113.05339040756292L42.161538461538456,110.14635267257756L44.13461538461539,107.18361439704961L46.107692307692304,103.83892955780097L48.08076923076923,100.865581655503L49.95,98.06729259491034L51.92307692307693,95.88170948028632L53.68846153846154,93.72530283927985L55.55769230769231,91.26121702194281L57.323076923076925,89.16316332817145L59.088461538461544,86.65663900375434L60.75,84.49227514267035L62.61923076923077,82.20324816703864L64.59230769230768,80.1768094539649L66.46153846153847,78.30155792236395L68.33076923076923,76.43956842422556L70.2,74.56696929931711L72.06923076923077,72.62540760040353L73.93846153846154,70.84829511642526L75.8076923076923,69.46373882293771L77.67692307692307,67.85372796058725L79.64999999999999,66.05009140968393L81.72692307692309,63.901641988754974L83.7,61.57282891273569L85.56923076923077,58.84880723953317L87.54230769230769,56.9629460811622L89.51538461538462,55.246838951111556L91.38461538461539,53.93920245170665L93.3576923076923,52.47242155075145L95.33076923076922,51.11704173088145L97.09615384615384,49.61047472953868L99.06923076923077,48.00311627388072L101.0423076923077,46.75383272171092L103.01538461538462,44.968763017655135L104.88461538461539,43.3746665954597L106.8576923076923,41.94501938819957L108.83076923076922,40.785917663574935L110.80384615384615,39.443799877167464L112.56923076923076,38.31652703285289L114.43846153846154,37.08846273422313L116.41153846153847,35.29013099670482L118.38461538461539,34.07267632484508L120.15,32.08602371215895L120.25384615384615,31.993189477921277L120.25384615384615,31.977275037766248L120.3576923076923,31.871178770066052L120.46153846153847,31.868526363373547L120.46153846153847,31.775692129135876L120.56538461538462,31.693467521668225L120.56538461538462,31.6802054882057L120.66923076923077,31.60328569412306L120.77307692307691,31.59798088073805L121.81153846153846,30.735948705673962L123.68076923076924,28.929659748078137L125.55000000000001,27.72016229629591L127.31538461538462,26.82364883422926L129.08076923076922,25.887349271775037L131.05384615384614,24.603584432602673L132.81923076923076,23.078450584412366L134.58461538461538,21.677979850769788L136.45384615384617,20.372995758057385L138.21923076923076,19.513615989685803L140.08846153846153,18.847861909867078L141.85384615384615,18.030920648575574L143.61923076923077,16.89834299087599L145.48846153846154,15.696802759171277L147.25384615384615,14.675626182556897L149.12307692307692,13.882556581497937L150.88846153846154,12.805679464340955L152.7576923076923,11.649230146408826L154.62692307692308,10.675796890259562L156.3923076923077,9.580352926255046L158.15769230769232,8.569785976410685L160.02692307692308,7.829764509201823L161.89615384615385,7.232973003388224L163.66153846153847,6.705144071579753L165.42692307692306,6.137529039383708L167.29615384615383,5.309978151322184L169.06153846153848,3.7636250495918375L171.03461538461536,2.416202449799357L172.8,1.3658493995674235L174.5653846153846,0.65235199928361L176.22692307692307,0.013121986389933227L177.47307692307692,-0.4165678977958578" style="fill: none;" fill="none"></path></g></g></g></g></g></g><g transform="translate(60, 178)" clip-path="url(#clip_1)"><clipPath id="clip_1"><rect width="270" height="22"></rect></clipPath><g><g><line x1="0" y1="0" x2="0" y2="5" style="visibility: inherit;" fill="rgb(0, 0, 0)" stroke="rgb(204, 204, 204)" stroke-width="1px"></line><line x1="20.76923076923077" y1="0" x2="20.76923076923077" y2="5" style="visibility: inherit;" fill="rgb(0, 0, 0)" stroke="rgb(204, 204, 204)" stroke-width="1px"></line><line x1="41.53846153846154" y1="0" x2="41.53846153846154" y2="5" style="visibility: inherit;" fill="rgb(0, 0, 0)" stroke="rgb(204, 204, 204)" stroke-width="1px"></line><line x1="62.307692307692314" y1="0" x2="62.307692307692314" y2="5" style="visibility: inherit;" fill="rgb(0, 0, 0)" stroke="rgb(204, 204, 204)" stroke-width="1px"></line><line x1="83.07692307692308" y1="0" x2="83.07692307692308" y2="5" style="visibility: inherit;" fill="rgb(0, 0, 0)" stroke="rgb(204, 204, 204)" stroke-width="1px"></line><line x1="103.84615384615385" y1="0" x2="103.84615384615385" y2="5" style="visibility: inherit;" fill="rgb(0, 0, 0)" stroke="rgb(204, 204, 204)" stroke-width="1px"></line><line x1="124.61538461538463" y1="0" x2="124.61538461538463" y2="5" style="visibility: inherit;" fill="rgb(0, 0, 0)" stroke="rgb(204, 204, 204)" stroke-width="1px"></line><line x1="145.3846153846154" y1="0" x2="145.3846153846154" y2="5" style="visibility: inherit;" fill="rgb(0, 0, 0)" stroke="rgb(204, 204, 204)" stroke-width="1px"></line><line x1="166.15384615384616" y1="0" x2="166.15384615384616" y2="5" style="visibility: inherit;" fill="rgb(0, 0, 0)" stroke="rgb(204, 204, 204)" stroke-width="1px"></line><line x1="186.9230769230769" y1="0" x2="186.9230769230769" y2="5" style="visibility: inherit;" fill="rgb(0, 0, 0)" stroke="rgb(204, 204, 204)" stroke-width="1px"></line><line x1="207.6923076923077" y1="0" x2="207.6923076923077" y2="5" style="visibility: inherit;" fill="rgb(0, 0, 0)" stroke="rgb(204, 204, 204)" stroke-width="1px"></line><line x1="228.46153846153845" y1="0" x2="228.46153846153845" y2="5" style="visibility: inherit;" fill="rgb(0, 0, 0)" stroke="rgb(204, 204, 204)" stroke-width="1px"></line><line x1="249.23076923076925" y1="0" x2="249.23076923076925" y2="5" style="visibility: inherit;" fill="rgb(0, 0, 0)" stroke="rgb(204, 204, 204)" stroke-width="1px"></line><line x1="270" y1="0" x2="270" y2="5" style="visibility: inherit;" fill="rgb(0, 0, 0)" stroke="rgb(204, 204, 204)" stroke-width="1px"></line></g><g transform="translate(0, 8)"><text x="0" y="0" dx="0em" dy="0.95em" style="text-anchor: middle; visibility: hidden; font-family: &quot;Helvetica Neue&quot;, sans-serif; font-size: 12px; font-weight: 200;" fill="rgb(50, 49, 63)" stroke="none" stroke-width="1px">-200</text><text x="20.76923076923077" y="0" dx="0em" dy="0.95em" style="text-anchor: middle; visibility: inherit; font-family: &quot;Helvetica Neue&quot;, sans-serif; font-size: 12px; font-weight: 200;" fill="rgb(50, 49, 63)" stroke="none" stroke-width="1px">0</text><text x="41.53846153846154" y="0" dx="0em" dy="0.95em" style="text-anchor: middle; visibility: hidden; font-family: &quot;Helvetica Neue&quot;, sans-serif; font-size: 12px; font-weight: 200;" fill="rgb(50, 49, 63)" stroke="none" stroke-width="1px">200</text><text x="62.307692307692314" y="0" dx="0em" dy="0.95em" style="text-anchor: middle; visibility: inherit; font-family: &quot;Helvetica Neue&quot;, sans-serif; font-size: 12px; font-weight: 200;" fill="rgb(50, 49, 63)" stroke="none" stroke-width="1px">400</text><text x="83.07692307692308" y="0" dx="0em" dy="0.95em" style="text-anchor: middle; visibility: hidden; font-family: &quot;Helvetica Neue&quot;, sans-serif; font-size: 12px; font-weight: 200;" fill="rgb(50, 49, 63)" stroke="none" stroke-width="1px">600</text><text x="103.84615384615385" y="0" dx="0em" dy="0.95em" style="text-anchor: middle; visibility: inherit; font-family: &quot;Helvetica Neue&quot;, sans-serif; font-size: 12px; font-weight: 200;" fill="rgb(50, 49, 63)" stroke="none" stroke-width="1px">800</text><text x="124.61538461538463" y="0" dx="0em" dy="0.95em" style="text-anchor: middle; visibility: hidden; font-family: &quot;Helvetica Neue&quot;, sans-serif; font-size: 12px; font-weight: 200;" fill="rgb(50, 49, 63)" stroke="none" stroke-width="1px">1k</text><text x="145.3846153846154" y="0" dx="0em" dy="0.95em" style="text-anchor: middle; visibility: inherit; font-family: &quot;Helvetica Neue&quot;, sans-serif; font-size: 12px; font-weight: 200;" fill="rgb(50, 49, 63)" stroke="none" stroke-width="1px">1.2k</text><text x="166.15384615384616" y="0" dx="0em" dy="0.95em" style="text-anchor: middle; visibility: hidden; font-family: &quot;Helvetica Neue&quot;, sans-serif; font-size: 12px; font-weight: 200;" fill="rgb(50, 49, 63)" stroke="none" stroke-width="1px">1.4k</text><text x="186.9230769230769" y="0" dx="0em" dy="0.95em" style="text-anchor: middle; visibility: inherit; font-family: &quot;Helvetica Neue&quot;, sans-serif; font-size: 12px; font-weight: 200;" fill="rgb(50, 49, 63)" stroke="none" stroke-width="1px">1.6k</text><text x="207.6923076923077" y="0" dx="0em" dy="0.95em" style="text-anchor: middle; visibility: hidden; font-family: &quot;Helvetica Neue&quot;, sans-serif; font-size: 12px; font-weight: 200;" fill="rgb(50, 49, 63)" stroke="none" stroke-width="1px">1.8k</text><text x="228.46153846153845" y="0" dx="0em" dy="0.95em" style="text-anchor: middle; visibility: inherit; font-family: &quot;Helvetica Neue&quot;, sans-serif; font-size: 12px; font-weight: 200;" fill="rgb(50, 49, 63)" stroke="none" stroke-width="1px">2k</text><text x="249.23076923076925" y="0" dx="0em" dy="0.95em" style="text-anchor: middle; visibility: hidden; font-family: &quot;Helvetica Neue&quot;, sans-serif; font-size: 12px; font-weight: 200;" fill="rgb(50, 49, 63)" stroke="none" stroke-width="1px">2.2k</text><text x="270" y="0" dx="0em" dy="0.95em" style="text-anchor: middle; visibility: hidden; font-family: &quot;Helvetica Neue&quot;, sans-serif; font-size: 12px; font-weight: 200;" fill="rgb(50, 49, 63)" stroke="none" stroke-width="1px">2.4k</text></g><line x1="0" y1="0" x2="270" y2="0" fill="rgb(0, 0, 0)" stroke="rgb(204, 204, 204)" stroke-width="1px"></line></g></g></g></g></svg>