<svg viewBox="0 0 330 200" xmlns="http://www.w3.org/2000/svg"><g><g><g><g><g><line x1="40" y1="178" x2="35" y2="178" style="visibility: inherit;" fill="rgb(0, 0, 0)" stroke="rgb(204, 204, 204)" stroke-width="1px"></line><line x1="40" y1="158.22222222222229" x2="35" y2="158.22222222222229" style="visibility: inherit;" fill="rgb(0, 0, 0)" stroke="rgb(204, 204, 204)" stroke-width="1px"></line><line x1="40" y1="138.44444444444446" x2="35" y2="138.44444444444446" style="visibility: inherit;" fill="rgb(0, 0, 0)" stroke="rgb(204, 204, 204)" stroke-width="1px"></line><line x1="40" y1="118.66666666666667" x2="35" y2="118.66666666666667" style="visibility: inherit;" fill="rgb(0, 0, 0)" stroke="rgb(204, 204, 204)" stroke-width="1px"></line><line x1="40" y1="98.88888888888886" x2="35" y2="98.88888888888886" style="visibility: inherit;" fill="rgb(0, 0, 0)" stroke="rgb(204, 204, 204)" stroke-width="1px"></line><line x1="40" y1="79.11111111111104" x2="35" y2="79.11111111111104" style="visibility: inherit;" fill="rgb(0, 0, 0)" stroke="rgb(204, 204, 204)" stroke-width="1px"></line><line x1="40" y1="59.33333333333334" x2="35" y2="59.33333333333334" style="visibility: inherit;" fill="rgb(0, 0, 0)" stroke="rgb(204, 204, 204)" stroke-width="1px"></line><line x1="40" y1="39.55555555555554" x2="35" y2="39.55555555555554" style="visibility: inherit;" fill="rgb(0, 0, 0)" stroke="rgb(204, 204, 204)" stroke-width="1px"></line><line x1="40" y1="19.777777777777715" x2="35" y2="19.777777777777715" style="visibility: inherit;" fill="rgb(0, 0, 0)" stroke="rgb(204, 204, 204)" stroke-width="1px"></line><line x1="40" y1="0" x2="35" y2="0" style="visibility: inherit;" fill="rgb(0, 0, 0)" stroke="rgb(204, 204, 204)" stroke-width="1px"></line></g><g transform="translate(30, 0)"><text x="0" y="178" dx="0em" dy="0.3em" style="text-anchor: end; visibility: hidden; font-family: &quot;Helvetica Neue&quot;, sans-serif; font-size: 12px; font-weight: 200;" fill="rgb(50, 49, 63)" stroke="none" stroke-width="1px">6.4</text><text x="0" y="158.22222222222229" dx="0em" dy="0.3em" style="text-anchor: end; visibility: inherit; font-family: &quot;Helvetica Neue&quot;, sans-serif; font-size: 12px; font-weight: 200;" fill="rgb(50, 49, 63)" stroke="none" stroke-width="1px">6.6</text><text x="0" y="138.44444444444446" dx="0em" dy="0.3em" style="text-anchor: end; visibility: hidden; font-family: &quot;Helvetica Neue&quot;, sans-serif; font-size: 12px; font-weight: 200;" fill="rgb(50, 49, 63)" stroke="none" stroke-width="1px">6.8</text><text x="0" y="118.66666666666667" dx="0em" dy="0.3em" style="text-anchor: end; visibility: inherit; font-family: &quot;Helvetica Neue&quot;, sans-serif; font-size: 12px; font-weight: 200;" fill="rgb(50, 49, 63)" stroke="none" stroke-width="1px">7</text><text x="0" y="98.88888888888886" dx="0em" dy="0.3em" style="text-anchor: end; visibility: hidden; font-family: &quot;Helvetica Neue&quot;, sans-serif; font-size: 12px; font-weight: 200;" fill="rgb(50, 49, 63)" stroke="none" stroke-width="1px">7.2</text><text x="0" y="79.11111111111104" dx="0em" dy="0.3em" style="text-anchor: end; visibility: inherit; font-family: &quot;Helvetica Neue&quot;, sans-serif; font-size: 12px; font-weight: 200;" fill="rgb(50, 49, 63)" stroke="none" stroke-width="1px">7.4</text><text x="0" y="59.33333333333334" dx="0em" dy="0.3em" style="text-anchor: end; visibility: hidden; font-family: &quot;Helvetica Neue&quot;, sans-serif; font-size: 12px; font-weight: 200;" fill="rgb(50, 49, 63)" stroke="none" stroke-width="1px">7.6</text><text x="0" y="39.55555555555554" dx="0em" dy="0.3em" style="text-anchor: end; visibility: inherit; font-family: &quot;Helvetica Neue&quot;, sans-serif; font-size: 12px; font-weight: 200;" fill="rgb(50, 49, 63)" stroke="none" stroke-width="1px">7.8</text><text x="0" y="19.777777777777715" dx="0em" dy="0.3em" style="text-anchor: end; visibility: hidden; font-family: &quot;Helvetica Neue&quot;, sans-serif; font-size: 12px; font-weight: 200;" fill="rgb(50, 49, 63)" stroke="none" stroke-width="1px">8</text><text x="0" y="0" dx="0em" dy="0.3em" style="text-anchor: end; visibility: hidden; font-family: &quot;Helvetica Neue&quot;, sans-serif; font-size: 12px; font-weight: 200;" fill="rgb(50, 49, 63)" stroke="none" stroke-width="1px">8.2</text></g><line x1="40" y1="0" x2="40" y2="178" fill="rgb(0, 0, 0)" stroke="rgb(204, 204, 204)" stroke-width="1px"></line></g></g><g transform="translate(40, 0)" clip-path="url(#clip_0)"><clipPath id="clip_0"><rect width="290" height="178"></rect></clipPath><g><g><g><line x1="0" y1="0" x2="0" y2="178" fill="rgb(0, 0, 0)" stroke="rgb(60, 60, 60)" stroke-width="1px" opacity="0.25"></line><line x1="22.30769230769231" y1="0" x2="22.30769230769231" y2="178" fill="rgb(0, 0, 0)" stroke="rgb(60, 60, 60)" stroke-width="1px" opacity="0.25"></line><line x1="44.61538461538462" y1="0" x2="44.61538461538462" y2="178" fill="rgb(0, 0, 0)" stroke="rgb(60, 60, 60)" stroke-width="1px" opacity="0.25"></line><line x1="66.92307692307692" y1="0" x2="66.92307692307692" y2="178" fill="rgb(0, 0, 0)" stroke="rgb(60, 60, 60)" stroke-width="1px" opacity="0.25"></line><line x1="89.23076923076924" y1="0" x2="89.23076923076924" y2="178" fill="rgb(0, 0, 0)" stroke="rgb(60, 60, 60)" stroke-width="1px" opacity="0.25"></line><line x1="111.53846153846155" y1="0" x2="111.53846153846155" y2="178" fill="rgb(0, 0, 0)" stroke="rgb(60, 60, 60)" stroke-width="1px" opacity="0.25"></line><line x1="133.84615384615384" y1="0" x2="133.84615384615384" y2="178" fill="rgb(0, 0, 0)" stroke="rgb(60, 60, 60)" stroke-width="1px" opacity="0.25"></line><line x1="156.15384615384616" y1="0" x2="156.15384615384616" y2="178" fill="rgb(0, 0, 0)" stroke="rgb(60, 60, 60)" stroke-width="1px" opacity="0.25"></line><line x1="178.46153846153848" y1="0" x2="178.46153846153848" y2="178" fill="rgb(0, 0, 0)" stroke="rgb(60, 60, 60)" stroke-width="1px" opacity="0.25"></line><line x1="200.76923076923077" y1="0" x2="200.76923076923077" y2="178" fill="rgb(0, 0, 0)" stroke="rgb(60, 60, 60)" stroke-width="1px" opacity="0.25"></line><line x1="223.0769230769231" y1="0" x2="223.0769230769231" y2="178" fill="rgb(0, 0, 0)" stroke="rgb(60, 60, 60)" stroke-width="1px" opacity="0.25"></line><line x1="245.3846153846154" y1="0" x2="245.3846153846154" y2="178" fill="rgb(0, 0, 0)" stroke="rgb(60, 60, 60)" stroke-width="1px" opacity="0.25"></line><line x1="267.6923076923077" y1="0" x2="267.6923076923077" y2="178" fill="rgb(0, 0, 0)" stroke="rgb(60, 60, 60)" stroke-width="1px" opacity="0.25"></line><line x1="290" y1="0" x2="290" y2="178" fill="rgb(0, 0, 0)" stroke="rgb(60, 60, 60)" stroke-width="1px" opacity="0.25"></line></g><g><line x1="0" y1="178" x2="290" y2="178" fill="rgb(0, 0, 0)" stroke="rgb(60, 60, 60)" stroke-width="1px" opacity="0.25"></line><line x1="0" y1="158.22222222222229" x2="290" y2="158.22222222222229" fill="rgb(0, 0, 0)" stroke="rgb(60, 60, 60)" stroke-width="1px" opacity="0.25"></line><line x1="0" y1="138.44444444444446" x2="290" y2="138.44444444444446" fill="rgb(0, 0, 0)" stroke="rgb(60, 60, 60)" stroke-width="1px" opacity="0.25"></line><line x1="0" y1="118.66666666666667" x2="290" y2="118.66666666666667" fill="rgb(0, 0, 0)" stroke="rgb(60, 60, 60)" stroke-width="1px" opacity="0.25"></line><line x1="0" y1="98.88888888888886" x2="290" y2="98.88888888888886" fill="rgb(0, 0, 0)" stroke="rgb(60, 60, 60)" stroke-width="1px" opacity="0.25"></line><line x1="0" y1="79.11111111111104" x2="290" y2="79.11111111111104" fill="rgb(0, 0, 0)" stroke="rgb(60, 60, 60)" stroke-width="1px" opacity="0.25"></line><line x1="0" y1="59.33333333333334" x2="290" y2="59.33333333333334" fill="rgb(0, 0, 0)" stroke="rgb(60, 60, 60)" stroke-width="1px" opacity="0.25"></line><line x1="0" y1="39.55555555555554" x2="290" y2="39.55555555555554" fill="rgb(0, 0, 0)" stroke="rgb(60, 60, 60)" stroke-width="1px" opacity="0.25"></line><line x1="0" y1="19.777777777777715" x2="290" y2="19.777777777777715" fill="rgb(0, 0, 0)" stroke="rgb(60, 60, 60)" stroke-width="1px" opacity="0.25"></line><line x1="0" y1="0" x2="290" y2="0" fill="rgb(0, 0, 0)" stroke="rgb(60, 60, 60)" stroke-width="1px" opacity="0.25"></line></g></g></g><g><g><line x1="0" y1="810.8888888888894" x2="290" y2="810.8888888888894" fill="rgb(0, 0, 0)" stroke="rgb(153, 153, 153)" stroke-width="1.5px"></line></g></g><g><g><line x1="22.30769230769231" y1="0" x2="22.30769230769231" y2="178" fill="rgb(0, 0, 0)" stroke="rgb(153, 153, 153)" stroke-width="1.5px"></line></g></g><g><g><g><g><g><path stroke="rgb(255, 112, 67)" stroke-width="2px" d="M22.30769230769231,131.02777777777777L24.203846153846154,167.4509325888054L26.434615384615384,92.53244260690661L28.553846153846155,90.25432376844253L30.784615384615385,96.13866978041372L33.01538461538462,91.19367623720012L35.02307692307692,65.47900703617564L37.03076923076923,75.0003810894999L39.150000000000006,89.36780316383187L41.15769230769231,77.8806012571258L43.16538461538462,89.94999051481679L45.28461538461538,84.81961537903558L47.40384615384615,81.65141035844175L49.52307692307692,65.11568079642443L51.64230769230769,73.28819953605836L53.65,75.73102111066318L55.769230769230774,82.51163825163492L57.66538461538461,91.94215930787401L59.67307692307692,109.87293958924535L61.56923076923077,127.46112706805249L63.46538461538462,115.46929537639278L65.25,105.01522694056138L67.25769230769231,95.7935067791221L69.37692307692308,78.10649391531257L71.38461538461539,66.17969345748148L73.3923076923077,58.11251997937636L75.4,33.522616740130076L77.40769230769232,60.73470633693789L79.41538461538461,63.13552803702886L81.42307692307692,87.03819700169474L83.43076923076923,93.05636615472267L85.55,114.38775112638122L87.78076923076924,124.60494699611883L89.9,99.1880249172147L91.9076923076923,122.47531444317698L94.02692307692307,131.15051872598298L96.14615384615385,128.77761133647937L98.15384615384616,106.49448814331939L100.27307692307693,110.3739921759661L102.3923076923077,111.94994463462544L104.28846153846153,125.75448767214829L106.4076923076923,101.70111907640357L108.52692307692308,90.83164443732718L110.64615384615385,76.54719003146373L112.65384615384616,61.84553589121414L114.77307692307691,87.51766885352997L116.89230769230768,82.47553826095171L119.01153846153846,84.65471865724457L120.9076923076923,84.85402936542523L122.91538461538462,69.35764250375118L125.03461538461539,78.7265586644357L127.15384615384615,54.217072847314256L129.05,67.24554696449651L129.16153846153847,69.18688118746776L129.16153846153847,92.6799246733529L129.27307692307693,89.00580102933502L129.3846153846154,73.50377130395516L129.3846153846154,88.34776043259241L129.49615384615385,87.0625141598117L129.49615384615385,78.1927404428092L129.6076923076923,57.69939948779657L129.71923076923076,59.88874044591236L130.83461538461538,42.8731838932116L132.8423076923077,68.2341690456795L134.85,82.51358189405781L136.74615384615385,88.59980616774291L138.6423076923077,45.774521035312546L140.76153846153846,63.53839417318473L142.65769230769232,57.57248527753718L144.55384615384617,56.65445644154022L146.56153846153848,74.69974807221526L148.4576923076923,76.00762960871896L150.4653846153846,78.63275759126763L152.36153846153846,77.6276230852364L154.2576923076923,97.16809959618838L156.26538461538462,111.43014074938571L158.16153846153844,90.10184399016498L160.16923076923075,86.13471556564818L162.06538461538463,79.00698657211414L164.07307692307694,101.41686091035089L166.08076923076925,86.68830192968043L167.97692307692307,88.06696905066036L169.87307692307695,99.36100149036824L171.88076923076923,100.68046678986441L173.88846153846154,109.57793452071495L175.7846153846154,97.99599418960355L177.68076923076922,88.61462257509731L179.68846153846152,88.06154499822722L181.5846153846154,102.48809527907268L183.70384615384614,114.95646835951382L185.6,103.13548304279671L187.49615384615385,94.34335234230178L189.28076923076924,83.30737163607586L190.61923076923077,70.45387242769385L192.51538461538462,71.78560261850315L194.52307692307693,85.39022703217344L196.53076923076924,110.50163948495245L198.53846153846155,100.30993908296337L200.43461538461537,101.44910621374811L202.44230769230768,107.06905381487867L204.56153846153848,88.13510024589834L206.4576923076923,91.58748675633129L208.4653846153846,88.90383022099863L210.47307692307692,106.30182470651476L212.48076923076923,105.51966618368316L214.37692307692308,108.0175962759479L216.3846153846154,91.25203075858968L218.2807692307692,78.4547900745193L220.28846153846152,109.5811577414344L222.0730769230769,135.57638293452624L224.08076923076922,114.35751533722681L225.9769230769231,118.30773258511066L227.9846153846154,123.0731522830457L229.88076923076923,123.80166374311479L231.88846153846154,118.1287920761977L233.78461538461536,119.01385563236518L235.56923076923076,127.5594667895376L237.46538461538464,122.73835627104745L239.36153846153846,114.91890191278115L241.36923076923077,81.96754531692297L243.37692307692308,83.46028876720766L245.3846153846154,51.005988022191175L247.2807692307692,48.20410657080512L249.28846153846155,57.67763815079604L251.1846153846154,55.17388690213566L253.1923076923077,75.06621577474536L255.08846153846153,85.69891255534687L257.0961538461538,75.52250805870013L258.9923076923077,64.93100930530836L261,55.569018971868445L263.0076923076923,61.29460608450938" style="fill: none;" fill="none"></path></g></g></g></g><g opacity="0.2"><g><g><g><path stroke="rgb(255, 112, 67)" stroke-width="2px" d="M22.30769230769231,131.02777777777777L24.203846153846154,196.95368798573816L26.434615384615384,-17.305555555555657L28.553846153846155,85.7036879857381L30.784615384615385,110.42591020796034L33.01538461538462,77.46297868092852L35.02307692307692,-13.185153749254084L37.03076923076923,106.30555555555554L39.150000000000006,139.26853423648413L41.15769230769231,36.259243541293614L43.16538461538462,135.14813243018256L45.28461538461538,65.10186756981741L47.40384615384615,69.2222222222222L49.52307692307692,-0.82404263814297L51.64230769230769,106.30555555555554L53.65,85.7036879857381L55.769230769230774,110.42591020796034L57.66538461538461,131.02777777777777L59.67307692307692,184.59257687462704L61.56923076923077,201.0740897920397L63.46538461538462,65.10186756981741L65.25,60.98146576351586L67.25769230769231,56.86111111111107L69.37692307692308,3.2962648603650564L71.38461538461539,15.65737597147617L73.3923076923077,23.8981324301825L75.4,-70.87040180630166L77.40769230769232,176.35186756981747L79.41538461538461,73.34257687462699L81.42307692307692,188.7129786809286L83.43076923076923,118.66666666666667L85.55,205.19444444444449L87.78076923076924,168.11111111111114L89.9,-9.06484625074603L91.9076923076923,221.6759102079604L94.02692307692307,168.11111111111114L96.14615384615385,118.66666666666667L98.15384615384616,11.537068472968144L100.27307692307693,126.907423125373L102.3923076923077,118.66666666666667L104.28846153846153,184.59257687462704L106.4076923076923,-0.82404263814297L108.52692307692308,44.49999999999997L110.64615384615385,15.65737597147617L112.65384615384616,-0.82404263814297L114.77307692307691,196.95368798573816L116.89230769230768,60.98146576351586L119.01153846153846,93.94444444444443L120.9076923076923,85.7036879857381L122.91538461538462,3.2962648603650564L125.03461538461539,118.66666666666667L127.15384615384615,-50.26848708258743L129.05,122.78702131907146L129.16153846153847,77.46297868092852L129.16153846153847,192.83333333333337L129.27307692307693,73.34257687462699L129.3846153846154,7.4166666666666L129.3846153846154,151.62964534759524L129.49615384615385,81.58333333333331L129.49615384615385,40.379645347595186L129.6076923076923,-29.66666666666677L129.71923076923076,69.2222222222222L130.83461538461538,-29.66666666666677L132.8423076923077,176.35186756981747L134.85,143.3888888888889L136.74615384615385,114.54631201426187L138.6423076923077,-136.79626486036528L140.76153846153846,139.26853423648413L142.65769230769232,32.13888888888883L144.55384615384617,52.74075645870629L146.56153846153848,151.62964534759524L148.4576923076923,81.58333333333331L150.4653846153846,89.82408979203964L152.36153846153846,73.34257687462699L154.2576923076923,180.47222222222226L156.26538461538462,172.23146576351593L158.16153846153844,-0.82404263814297L160.16923076923075,69.2222222222222L162.06538461538463,48.62035465240476L164.07307692307694,196.95368798573816L166.08076923076925,23.8981324301825L167.97692307692307,93.94444444444443L169.87307692307695,147.5092435412937L171.88076923076923,106.30555555555554L173.88846153846154,147.5092435412937L175.7846153846154,48.62035465240476L177.68076923076922,48.62035465240476L179.68846153846152,85.7036879857381L181.5846153846154,163.99075645870636L183.70384615384614,168.11111111111114L185.6,52.74075645870629L187.49615384615385,56.86111111111107L189.28076923076924,36.259243541293614L190.61923076923077,15.65737597147617L192.51538461538462,77.46297868092852L194.52307692307693,143.3888888888889L196.53076923076924,217.5555555555556L198.53846153846155,56.86111111111107L200.43461538461537,106.30555555555554L202.44230769230768,131.02777777777777L204.56153846153848,7.4166666666666L206.4576923076923,106.30555555555554L208.4653846153846,77.46297868092852L210.47307692307692,180.47222222222226L212.48076923076923,102.18520090315076L214.37692307692308,118.66666666666667L216.3846153846154,19.777777777777715L218.2807692307692,23.8981324301825L220.28846153846152,242.27777777777786L222.0730769230769,246.39813243018264L224.08076923076922,23.8981324301825L225.9769230769231,135.14813243018256L227.9846153846154,143.3888888888889L229.88076923076923,126.907423125373L231.88846153846154,93.94444444444443L233.78461538461536,122.78702131907146L235.56923076923076,163.99075645870636L237.46538461538464,102.18520090315076L239.36153846153846,81.58333333333331L241.36923076923077,-58.50929069519054L243.37692307692308,89.82408979203964L245.3846153846154,-87.35182041592077L247.2807692307692,36.259243541293614L249.28846153846155,98.06479909684923L251.1846153846154,44.49999999999997L253.1923076923077,159.8703546524048L255.08846153846153,131.02777777777777L257.0961538461538,32.13888888888883L258.9923076923077,19.777777777777715L261,15.65737597147617L263.0076923076923,85.7036879857381" style="fill: none;" fill="none"></path></g></g></g></g></g></g><g transform="translate(40, 178)" clip-path="url(#clip_1)"><clipPath id="clip_1"><rect width="290" height="22"></rect></clipPath><g><g><line x1="0" y1="0" x2="0" y2="5" style="visibility: inherit;" fill="rgb(0, 0, 0)" stroke="rgb(204, 204, 204)" stroke-width="1px"></line><line x1="22.30769230769231" y1="0" x2="22.30769230769231" y2="5" style="visibility: inherit;" fill="rgb(0, 0, 0)" stroke="rgb(204, 204, 204)" stroke-width="1px"></line><line x1="44.61538461538462" y1="0" x2="44.61538461538462" y2="5" style="visibility: inherit;" fill="rgb(0, 0, 0)" stroke="rgb(204, 204, 204)" stroke-width="1px"></line><line x1="66.92307692307692" y1="0" x2="66.92307692307692" y2="5" style="visibility: inherit;" fill="rgb(0, 0, 0)" stroke="rgb(204, 204, 204)" stroke-width="1px"></line><line x1="89.23076923076924" y1="0" x2="89.23076923076924" y2="5" style="visibility: inherit;" fill="rgb(0, 0, 0)" stroke="rgb(204, 204, 204)" stroke-width="1px"></line><line x1="111.53846153846155" y1="0" x2="111.53846153846155" y2="5" style="visibility: inherit;" fill="rgb(0, 0, 0)" stroke="rgb(204, 204, 204)" stroke-width="1px"></line><line x1="133.84615384615384" y1="0" x2="133.84615384615384" y2="5" style="visibility: inherit;" fill="rgb(0, 0, 0)" stroke="rgb(204, 204, 204)" stroke-width="1px"></line><line x1="156.15384615384616" y1="0" x2="156.15384615384616" y2="5" style="visibility: inherit;" fill="rgb(0, 0, 0)" stroke="rgb(204, 204, 204)" stroke-width="1px"></line><line x1="178.46153846153848" y1="0" x2="178.46153846153848" y2="5" style="visibility: inherit;" fill="rgb(0, 0, 0)" stroke="rgb(204, 204, 204)" stroke-width="1px"></line><line x1="200.76923076923077" y1="0" x2="200.76923076923077" y2="5" style="visibility: inherit;" fill="rgb(0, 0, 0)" stroke="rgb(204, 204, 204)" stroke-width="1px"></line><line x1="223.0769230769231" y1="0" x2="223.0769230769231" y2="5" style="visibility: inherit;" fill="rgb(0, 0, 0)" stroke="rgb(204, 204, 204)" stroke-width="1px"></line><line x1="245.3846153846154" y1="0" x2="245.3846153846154" y2="5" style="visibility: inherit;" fill="rgb(0, 0, 0)" stroke="rgb(204, 204, 204)" stroke-width="1px"></line><line x1="267.6923076923077" y1="0" x2="267.6923076923077" y2="5" style="visibility: inherit;" fill="rgb(0, 0, 0)" stroke="rgb(204, 204, 204)" stroke-width="1px"></line><line x1="290" y1="0" x2="290" y2="5" style="visibility: inherit;" fill="rgb(0, 0, 0)" stroke="rgb(204, 204, 204)" stroke-width="1px"></line></g><g transform="translate(0, 8)"><text x="0" y="0" dx="0em" dy="0.95em" style="text-anchor: middle; visibility: hidden; font-family: &quot;Helvetica Neue&quot;, sans-serif; font-size: 12px; font-weight: 200;" fill="rgb(50, 49, 63)" stroke="none" stroke-width="1px">-200</text><text x="22.30769230769231" y="0" dx="0em" dy="0.95em" style="text-anchor: middle; visibility: inherit; font-family: &quot;Helvetica Neue&quot;, sans-serif; font-size: 12px; font-weight: 200;" fill="rgb(50, 49, 63)" stroke="none" stroke-width="1px">0</text><text x="44.61538461538462" y="0" dx="0em" dy="0.95em" style="text-anchor: middle; visibility: hidden; font-family: &quot;Helvetica Neue&quot;, sans-serif; font-size: 12px; font-weight: 200;" fill="rgb(50, 49, 63)" stroke="none" stroke-width="1px">200</text><text x="66.92307692307692" y="0" dx="0em" dy="0.95em" style="text-anchor: middle; visibility: inherit; font-family: &quot;Helvetica Neue&quot;, sans-serif; font-size: 12px; font-weight: 200;" fill="rgb(50, 49, 63)" stroke="none" stroke-width="1px">400</text><text x="89.23076923076924" y="0" dx="0em" dy="0.95em" style="text-anchor: middle; visibility: hidden; font-family: &quot;Helvetica Neue&quot;, sans-serif; font-size: 12px; font-weight: 200;" fill="rgb(50, 49, 63)" stroke="none" stroke-width="1px">600</text><text x="111.53846153846155" y="0" dx="0em" dy="0.95em" style="text-anchor: middle; visibility: inherit; font-family: &quot;Helvetica Neue&quot;, sans-serif; font-size: 12px; font-weight: 200;" fill="rgb(50, 49, 63)" stroke="none" stroke-width="1px">800</text><text x="133.84615384615384" y="0" dx="0em" dy="0.95em" style="text-anchor: middle; visibility: hidden; font-family: &quot;Helvetica Neue&quot;, sans-serif; font-size: 12px; font-weight: 200;" fill="rgb(50, 49, 63)" stroke="none" stroke-width="1px">1k</text><text x="156.15384615384616" y="0" dx="0em" dy="0.95em" style="text-anchor: middle; visibility: inherit; font-family: &quot;Helvetica Neue&quot;, sans-serif; font-size: 12px; font-weight: 200;" fill="rgb(50, 49, 63)" stroke="none" stroke-width="1px">1.2k</text><text x="178.46153846153848" y="0" dx="0em" dy="0.95em" style="text-anchor: middle; visibility: hidden; font-family: &quot;Helvetica Neue&quot;, sans-serif; font-size: 12px; font-weight: 200;" fill="rgb(50, 49, 63)" stroke="none" stroke-width="1px">1.4k</text><text x="200.76923076923077" y="0" dx="0em" dy="0.95em" style="text-anchor: middle; visibility: inherit; font-family: &quot;Helvetica Neue&quot;, sans-serif; font-size: 12px; font-weight: 200;" fill="rgb(50, 49, 63)" stroke="none" stroke-width="1px">1.6k</text><text x="223.0769230769231" y="0" dx="0em" dy="0.95em" style="text-anchor: middle; visibility: hidden; font-family: &quot;Helvetica Neue&quot;, sans-serif; font-size: 12px; font-weight: 200;" fill="rgb(50, 49, 63)" stroke="none" stroke-width="1px">1.8k</text><text x="245.3846153846154" y="0" dx="0em" dy="0.95em" style="text-anchor: middle; visibility: inherit; font-family: &quot;Helvetica Neue&quot;, sans-serif; font-size: 12px; font-weight: 200;" fill="rgb(50, 49, 63)" stroke="none" stroke-width="1px">2k</text><text x="267.6923076923077" y="0" dx="0em" dy="0.95em" style="text-anchor: middle; visibility: hidden; font-family: &quot;Helvetica Neue&quot;, sans-serif; font-size: 12px; font-weight: 200;" fill="rgb(50, 49, 63)" stroke="none" stroke-width="1px">2.2k</text><text x="290" y="0" dx="0em" dy="0.95em" style="text-anchor: middle; visibility: hidden; font-family: &quot;Helvetica Neue&quot;, sans-serif; font-size: 12px; font-weight: 200;" fill="rgb(50, 49, 63)" stroke="none" stroke-width="1px">2.4k</text></g><line x1="0" y1="0" x2="290" y2="0" fill="rgb(0, 0, 0)" stroke="rgb(204, 204, 204)" stroke-width="1px"></line></g></g></g></g></svg>