<svg viewBox="0 0 330 200" xmlns="http://www.w3.org/2000/svg"><g><g><g><g><g><line x1="50" y1="178" x2="45" y2="178" style="visibility: inherit;" fill="rgb(0, 0, 0)" stroke="rgb(204, 204, 204)" stroke-width="1px"></line><line x1="50" y1="165.28571428571428" x2="45" y2="165.28571428571428" style="visibility: inherit;" fill="rgb(0, 0, 0)" stroke="rgb(204, 204, 204)" stroke-width="1px"></line><line x1="50" y1="152.57142857142858" x2="45" y2="152.57142857142858" style="visibility: inherit;" fill="rgb(0, 0, 0)" stroke="rgb(204, 204, 204)" stroke-width="1px"></line><line x1="50" y1="139.85714285714286" x2="45" y2="139.85714285714286" style="visibility: inherit;" fill="rgb(0, 0, 0)" stroke="rgb(204, 204, 204)" stroke-width="1px"></line><line x1="50" y1="127.14285714285714" x2="45" y2="127.14285714285714" style="visibility: inherit;" fill="rgb(0, 0, 0)" stroke="rgb(204, 204, 204)" stroke-width="1px"></line><line x1="50" y1="114.42857142857143" x2="45" y2="114.42857142857143" style="visibility: inherit;" fill="rgb(0, 0, 0)" stroke="rgb(204, 204, 204)" stroke-width="1px"></line><line x1="50" y1="101.71428571428572" x2="45" y2="101.71428571428572" style="visibility: inherit;" fill="rgb(0, 0, 0)" stroke="rgb(204, 204, 204)" stroke-width="1px"></line><line x1="50" y1="89" x2="45" y2="89" style="visibility: inherit;" fill="rgb(0, 0, 0)" stroke="rgb(204, 204, 204)" stroke-width="1px"></line><line x1="50" y1="76.28571428571429" x2="45" y2="76.28571428571429" style="visibility: inherit;" fill="rgb(0, 0, 0)" stroke="rgb(204, 204, 204)" stroke-width="1px"></line><line x1="50" y1="63.57142857142857" x2="45" y2="63.57142857142857" style="visibility: inherit;" fill="rgb(0, 0, 0)" stroke="rgb(204, 204, 204)" stroke-width="1px"></line><line x1="50" y1="50.85714285714286" x2="45" y2="50.85714285714286" style="visibility: inherit;" fill="rgb(0, 0, 0)" stroke="rgb(204, 204, 204)" stroke-width="1px"></line><line x1="50" y1="38.14285714285714" x2="45" y2="38.14285714285714" style="visibility: inherit;" fill="rgb(0, 0, 0)" stroke="rgb(204, 204, 204)" stroke-width="1px"></line><line x1="50" y1="25.428571428571445" x2="45" y2="25.428571428571445" style="visibility: inherit;" fill="rgb(0, 0, 0)" stroke="rgb(204, 204, 204)" stroke-width="1px"></line><line x1="50" y1="12.714285714285722" x2="45" y2="12.714285714285722" style="visibility: inherit;" fill="rgb(0, 0, 0)" stroke="rgb(204, 204, 204)" stroke-width="1px"></line><line x1="50" y1="0" x2="45" y2="0" style="visibility: inherit;" fill="rgb(0, 0, 0)" stroke="rgb(204, 204, 204)" stroke-width="1px"></line></g><g transform="translate(40, 0)"><text x="0" y="178" dx="0em" dy="0.3em" style="text-anchor: end; visibility: hidden; font-family: &quot;Helvetica Neue&quot;, sans-serif; font-size: 12px; font-weight: 200;" fill="rgb(50, 49, 63)" stroke="none" stroke-width="1px">-1</text><text x="0" y="165.28571428571428" dx="0em" dy="0.3em" style="text-anchor: end; visibility: inherit; font-family: &quot;Helvetica Neue&quot;, sans-serif; font-size: 12px; font-weight: 200;" fill="rgb(50, 49, 63)" stroke="none" stroke-width="1px">-0.5</text><text x="0" y="152.57142857142858" dx="0em" dy="0.3em" style="text-anchor: end; visibility: hidden; font-family: &quot;Helvetica Neue&quot;, sans-serif; font-size: 12px; font-weight: 200;" fill="rgb(50, 49, 63)" stroke="none" stroke-width="1px">0</text><text x="0" y="139.85714285714286" dx="0em" dy="0.3em" style="text-anchor: end; visibility: inherit; font-family: &quot;Helvetica Neue&quot;, sans-serif; font-size: 12px; font-weight: 200;" fill="rgb(50, 49, 63)" stroke="none" stroke-width="1px">0.5</text><text x="0" y="127.14285714285714" dx="0em" dy="0.3em" style="text-anchor: end; visibility: hidden; font-family: &quot;Helvetica Neue&quot;, sans-serif; font-size: 12px; font-weight: 200;" fill="rgb(50, 49, 63)" stroke="none" stroke-width="1px">1</text><text x="0" y="114.42857142857143" dx="0em" dy="0.3em" style="text-anchor: end; visibility: inherit; font-family: &quot;Helvetica Neue&quot;, sans-serif; font-size: 12px; font-weight: 200;" fill="rgb(50, 49, 63)" stroke="none" stroke-width="1px">1.5</text><text x="0" y="101.71428571428572" dx="0em" dy="0.3em" style="text-anchor: end; visibility: hidden; font-family: &quot;Helvetica Neue&quot;, sans-serif; font-size: 12px; font-weight: 200;" fill="rgb(50, 49, 63)" stroke="none" stroke-width="1px">2</text><text x="0" y="89" dx="0em" dy="0.3em" style="text-anchor: end; visibility: inherit; font-family: &quot;Helvetica Neue&quot;, sans-serif; font-size: 12px; font-weight: 200;" fill="rgb(50, 49, 63)" stroke="none" stroke-width="1px">2.5</text><text x="0" y="76.28571428571429" dx="0em" dy="0.3em" style="text-anchor: end; visibility: hidden; font-family: &quot;Helvetica Neue&quot;, sans-serif; font-size: 12px; font-weight: 200;" fill="rgb(50, 49, 63)" stroke="none" stroke-width="1px">3</text><text x="0" y="63.57142857142857" dx="0em" dy="0.3em" style="text-anchor: end; visibility: inherit; font-family: &quot;Helvetica Neue&quot;, sans-serif; font-size: 12px; font-weight: 200;" fill="rgb(50, 49, 63)" stroke="none" stroke-width="1px">3.5</text><text x="0" y="50.85714285714286" dx="0em" dy="0.3em" style="text-anchor: end; visibility: hidden; font-family: &quot;Helvetica Neue&quot;, sans-serif; font-size: 12px; font-weight: 200;" fill="rgb(50, 49, 63)" stroke="none" stroke-width="1px">4</text><text x="0" y="38.14285714285714" dx="0em" dy="0.3em" style="text-anchor: end; visibility: inherit; font-family: &quot;Helvetica Neue&quot;, sans-serif; font-size: 12px; font-weight: 200;" fill="rgb(50, 49, 63)" stroke="none" stroke-width="1px">4.5</text><text x="0" y="25.428571428571445" dx="0em" dy="0.3em" style="text-anchor: end; visibility: hidden; font-family: &quot;Helvetica Neue&quot;, sans-serif; font-size: 12px; font-weight: 200;" fill="rgb(50, 49, 63)" stroke="none" stroke-width="1px">5</text><text x="0" y="12.714285714285722" dx="0em" dy="0.3em" style="text-anchor: end; visibility: inherit; font-family: &quot;Helvetica Neue&quot;, sans-serif; font-size: 12px; font-weight: 200;" fill="rgb(50, 49, 63)" stroke="none" stroke-width="1px">5.5</text><text x="0" y="0" dx="0em" dy="0.3em" style="text-anchor: end; visibility: hidden; font-family: &quot;Helvetica Neue&quot;, sans-serif; font-size: 12px; font-weight: 200;" fill="rgb(50, 49, 63)" stroke="none" stroke-width="1px">6</text></g><line x1="50" y1="0" x2="50" y2="178" fill="rgb(0, 0, 0)" stroke="rgb(204, 204, 204)" stroke-width="1px"></line></g></g><g transform="translate(50, 0)" clip-path="url(#clip_0)"><clipPath id="clip_0"><rect width="280" height="178"></rect></clipPath><g><g><g><line x1="0" y1="0" x2="0" y2="178" fill="rgb(0, 0, 0)" stroke="rgb(60, 60, 60)" stroke-width="1px" opacity="0.25"></line><line x1="21.53846153846154" y1="0" x2="21.53846153846154" y2="178" fill="rgb(0, 0, 0)" stroke="rgb(60, 60, 60)" stroke-width="1px" opacity="0.25"></line><line x1="43.07692307692308" y1="0" x2="43.07692307692308" y2="178" fill="rgb(0, 0, 0)" stroke="rgb(60, 60, 60)" stroke-width="1px" opacity="0.25"></line><line x1="64.61538461538461" y1="0" x2="64.61538461538461" y2="178" fill="rgb(0, 0, 0)" stroke="rgb(60, 60, 60)" stroke-width="1px" opacity="0.25"></line><line x1="86.15384615384616" y1="0" x2="86.15384615384616" y2="178" fill="rgb(0, 0, 0)" stroke="rgb(60, 60, 60)" stroke-width="1px" opacity="0.25"></line><line x1="107.6923076923077" y1="0" x2="107.6923076923077" y2="178" fill="rgb(0, 0, 0)" stroke="rgb(60, 60, 60)" stroke-width="1px" opacity="0.25"></line><line x1="129.23076923076923" y1="0" x2="129.23076923076923" y2="178" fill="rgb(0, 0, 0)" stroke="rgb(60, 60, 60)" stroke-width="1px" opacity="0.25"></line><line x1="150.76923076923077" y1="0" x2="150.76923076923077" y2="178" fill="rgb(0, 0, 0)" stroke="rgb(60, 60, 60)" stroke-width="1px" opacity="0.25"></line><line x1="172.30769230769232" y1="0" x2="172.30769230769232" y2="178" fill="rgb(0, 0, 0)" stroke="rgb(60, 60, 60)" stroke-width="1px" opacity="0.25"></line><line x1="193.84615384615384" y1="0" x2="193.84615384615384" y2="178" fill="rgb(0, 0, 0)" stroke="rgb(60, 60, 60)" stroke-width="1px" opacity="0.25"></line><line x1="215.3846153846154" y1="0" x2="215.3846153846154" y2="178" fill="rgb(0, 0, 0)" stroke="rgb(60, 60, 60)" stroke-width="1px" opacity="0.25"></line><line x1="236.92307692307693" y1="0" x2="236.92307692307693" y2="178" fill="rgb(0, 0, 0)" stroke="rgb(60, 60, 60)" stroke-width="1px" opacity="0.25"></line><line x1="258.46153846153845" y1="0" x2="258.46153846153845" y2="178" fill="rgb(0, 0, 0)" stroke="rgb(60, 60, 60)" stroke-width="1px" opacity="0.25"></line><line x1="280" y1="0" x2="280" y2="178" fill="rgb(0, 0, 0)" stroke="rgb(60, 60, 60)" stroke-width="1px" opacity="0.25"></line></g><g><line x1="0" y1="178" x2="280" y2="178" fill="rgb(0, 0, 0)" stroke="rgb(60, 60, 60)" stroke-width="1px" opacity="0.25"></line><line x1="0" y1="165.28571428571428" x2="280" y2="165.28571428571428" fill="rgb(0, 0, 0)" stroke="rgb(60, 60, 60)" stroke-width="1px" opacity="0.25"></line><line x1="0" y1="152.57142857142858" x2="280" y2="152.57142857142858" fill="rgb(0, 0, 0)" stroke="rgb(60, 60, 60)" stroke-width="1px" opacity="0.25"></line><line x1="0" y1="139.85714285714286" x2="280" y2="139.85714285714286" fill="rgb(0, 0, 0)" stroke="rgb(60, 60, 60)" stroke-width="1px" opacity="0.25"></line><line x1="0" y1="127.14285714285714" x2="280" y2="127.14285714285714" fill="rgb(0, 0, 0)" stroke="rgb(60, 60, 60)" stroke-width="1px" opacity="0.25"></line><line x1="0" y1="114.42857142857143" x2="280" y2="114.42857142857143" fill="rgb(0, 0, 0)" stroke="rgb(60, 60, 60)" stroke-width="1px" opacity="0.25"></line><line x1="0" y1="101.71428571428572" x2="280" y2="101.71428571428572" fill="rgb(0, 0, 0)" stroke="rgb(60, 60, 60)" stroke-width="1px" opacity="0.25"></line><line x1="0" y1="89" x2="280" y2="89" fill="rgb(0, 0, 0)" stroke="rgb(60, 60, 60)" stroke-width="1px" opacity="0.25"></line><line x1="0" y1="76.28571428571429" x2="280" y2="76.28571428571429" fill="rgb(0, 0, 0)" stroke="rgb(60, 60, 60)" stroke-width="1px" opacity="0.25"></line><line x1="0" y1="63.57142857142857" x2="280" y2="63.57142857142857" fill="rgb(0, 0, 0)" stroke="rgb(60, 60, 60)" stroke-width="1px" opacity="0.25"></line><line x1="0" y1="50.85714285714286" x2="280" y2="50.85714285714286" fill="rgb(0, 0, 0)" stroke="rgb(60, 60, 60)" stroke-width="1px" opacity="0.25"></line><line x1="0" y1="38.14285714285714" x2="280" y2="38.14285714285714" fill="rgb(0, 0, 0)" stroke="rgb(60, 60, 60)" stroke-width="1px" opacity="0.25"></line><line x1="0" y1="25.428571428571445" x2="280" y2="25.428571428571445" fill="rgb(0, 0, 0)" stroke="rgb(60, 60, 60)" stroke-width="1px" opacity="0.25"></line><line x1="0" y1="12.714285714285722" x2="280" y2="12.714285714285722" fill="rgb(0, 0, 0)" stroke="rgb(60, 60, 60)" stroke-width="1px" opacity="0.25"></line><line x1="0" y1="0" x2="280" y2="0" fill="rgb(0, 0, 0)" stroke="rgb(60, 60, 60)" stroke-width="1px" opacity="0.25"></line></g></g></g><g><g><line x1="0" y1="152.57142857142858" x2="280" y2="152.57142857142858" fill="rgb(0, 0, 0)" stroke="rgb(153, 153, 153)" stroke-width="1.5px"></line></g></g><g><g><line x1="21.53846153846154" y1="0" x2="21.53846153846154" y2="178" fill="rgb(0, 0, 0)" stroke="rgb(153, 153, 153)" stroke-width="1.5px"></line></g></g><g><g><g><g><g><path stroke="rgb(255, 112, 67)" stroke-width="2px" d="M29.723076923076924,-14.65734872038118L31.876923076923077,9.756552924850808L33.815384615384616,23.95312270772706L35.753846153846155,39.264059582816174L37.800000000000004,48.852237817438265L39.73846153846154,59.85335515146127L41.676923076923075,68.14670947726887L43.72307692307692,75.41388091687456L45.76923076923077,82.24303168032468L47.81538461538461,82.5026963357116L49.86153846153846,88.17305194354725L51.8,89.70544057679403L53.84615384615385,92.85272046883875L55.676923076923075,96.73471324445504L57.61538461538461,99.65896614998395L59.44615384615385,103.45049947051788L61.27692307692308,104.68571774608843L63,104.09824716713193L64.93846153846154,106.26928244117792L66.98461538461538,102.08344459726152L68.92307692307693,104.31787064894543L70.86153846153846,103.03453857948732L72.8,105.82725318742945L74.73846153846154,106.67490063572477L76.67692307692307,109.77555324315591L78.61538461538461,108.48433533961533L80.55384615384615,112.18161991641044L82.6,112.64583428146443L84.75384615384615,115.82208872867722L86.8,115.66938089875103L88.73846153846154,115.96258928064898L90.78461538461538,116.0161518543021L92.83076923076923,116.71157022655177L94.76923076923077,116.10457338533769L96.81538461538462,117.99050789026009L98.86153846153846,118.31817132118961L100.6923076923077,118.5301862132514L102.73846153846154,121.15190559746591L104.78461538461539,119.81814472995939L106.83076923076923,117.17695325313471L108.76923076923077,118.02414511240636L110.81538461538462,112.58730261588994L112.86153846153846,113.62479311751588L114.90769230769232,115.33176532043133L116.73846153846154,116.13793056167424L118.67692307692309,116.1923139434821L120.72307692307693,114.08707590581749L122.76923076923077,116.04519923030783L124.60000000000001,118.96816855851287L124.70769230769231,119.7649672240766L124.70769230769231,121.79047106789915L124.81538461538462,123.30438314900722L124.92307692307693,120.3262607437072L124.92307692307693,120.31282183944309L125.03076923076924,119.65662138637603L125.03076923076924,119.499847788023L125.13846153846154,122.76992093142721L125.24615384615385,122.09997766270104L126.32307692307691,121.83194327469084L128.26153846153846,123.33291786608123L130.20000000000002,123.22723897720502L132.03076923076924,122.35559522254263L133.86153846153846,119.40127077695382L135.9076923076923,120.26769122037976L137.73846153846154,121.07955937842668L139.56923076923076,117.51345594395565L141.5076923076923,120.09424918883288L143.33846153846153,119.41988955466732L145.27692307692308,120.34569073842997L147.1076923076923,119.74693926931474L148.93846153846155,119.80840682121162L150.87692307692308,119.81119618702024L152.7076923076923,121.10017955286386L154.64615384615385,121.86549047046603L156.4769230769231,122.32521623379382L158.41538461538462,123.17636043503613L160.35384615384615,121.8689442908022L162.18461538461537,121.25242382463128L164.01538461538462,121.7198840157406L165.95384615384617,121.01219875333642L167.8923076923077,122.2653543310318L169.72307692307692,123.55066736747614L171.55384615384614,124.97936158308278L173.4923076923077,122.54913420313997L175.32307692307694,122.3912222309253L177.36923076923077,123.80997395994376L179.20000000000002,123.88222689743964L181.0307692307692,122.99497141784443L182.75384615384615,124.26873045238693L184.04615384615383,123.25642082671486L185.87692307692308,122.69945122055412L187.81538461538463,122.79576297625363L189.75384615384615,122.14772915177755L191.6923076923077,124.08438751505491L193.5230769230769,122.24352417163344L195.46153846153845,122.72311032324649L197.5076923076923,121.83116827353177L199.33846153846153,122.23174930691016L201.27692307692305,123.38064335678749L203.2153846153846,123.51742556163583L205.15384615384613,124.608213306194L206.98461538461538,123.29054549777271L208.92307692307693,121.07416937327676L210.75384615384615,120.06613723051652L212.69230769230768,120.58354849781202L214.41538461538462,122.37076401190673L216.35384615384615,124.508423706829L218.1846153846154,126.65894232522584L220.12307692307695,123.78654899416264L221.95384615384614,122.80035552937335L223.8923076923077,123.84725151672109L225.72307692307692,125.19189694878196L227.44615384615383,127.19977846245035L229.27692307692308,128.04945144656853L231.1076923076923,128.35616124762657L233.04615384615386,127.00566359325617L234.98461538461538,126.69303825196212L236.92307692307693,124.40899235816035L238.75384615384613,124.68800794734952L240.6923076923077,125.57196077375644L242.52307692307693,126.29612753487098L244.46153846153845,125.01109169740948L246.29230769230767,126.93039346375583L248.23076923076923,128.0314718216117L250.06153846153848,126.60617221886L252,126.96964779846977L253.93846153846155,127.3265018840239" style="fill: none;" fill="none"></path></g></g></g></g><g opacity="0.2"><g><g><g><path stroke="rgb(255, 112, 67)" stroke-width="2px" d="M23.369230769230768,-8.012863022940508L25.523076923076925,40.95420210702079L27.56923076923077,48.12821347372872L29.723076923076924,60.09013720921108L31.876923076923077,77.54630770002093L33.815384615384616,67.38207912445068L35.753846153846155,89.60464566094535L37.800000000000004,82.15376547404698L39.73846153846154,99.71349198477608L41.676923076923075,99.20413896015712L43.72307692307692,103.34405170168196L45.76923076923077,109.03447954995292L47.81538461538461,83.53816413879395L49.86153846153846,111.08155247143337L51.8,95.96132169451033L53.84615384615385,105.80936217308044L55.676923076923075,112.82397147587368L57.61538461538461,111.84466654913766L59.44615384615385,119.31944567816598L61.27692307692308,109.87381318637303L63,101.62375225339616L64.93846153846154,115.43499153000968L66.98461538461538,84.37873152324131L68.92307692307693,113.7829726082938L70.86153846153846,97.59168788364956L72.8,117.68333513396126L74.73846153846154,110.2763363633837L76.67692307692307,122.95792017664229L78.61538461538461,102.9918818133218L80.55384615384615,127.91540317875999L82.6,114.62197279930115L84.75384615384615,129.34699801036288L86.8,115.01898503303528L88.73846153846154,117.21161597115653L90.78461538461538,116.24435448646545L92.83076923076923,119.67474389076233L94.76923076923077,113.51791381835938L96.81538461538462,126.02786721502031L98.86153846153846,119.71467549460274L100.6923076923077,119.43384170532227L102.73846153846154,132.32673139231545L104.78461538461539,114.13292660031999L106.83076923076923,105.91844429288591L108.76923076923077,121.63551810809544L110.81538461538462,89.410950251988L112.86153846153846,118.04750602585929L114.90769230769232,122.60849363463265L116.73846153846154,119.57460113934108L118.67692307692309,116.42415128435408L120.72307692307693,105.11235213279724L122.76923076923077,124.39280853952681L124.60000000000001,131.4290311677115L124.70769230769231,123.16179779597691L124.70769230769231,130.4254150390625L124.81538461538462,129.75836961609977L124.92307692307693,107.630149943488L124.92307692307693,120.25553001676286L125.03076923076924,116.8591490132468L125.03076923076924,118.83149984904698L125.13846153846154,136.71071405070168L125.24615384615385,119.24391119820731L126.32307692307691,120.6892727783748L128.26153846153846,129.73179856368472L130.20000000000002,122.77671381405422L132.03076923076924,118.63964445250375L133.86153846153846,106.80653067997524L135.9076923076923,123.9613756452288L137.73846153846154,124.54067945480347L139.56923076923076,102.31060130255563L141.5076923076923,131.09657396589006L143.33846153846153,116.54498887062073L145.27692307692308,124.29252634729659L147.1076923076923,117.19436774935042L148.93846153846155,120.07045265606472L150.87692307692308,119.82308769226074L152.7076923076923,126.59531855583191L154.64615384615385,125.12813145773751L156.4769230769231,124.28509960855757L158.41538461538462,126.80492234230042L160.35384615384615,116.2952230998448L162.18461538461537,118.62409983362471L164.01538461538462,123.71274055753435L165.95384615384617,117.99522481645857L167.8923076923077,127.60775431564876L169.72307692307692,129.03015969480788L171.55384615384614,131.07011052540372L173.4923076923077,112.18869127546037L175.32307692307694,121.71801856585911L177.36923076923077,129.85833655084883L179.20000000000002,124.19025257655552L181.0307692307692,119.21246123313904L182.75384615384615,129.69896631581443L184.04615384615383,118.94078506742204L185.87692307692308,120.32500185285295L187.81538461538463,123.20635519708907L189.75384615384615,119.38505864143372L191.6923076923077,132.34066789490836L193.5230769230769,114.39563308443343L195.46153846153845,124.76766180992126L197.5076923076923,118.0286784853254L199.33846153846153,123.9394895008632L201.27692307692305,128.278560093471L203.2153846153846,124.10054969787598L205.15384615384613,129.2584136894771L206.98461538461538,117.6731195790427L208.92307692307693,111.62540800230843L210.75384615384615,115.76873704365322L212.69230769230768,122.78935442652022L214.41538461538462,129.989945939609L216.35384615384615,133.62160451071603L218.1846153846154,135.82694275038583L220.12307692307695,111.54108268874032L221.95384615384614,118.59605707441057L223.8923076923077,128.31033440998624L225.72307692307692,130.92433273792267L227.44615384615383,135.75969438893455L229.27692307692308,131.6717415366854L231.1076923076923,129.6637135573796L233.04615384615386,121.24827885627747L234.98461538461538,125.3602670601436L236.92307692307693,114.67174407414028L238.75384615384613,125.87749545914787L240.6923076923077,129.34039124420713L242.52307692307693,129.3833647796086L244.46153846153845,119.53278102193559L246.29230769230767,135.11267994131362L248.23076923076923,132.7255427156176L250.06153846153848,120.52989496503557L252,128.5192015852247L253.93846153846155,128.84782719612122" style="fill: none;" fill="none"></path></g></g></g></g></g></g><g transform="translate(50, 178)" clip-path="url(#clip_1)"><clipPath id="clip_1"><rect width="280" height="22"></rect></clipPath><g><g><line x1="0" y1="0" x2="0" y2="5" style="visibility: inherit;" fill="rgb(0, 0, 0)" stroke="rgb(204, 204, 204)" stroke-width="1px"></line><line x1="21.53846153846154" y1="0" x2="21.53846153846154" y2="5" style="visibility: inherit;" fill="rgb(0, 0, 0)" stroke="rgb(204, 204, 204)" stroke-width="1px"></line><line x1="43.07692307692308" y1="0" x2="43.07692307692308" y2="5" style="visibility: inherit;" fill="rgb(0, 0, 0)" stroke="rgb(204, 204, 204)" stroke-width="1px"></line><line x1="64.61538461538461" y1="0" x2="64.61538461538461" y2="5" style="visibility: inherit;" fill="rgb(0, 0, 0)" stroke="rgb(204, 204, 204)" stroke-width="1px"></line><line x1="86.15384615384616" y1="0" x2="86.15384615384616" y2="5" style="visibility: inherit;" fill="rgb(0, 0, 0)" stroke="rgb(204, 204, 204)" stroke-width="1px"></line><line x1="107.6923076923077" y1="0" x2="107.6923076923077" y2="5" style="visibility: inherit;" fill="rgb(0, 0, 0)" stroke="rgb(204, 204, 204)" stroke-width="1px"></line><line x1="129.23076923076923" y1="0" x2="129.23076923076923" y2="5" style="visibility: inherit;" fill="rgb(0, 0, 0)" stroke="rgb(204, 204, 204)" stroke-width="1px"></line><line x1="150.76923076923077" y1="0" x2="150.76923076923077" y2="5" style="visibility: inherit;" fill="rgb(0, 0, 0)" stroke="rgb(204, 204, 204)" stroke-width="1px"></line><line x1="172.30769230769232" y1="0" x2="172.30769230769232" y2="5" style="visibility: inherit;" fill="rgb(0, 0, 0)" stroke="rgb(204, 204, 204)" stroke-width="1px"></line><line x1="193.84615384615384" y1="0" x2="193.84615384615384" y2="5" style="visibility: inherit;" fill="rgb(0, 0, 0)" stroke="rgb(204, 204, 204)" stroke-width="1px"></line><line x1="215.3846153846154" y1="0" x2="215.3846153846154" y2="5" style="visibility: inherit;" fill="rgb(0, 0, 0)" stroke="rgb(204, 204, 204)" stroke-width="1px"></line><line x1="236.92307692307693" y1="0" x2="236.92307692307693" y2="5" style="visibility: inherit;" fill="rgb(0, 0, 0)" stroke="rgb(204, 204, 204)" stroke-width="1px"></line><line x1="258.46153846153845" y1="0" x2="258.46153846153845" y2="5" style="visibility: inherit;" fill="rgb(0, 0, 0)" stroke="rgb(204, 204, 204)" stroke-width="1px"></line><line x1="280" y1="0" x2="280" y2="5" style="visibility: inherit;" fill="rgb(0, 0, 0)" stroke="rgb(204, 204, 204)" stroke-width="1px"></line></g><g transform="translate(0, 8)"><text x="0" y="0" dx="0em" dy="0.95em" style="text-anchor: middle; visibility: hidden; font-family: &quot;Helvetica Neue&quot;, sans-serif; font-size: 12px; font-weight: 200;" fill="rgb(50, 49, 63)" stroke="none" stroke-width="1px">-200</text><text x="21.53846153846154" y="0" dx="0em" dy="0.95em" style="text-anchor: middle; visibility: inherit; font-family: &quot;Helvetica Neue&quot;, sans-serif; font-size: 12px; font-weight: 200;" fill="rgb(50, 49, 63)" stroke="none" stroke-width="1px">0</text><text x="43.07692307692308" y="0" dx="0em" dy="0.95em" style="text-anchor: middle; visibility: hidden; font-family: &quot;Helvetica Neue&quot;, sans-serif; font-size: 12px; font-weight: 200;" fill="rgb(50, 49, 63)" stroke="none" stroke-width="1px">200</text><text x="64.61538461538461" y="0" dx="0em" dy="0.95em" style="text-anchor: middle; visibility: inherit; font-family: &quot;Helvetica Neue&quot;, sans-serif; font-size: 12px; font-weight: 200;" fill="rgb(50, 49, 63)" stroke="none" stroke-width="1px">400</text><text x="86.15384615384616" y="0" dx="0em" dy="0.95em" style="text-anchor: middle; visibility: hidden; font-family: &quot;Helvetica Neue&quot;, sans-serif; font-size: 12px; font-weight: 200;" fill="rgb(50, 49, 63)" stroke="none" stroke-width="1px">600</text><text x="107.6923076923077" y="0" dx="0em" dy="0.95em" style="text-anchor: middle; visibility: inherit; font-family: &quot;Helvetica Neue&quot;, sans-serif; font-size: 12px; font-weight: 200;" fill="rgb(50, 49, 63)" stroke="none" stroke-width="1px">800</text><text x="129.23076923076923" y="0" dx="0em" dy="0.95em" style="text-anchor: middle; visibility: hidden; font-family: &quot;Helvetica Neue&quot;, sans-serif; font-size: 12px; font-weight: 200;" fill="rgb(50, 49, 63)" stroke="none" stroke-width="1px">1k</text><text x="150.76923076923077" y="0" dx="0em" dy="0.95em" style="text-anchor: middle; visibility: inherit; font-family: &quot;Helvetica Neue&quot;, sans-serif; font-size: 12px; font-weight: 200;" fill="rgb(50, 49, 63)" stroke="none" stroke-width="1px">1.2k</text><text x="172.30769230769232" y="0" dx="0em" dy="0.95em" style="text-anchor: middle; visibility: hidden; font-family: &quot;Helvetica Neue&quot;, sans-serif; font-size: 12px; font-weight: 200;" fill="rgb(50, 49, 63)" stroke="none" stroke-width="1px">1.4k</text><text x="193.84615384615384" y="0" dx="0em" dy="0.95em" style="text-anchor: middle; visibility: inherit; font-family: &quot;Helvetica Neue&quot;, sans-serif; font-size: 12px; font-weight: 200;" fill="rgb(50, 49, 63)" stroke="none" stroke-width="1px">1.6k</text><text x="215.3846153846154" y="0" dx="0em" dy="0.95em" style="text-anchor: middle; visibility: hidden; font-family: &quot;Helvetica Neue&quot;, sans-serif; font-size: 12px; font-weight: 200;" fill="rgb(50, 49, 63)" stroke="none" stroke-width="1px">1.8k</text><text x="236.92307692307693" y="0" dx="0em" dy="0.95em" style="text-anchor: middle; visibility: inherit; font-family: &quot;Helvetica Neue&quot;, sans-serif; font-size: 12px; font-weight: 200;" fill="rgb(50, 49, 63)" stroke="none" stroke-width="1px">2k</text><text x="258.46153846153845" y="0" dx="0em" dy="0.95em" style="text-anchor: middle; visibility: hidden; font-family: &quot;Helvetica Neue&quot;, sans-serif; font-size: 12px; font-weight: 200;" fill="rgb(50, 49, 63)" stroke="none" stroke-width="1px">2.2k</text><text x="280" y="0" dx="0em" dy="0.95em" style="text-anchor: middle; visibility: hidden; font-family: &quot;Helvetica Neue&quot;, sans-serif; font-size: 12px; font-weight: 200;" fill="rgb(50, 49, 63)" stroke="none" stroke-width="1px">2.4k</text></g><line x1="0" y1="0" x2="280" y2="0" fill="rgb(0, 0, 0)" stroke="rgb(204, 204, 204)" stroke-width="1px"></line></g></g></g></g></svg>