<svg viewBox="0 0 330 200" xmlns="http://www.w3.org/2000/svg"><g><g><g><g><g><line x1="50" y1="178" x2="45" y2="178" style="visibility: inherit;" fill="rgb(0, 0, 0)" stroke="rgb(204, 204, 204)" stroke-width="1px"></line><line x1="50" y1="158.22222222222223" x2="45" y2="158.22222222222223" style="visibility: inherit;" fill="rgb(0, 0, 0)" stroke="rgb(204, 204, 204)" stroke-width="1px"></line><line x1="50" y1="138.44444444444446" x2="45" y2="138.44444444444446" style="visibility: inherit;" fill="rgb(0, 0, 0)" stroke="rgb(204, 204, 204)" stroke-width="1px"></line><line x1="50" y1="118.66666666666666" x2="45" y2="118.66666666666666" style="visibility: inherit;" fill="rgb(0, 0, 0)" stroke="rgb(204, 204, 204)" stroke-width="1px"></line><line x1="50" y1="98.88888888888889" x2="45" y2="98.88888888888889" style="visibility: inherit;" fill="rgb(0, 0, 0)" stroke="rgb(204, 204, 204)" stroke-width="1px"></line><line x1="50" y1="79.1111111111111" x2="45" y2="79.1111111111111" style="visibility: inherit;" fill="rgb(0, 0, 0)" stroke="rgb(204, 204, 204)" stroke-width="1px"></line><line x1="50" y1="59.33333333333334" x2="45" y2="59.33333333333334" style="visibility: inherit;" fill="rgb(0, 0, 0)" stroke="rgb(204, 204, 204)" stroke-width="1px"></line><line x1="50" y1="39.55555555555557" x2="45" y2="39.55555555555557" style="visibility: inherit;" fill="rgb(0, 0, 0)" stroke="rgb(204, 204, 204)" stroke-width="1px"></line><line x1="50" y1="19.7777777777778" x2="45" y2="19.7777777777778" style="visibility: inherit;" fill="rgb(0, 0, 0)" stroke="rgb(204, 204, 204)" stroke-width="1px"></line><line x1="50" y1="0" x2="45" y2="0" style="visibility: inherit;" fill="rgb(0, 0, 0)" stroke="rgb(204, 204, 204)" stroke-width="1px"></line></g><g transform="translate(40, 0)"><text x="0" y="178" dx="0em" dy="0.3em" style="text-anchor: end; visibility: hidden; font-family: &quot;Helvetica Neue&quot;, sans-serif; font-size: 12px; font-weight: 200;" fill="rgb(50, 49, 63)" stroke="none" stroke-width="1px">-0.1</text><text x="0" y="158.22222222222223" dx="0em" dy="0.3em" style="text-anchor: end; visibility: inherit; font-family: &quot;Helvetica Neue&quot;, sans-serif; font-size: 12px; font-weight: 200;" fill="rgb(50, 49, 63)" stroke="none" stroke-width="1px">0</text><text x="0" y="138.44444444444446" dx="0em" dy="0.3em" style="text-anchor: end; visibility: hidden; font-family: &quot;Helvetica Neue&quot;, sans-serif; font-size: 12px; font-weight: 200;" fill="rgb(50, 49, 63)" stroke="none" stroke-width="1px">0.1</text><text x="0" y="118.66666666666666" dx="0em" dy="0.3em" style="text-anchor: end; visibility: inherit; font-family: &quot;Helvetica Neue&quot;, sans-serif; font-size: 12px; font-weight: 200;" fill="rgb(50, 49, 63)" stroke="none" stroke-width="1px">0.2</text><text x="0" y="98.88888888888889" dx="0em" dy="0.3em" style="text-anchor: end; visibility: hidden; font-family: &quot;Helvetica Neue&quot;, sans-serif; font-size: 12px; font-weight: 200;" fill="rgb(50, 49, 63)" stroke="none" stroke-width="1px">0.3</text><text x="0" y="79.1111111111111" dx="0em" dy="0.3em" style="text-anchor: end; visibility: inherit; font-family: &quot;Helvetica Neue&quot;, sans-serif; font-size: 12px; font-weight: 200;" fill="rgb(50, 49, 63)" stroke="none" stroke-width="1px">0.4</text><text x="0" y="59.33333333333334" dx="0em" dy="0.3em" style="text-anchor: end; visibility: hidden; font-family: &quot;Helvetica Neue&quot;, sans-serif; font-size: 12px; font-weight: 200;" fill="rgb(50, 49, 63)" stroke="none" stroke-width="1px">0.5</text><text x="0" y="39.55555555555557" dx="0em" dy="0.3em" style="text-anchor: end; visibility: inherit; font-family: &quot;Helvetica Neue&quot;, sans-serif; font-size: 12px; font-weight: 200;" fill="rgb(50, 49, 63)" stroke="none" stroke-width="1px">0.6</text><text x="0" y="19.7777777777778" dx="0em" dy="0.3em" style="text-anchor: end; visibility: hidden; font-family: &quot;Helvetica Neue&quot;, sans-serif; font-size: 12px; font-weight: 200;" fill="rgb(50, 49, 63)" stroke="none" stroke-width="1px">0.7</text><text x="0" y="0" dx="0em" dy="0.3em" style="text-anchor: end; visibility: hidden; font-family: &quot;Helvetica Neue&quot;, sans-serif; font-size: 12px; font-weight: 200;" fill="rgb(50, 49, 63)" stroke="none" stroke-width="1px">0.8</text></g><line x1="50" y1="0" x2="50" y2="178" fill="rgb(0, 0, 0)" stroke="rgb(204, 204, 204)" stroke-width="1px"></line></g></g><g transform="translate(50, 0)" clip-path="url(#clip_0)"><clipPath id="clip_0"><rect width="280" height="178"></rect></clipPath><g><g><g><line x1="0" y1="0" x2="0" y2="178" fill="rgb(0, 0, 0)" stroke="rgb(60, 60, 60)" stroke-width="1px" opacity="0.25"></line><line x1="21.53846153846154" y1="0" x2="21.53846153846154" y2="178" fill="rgb(0, 0, 0)" stroke="rgb(60, 60, 60)" stroke-width="1px" opacity="0.25"></line><line x1="43.07692307692308" y1="0" x2="43.07692307692308" y2="178" fill="rgb(0, 0, 0)" stroke="rgb(60, 60, 60)" stroke-width="1px" opacity="0.25"></line><line x1="64.61538461538461" y1="0" x2="64.61538461538461" y2="178" fill="rgb(0, 0, 0)" stroke="rgb(60, 60, 60)" stroke-width="1px" opacity="0.25"></line><line x1="86.15384615384616" y1="0" x2="86.15384615384616" y2="178" fill="rgb(0, 0, 0)" stroke="rgb(60, 60, 60)" stroke-width="1px" opacity="0.25"></line><line x1="107.6923076923077" y1="0" x2="107.6923076923077" y2="178" fill="rgb(0, 0, 0)" stroke="rgb(60, 60, 60)" stroke-width="1px" opacity="0.25"></line><line x1="129.23076923076923" y1="0" x2="129.23076923076923" y2="178" fill="rgb(0, 0, 0)" stroke="rgb(60, 60, 60)" stroke-width="1px" opacity="0.25"></line><line x1="150.76923076923077" y1="0" x2="150.76923076923077" y2="178" fill="rgb(0, 0, 0)" stroke="rgb(60, 60, 60)" stroke-width="1px" opacity="0.25"></line><line x1="172.30769230769232" y1="0" x2="172.30769230769232" y2="178" fill="rgb(0, 0, 0)" stroke="rgb(60, 60, 60)" stroke-width="1px" opacity="0.25"></line><line x1="193.84615384615384" y1="0" x2="193.84615384615384" y2="178" fill="rgb(0, 0, 0)" stroke="rgb(60, 60, 60)" stroke-width="1px" opacity="0.25"></line><line x1="215.3846153846154" y1="0" x2="215.3846153846154" y2="178" fill="rgb(0, 0, 0)" stroke="rgb(60, 60, 60)" stroke-width="1px" opacity="0.25"></line><line x1="236.92307692307693" y1="0" x2="236.92307692307693" y2="178" fill="rgb(0, 0, 0)" stroke="rgb(60, 60, 60)" stroke-width="1px" opacity="0.25"></line><line x1="258.46153846153845" y1="0" x2="258.46153846153845" y2="178" fill="rgb(0, 0, 0)" stroke="rgb(60, 60, 60)" stroke-width="1px" opacity="0.25"></line><line x1="280" y1="0" x2="280" y2="178" fill="rgb(0, 0, 0)" stroke="rgb(60, 60, 60)" stroke-width="1px" opacity="0.25"></line></g><g><line x1="0" y1="178" x2="280" y2="178" fill="rgb(0, 0, 0)" stroke="rgb(60, 60, 60)" stroke-width="1px" opacity="0.25"></line><line x1="0" y1="158.22222222222223" x2="280" y2="158.22222222222223" fill="rgb(0, 0, 0)" stroke="rgb(60, 60, 60)" stroke-width="1px" opacity="0.25"></line><line x1="0" y1="138.44444444444446" x2="280" y2="138.44444444444446" fill="rgb(0, 0, 0)" stroke="rgb(60, 60, 60)" stroke-width="1px" opacity="0.25"></line><line x1="0" y1="118.66666666666666" x2="280" y2="118.66666666666666" fill="rgb(0, 0, 0)" stroke="rgb(60, 60, 60)" stroke-width="1px" opacity="0.25"></line><line x1="0" y1="98.88888888888889" x2="280" y2="98.88888888888889" fill="rgb(0, 0, 0)" stroke="rgb(60, 60, 60)" stroke-width="1px" opacity="0.25"></line><line x1="0" y1="79.1111111111111" x2="280" y2="79.1111111111111" fill="rgb(0, 0, 0)" stroke="rgb(60, 60, 60)" stroke-width="1px" opacity="0.25"></line><line x1="0" y1="59.33333333333334" x2="280" y2="59.33333333333334" fill="rgb(0, 0, 0)" stroke="rgb(60, 60, 60)" stroke-width="1px" opacity="0.25"></line><line x1="0" y1="39.55555555555557" x2="280" y2="39.55555555555557" fill="rgb(0, 0, 0)" stroke="rgb(60, 60, 60)" stroke-width="1px" opacity="0.25"></line><line x1="0" y1="19.7777777777778" x2="280" y2="19.7777777777778" fill="rgb(0, 0, 0)" stroke="rgb(60, 60, 60)" stroke-width="1px" opacity="0.25"></line><line x1="0" y1="0" x2="280" y2="0" fill="rgb(0, 0, 0)" stroke="rgb(60, 60, 60)" stroke-width="1px" opacity="0.25"></line></g></g></g><g><g><line x1="0" y1="158.22222222222223" x2="280" y2="158.22222222222223" fill="rgb(0, 0, 0)" stroke="rgb(153, 153, 153)" stroke-width="1.5px"></line></g></g><g><g><line x1="21.53846153846154" y1="0" x2="21.53846153846154" y2="178" fill="rgb(0, 0, 0)" stroke="rgb(153, 153, 153)" stroke-width="1.5px"></line></g></g><g><g><g><g><g><path stroke="rgb(255, 112, 67)" stroke-width="2px" d="M29.723076923076924,-7.00506605785651L31.876923076923077,20.736109414707414L33.815384615384616,39.98123518369644L35.753846153846155,53.97030329113278L37.800000000000004,59.92612192359425L39.73846153846154,67.51087649230857L41.676923076923075,73.9169054785397L43.72307692307692,81.6206632469467L45.76923076923077,86.58759788826578L47.81538461538461,87.2608804835863L49.86153846153846,92.58392377580772L51.8,98.56783774346904L53.84615384615385,103.92835011777267L55.676923076923075,105.17306079728887L57.61538461538461,108.88546044014451L59.44615384615385,111.18850509373223L61.27692307692308,112.79857222527727L63,111.2222228013881L64.93846153846154,112.99646990697156L66.98461538461538,103.92023432991157L68.92307692307693,108.67668157572884L70.86153846153846,106.20677678075475L72.8,108.62480613077928L74.73846153846154,112.43108866485659L76.67692307692307,116.12108198447814L78.61538461538461,120.01530090002396L80.55384615384615,123.35576745700514L82.6,120.43136919229451L84.75384615384615,123.55921541722442L86.8,123.51530646109374L88.73846153846154,126.15785237304979L90.78461538461538,124.21810788222001L92.83076923076923,125.64505170877169L94.76923076923077,123.4770048030959L96.81538461538462,126.58390332178632L98.86153846153846,123.78101065716913L100.6923076923077,125.96764563207878L102.73846153846154,129.41320594070123L104.78461538461539,129.9703138617561L106.83076923076923,126.09498533119572L108.76923076923077,126.80429298643155L110.81538461538462,125.37692084154321L112.86153846153846,125.92727550556722L114.90769230769232,127.46461772870401L116.73846153846154,129.05450420598584L118.67692307692309,126.76575903636791L120.72307692307693,124.26123824254083L122.76923076923077,125.93862354216839L124.60000000000001,127.86818895760278L124.70769230769231,127.24468367496337L124.70769230769231,128.0492658605375L124.81538461538462,129.44677954988924L124.92307692307693,123.54243313455568L124.92307692307693,126.52756572529182L125.03076923076924,127.47027694866091L125.03076923076924,129.0097156321495L125.13846153846154,132.07434969673133L125.24615384615385,132.11713452369577L126.32307692307691,130.89125147469477L128.26153846153846,131.2197078478063L130.20000000000002,131.05210667211247L132.03076923076924,132.88782235000969L133.86153846153846,131.28210284116554L135.9076923076923,130.17156660324815L137.73846153846154,130.0767557600302L139.56923076923076,128.16518983481828L141.5076923076923,130.34526983977412L143.33846153846153,131.85599953146084L145.27692307692308,131.76723257184162L147.1076923076923,133.0507576890912L148.93846153846155,132.43373159572718L150.87692307692308,132.57682037335002L152.7076923076923,133.3935793579874L154.64615384615385,135.00223324035335L156.4769230769231,135.27524427338355L158.41538461538462,134.7083751388897L160.35384615384615,132.70242287513977L162.18461538461537,133.00121549325965L164.01538461538462,134.15397651608114L165.95384615384617,132.2182700435797L167.8923076923077,133.19514281438916L169.72307692307692,133.86700127568798L171.55384615384614,135.21364379970467L173.4923076923077,133.99583487429368L175.32307692307694,130.98197273176436L177.36923076923077,132.979307502345L179.20000000000002,132.00782318840783L181.0307692307692,132.77477683667541L182.75384615384615,134.63915933312225L184.04615384615383,134.54881028885669L185.87692307692308,135.51885607421877L187.81538461538463,134.4827792206664L189.75384615384615,131.43297191317652L191.6923076923077,133.32292286907057L193.5230769230769,134.16861963419015L195.46153846153845,133.39964449033323L197.5076923076923,129.81842672821932L199.33846153846153,132.1981340331352L201.27692307692305,133.11039215279433L203.2153846153846,132.22094485231162L205.15384615384613,134.61667845144214L206.98461538461538,134.28055173546414L208.92307692307693,130.34839852173087L210.75384615384615,129.55575269771873L212.69230769230768,129.0633916094087L214.41538461538462,131.71491070333227L216.35384615384615,132.35039894590471L218.1846153846154,135.16487517797412L220.12307692307695,135.47225985233598L221.95384615384614,135.66669478334447L223.8923076923077,136.19638276055858L225.72307692307692,136.98975445256445L227.44615384615383,138.07409987198363L229.27692307692308,138.1402706803999L231.1076923076923,139.41400418508883L233.04615384615386,139.73630515289005L234.98461538461538,135.42430918733152L236.92307692307693,132.8912514097891L238.75384615384613,134.31533706620087L240.6923076923077,133.49996294126026L242.52307692307693,134.88104500686507L244.46153846153845,134.25577258211314L246.29230769230767,136.16351426712765L248.23076923076923,136.3542565167788L250.06153846153848,136.7429923192285L252,136.84987395418244L253.93846153846155,138.43847900759184" style="fill: none;" fill="none"></path></g></g></g></g><g opacity="0.2"><g><g><g><path stroke="rgb(255, 112, 67)" stroke-width="2px" d="M23.369230769230768,-16.011190520392546L25.523076923076925,55.452909496095444L27.56923076923077,49.81286727057565L29.723076923076924,97.30616598659093L31.876923076923077,97.76466100745732L33.815384615384616,98.85431093639798L35.753846153846155,99.9647380510966L37.800000000000004,80.61178859074911L39.73846153846154,94.99257183074953L41.676923076923075,97.90657065974342L43.72307692307692,111.22878133588368L45.76923076923077,106.07338391409981L47.81538461538461,89.94573741488988L49.86153846153846,114.08926638629703L51.8,122.99679368072086L53.84615384615385,125.99637093808917L55.676923076923075,110.3318729599317L57.61538461538461,124.35545953777103L59.44615384615385,120.82758475674524L61.27692307692308,119.56108708514108L63,104.58245432376863L64.93846153846154,120.48701279030907L66.98461538461538,65.53075230121613L68.92307692307693,128.8251479400529L70.86153846153846,95.73144981596205L72.8,118.89021386040582L74.73846153846154,128.60300298531848L76.67692307692307,131.80902000268298L78.61538461538461,136.5801396899753L80.55384615384615,137.57111272215843L82.6,107.98234458764395L84.75384615384615,136.87799612018796L86.8,123.32829441626868L88.73846153846154,137.41472829712762L90.78461538461538,115.95385229587555L92.83076923076923,131.72525110509662L94.76923076923077,114.23807819022073L96.81538461538462,139.8246917559041L98.86153846153846,111.8350596163008L100.6923076923077,135.28757917549876L102.73846153846154,144.09957414865494L104.78461538461539,132.3450124528673L106.83076923076923,109.57576611969206L108.76923076923077,129.82789913150998L110.81538461538462,119.2922715610928L112.86153846153846,128.27337956428528L114.90769230769232,134.0182227989038L116.73846153846154,135.83216689692603L118.67692307692309,117.00879695680408L120.72307692307693,113.58435424831178L122.76923076923077,133.08942807383008L124.60000000000001,136.09408763713307L124.70769230769231,124.58661972814136L124.70769230769231,131.47928753826352L124.81538461538462,135.4045458899604L124.92307692307693,98.3714609278573L124.92307692307693,139.25357996755176L125.03076923076924,131.48918396234512L125.03076923076924,135.57255964477858L125.13846153846154,145.1393264134725L125.24615384615385,132.29953251944647L126.32307692307691,125.66512954897351L128.26153846153846,132.61996682484943L130.20000000000002,130.3375973900159L132.03076923076924,140.71375932296118L133.86153846153846,124.43667328357697L135.9076923076923,125.4371787707011L137.73846153846154,129.6725624071227L139.56923076923076,120.01588641934924L141.5076923076923,139.63929147521654L143.33846153846153,138.29647669527264L145.27692307692308,131.38880510462656L147.1076923076923,138.52262678411273L148.93846153846155,129.80325237909955L150.87692307692308,133.18683034181595L152.7076923076923,136.87555148535304L154.64615384615385,141.8601781229178L156.4769230769231,136.43913332952394L158.41538461538462,132.29172265529633L160.35384615384615,124.15073205365076L162.18461538461537,134.27501555283865L164.01538461538462,139.06837861736616L165.95384615384617,123.96604792277019L167.8923076923077,137.3597055938509L169.72307692307692,136.73123993145094L171.55384615384614,140.95459342996278L173.4923076923077,128.80412319633695L175.32307692307694,118.1334026588334L177.36923076923077,141.49426093697548L179.20000000000002,127.86623218986725L181.0307692307692,136.04442132181592L182.75384615384615,142.58731626139746L184.04615384615383,134.1636380487018L185.87692307692308,139.65431441201105L187.81538461538463,130.06582001182767L189.75384615384615,118.431161834134L191.6923076923077,141.38008219665952L193.5230769230769,137.7739584710863L195.46153846153845,130.12138203779858L197.5076923076923,114.5511299636629L199.33846153846153,142.34320201145277L201.27692307692305,136.9994925558567L203.2153846153846,128.42909057272806L205.15384615384613,144.8300690551599L206.98461538461538,132.84759047296313L208.92307692307693,113.58500850862927L210.75384615384615,126.17657839589648L212.69230769230768,126.96437854899301L214.41538461538462,143.01875526044103L216.35384615384615,135.0595856640074L218.1846153846154,147.16343174543647L220.12307692307695,136.78268925348917L221.95384615384614,136.4956015944481L223.8923076923077,138.45452624228267L225.72307692307692,140.37202324469885L227.44615384615383,142.69683560729027L229.27692307692308,138.4223672846953L231.1076923076923,144.84413123130798L233.04615384615386,141.1103250682354L234.98461538461538,117.04158954487907L236.92307692307693,122.09242614772586L238.75384615384613,140.38643907507262L240.6923076923077,130.02389430337482L242.52307692307693,140.7688159181012L244.46153846153845,131.59013750818042L246.29230769230767,144.29651829269199L248.23076923076923,137.167420844237L250.06153846153848,138.40023442440562L252,137.30552724003792L253.93846153846155,145.21095318264432" style="fill: none;" fill="none"></path></g></g></g></g></g></g><g transform="translate(50, 178)" clip-path="url(#clip_1)"><clipPath id="clip_1"><rect width="280" height="22"></rect></clipPath><g><g><line x1="0" y1="0" x2="0" y2="5" style="visibility: inherit;" fill="rgb(0, 0, 0)" stroke="rgb(204, 204, 204)" stroke-width="1px"></line><line x1="21.53846153846154" y1="0" x2="21.53846153846154" y2="5" style="visibility: inherit;" fill="rgb(0, 0, 0)" stroke="rgb(204, 204, 204)" stroke-width="1px"></line><line x1="43.07692307692308" y1="0" x2="43.07692307692308" y2="5" style="visibility: inherit;" fill="rgb(0, 0, 0)" stroke="rgb(204, 204, 204)" stroke-width="1px"></line><line x1="64.61538461538461" y1="0" x2="64.61538461538461" y2="5" style="visibility: inherit;" fill="rgb(0, 0, 0)" stroke="rgb(204, 204, 204)" stroke-width="1px"></line><line x1="86.15384615384616" y1="0" x2="86.15384615384616" y2="5" style="visibility: inherit;" fill="rgb(0, 0, 0)" stroke="rgb(204, 204, 204)" stroke-width="1px"></line><line x1="107.6923076923077" y1="0" x2="107.6923076923077" y2="5" style="visibility: inherit;" fill="rgb(0, 0, 0)" stroke="rgb(204, 204, 204)" stroke-width="1px"></line><line x1="129.23076923076923" y1="0" x2="129.23076923076923" y2="5" style="visibility: inherit;" fill="rgb(0, 0, 0)" stroke="rgb(204, 204, 204)" stroke-width="1px"></line><line x1="150.76923076923077" y1="0" x2="150.76923076923077" y2="5" style="visibility: inherit;" fill="rgb(0, 0, 0)" stroke="rgb(204, 204, 204)" stroke-width="1px"></line><line x1="172.30769230769232" y1="0" x2="172.30769230769232" y2="5" style="visibility: inherit;" fill="rgb(0, 0, 0)" stroke="rgb(204, 204, 204)" stroke-width="1px"></line><line x1="193.84615384615384" y1="0" x2="193.84615384615384" y2="5" style="visibility: inherit;" fill="rgb(0, 0, 0)" stroke="rgb(204, 204, 204)" stroke-width="1px"></line><line x1="215.3846153846154" y1="0" x2="215.3846153846154" y2="5" style="visibility: inherit;" fill="rgb(0, 0, 0)" stroke="rgb(204, 204, 204)" stroke-width="1px"></line><line x1="236.92307692307693" y1="0" x2="236.92307692307693" y2="5" style="visibility: inherit;" fill="rgb(0, 0, 0)" stroke="rgb(204, 204, 204)" stroke-width="1px"></line><line x1="258.46153846153845" y1="0" x2="258.46153846153845" y2="5" style="visibility: inherit;" fill="rgb(0, 0, 0)" stroke="rgb(204, 204, 204)" stroke-width="1px"></line><line x1="280" y1="0" x2="280" y2="5" style="visibility: inherit;" fill="rgb(0, 0, 0)" stroke="rgb(204, 204, 204)" stroke-width="1px"></line></g><g transform="translate(0, 8)"><text x="0" y="0" dx="0em" dy="0.95em" style="text-anchor: middle; visibility: hidden; font-family: &quot;Helvetica Neue&quot;, sans-serif; font-size: 12px; font-weight: 200;" fill="rgb(50, 49, 63)" stroke="none" stroke-width="1px">-200</text><text x="21.53846153846154" y="0" dx="0em" dy="0.95em" style="text-anchor: middle; visibility: inherit; font-family: &quot;Helvetica Neue&quot;, sans-serif; font-size: 12px; font-weight: 200;" fill="rgb(50, 49, 63)" stroke="none" stroke-width="1px">0</text><text x="43.07692307692308" y="0" dx="0em" dy="0.95em" style="text-anchor: middle; visibility: hidden; font-family: &quot;Helvetica Neue&quot;, sans-serif; font-size: 12px; font-weight: 200;" fill="rgb(50, 49, 63)" stroke="none" stroke-width="1px">200</text><text x="64.61538461538461" y="0" dx="0em" dy="0.95em" style="text-anchor: middle; visibility: inherit; font-family: &quot;Helvetica Neue&quot;, sans-serif; font-size: 12px; font-weight: 200;" fill="rgb(50, 49, 63)" stroke="none" stroke-width="1px">400</text><text x="86.15384615384616" y="0" dx="0em" dy="0.95em" style="text-anchor: middle; visibility: hidden; font-family: &quot;Helvetica Neue&quot;, sans-serif; font-size: 12px; font-weight: 200;" fill="rgb(50, 49, 63)" stroke="none" stroke-width="1px">600</text><text x="107.6923076923077" y="0" dx="0em" dy="0.95em" style="text-anchor: middle; visibility: inherit; font-family: &quot;Helvetica Neue&quot;, sans-serif; font-size: 12px; font-weight: 200;" fill="rgb(50, 49, 63)" stroke="none" stroke-width="1px">800</text><text x="129.23076923076923" y="0" dx="0em" dy="0.95em" style="text-anchor: middle; visibility: hidden; font-family: &quot;Helvetica Neue&quot;, sans-serif; font-size: 12px; font-weight: 200;" fill="rgb(50, 49, 63)" stroke="none" stroke-width="1px">1k</text><text x="150.76923076923077" y="0" dx="0em" dy="0.95em" style="text-anchor: middle; visibility: inherit; font-family: &quot;Helvetica Neue&quot;, sans-serif; font-size: 12px; font-weight: 200;" fill="rgb(50, 49, 63)" stroke="none" stroke-width="1px">1.2k</text><text x="172.30769230769232" y="0" dx="0em" dy="0.95em" style="text-anchor: middle; visibility: hidden; font-family: &quot;Helvetica Neue&quot;, sans-serif; font-size: 12px; font-weight: 200;" fill="rgb(50, 49, 63)" stroke="none" stroke-width="1px">1.4k</text><text x="193.84615384615384" y="0" dx="0em" dy="0.95em" style="text-anchor: middle; visibility: inherit; font-family: &quot;Helvetica Neue&quot;, sans-serif; font-size: 12px; font-weight: 200;" fill="rgb(50, 49, 63)" stroke="none" stroke-width="1px">1.6k</text><text x="215.3846153846154" y="0" dx="0em" dy="0.95em" style="text-anchor: middle; visibility: hidden; font-family: &quot;Helvetica Neue&quot;, sans-serif; font-size: 12px; font-weight: 200;" fill="rgb(50, 49, 63)" stroke="none" stroke-width="1px">1.8k</text><text x="236.92307692307693" y="0" dx="0em" dy="0.95em" style="text-anchor: middle; visibility: inherit; font-family: &quot;Helvetica Neue&quot;, sans-serif; font-size: 12px; font-weight: 200;" fill="rgb(50, 49, 63)" stroke="none" stroke-width="1px">2k</text><text x="258.46153846153845" y="0" dx="0em" dy="0.95em" style="text-anchor: middle; visibility: hidden; font-family: &quot;Helvetica Neue&quot;, sans-serif; font-size: 12px; font-weight: 200;" fill="rgb(50, 49, 63)" stroke="none" stroke-width="1px">2.2k</text><text x="280" y="0" dx="0em" dy="0.95em" style="text-anchor: middle; visibility: hidden; font-family: &quot;Helvetica Neue&quot;, sans-serif; font-size: 12px; font-weight: 200;" fill="rgb(50, 49, 63)" stroke="none" stroke-width="1px">2.4k</text></g><line x1="0" y1="0" x2="280" y2="0" fill="rgb(0, 0, 0)" stroke="rgb(204, 204, 204)" stroke-width="1px"></line></g></g></g></g></svg>