<svg viewBox="0 0 330 200" xmlns="http://www.w3.org/2000/svg"><g><g><g><g><g><line x1="50" y1="178" x2="45" y2="178" style="visibility: inherit;" fill="rgb(0, 0, 0)" stroke="rgb(204, 204, 204)" stroke-width="1px"></line><line x1="50" y1="163.16666666666666" x2="45" y2="163.16666666666666" style="visibility: inherit;" fill="rgb(0, 0, 0)" stroke="rgb(204, 204, 204)" stroke-width="1px"></line><line x1="50" y1="148.33333333333334" x2="45" y2="148.33333333333334" style="visibility: inherit;" fill="rgb(0, 0, 0)" stroke="rgb(204, 204, 204)" stroke-width="1px"></line><line x1="50" y1="133.5" x2="45" y2="133.5" style="visibility: inherit;" fill="rgb(0, 0, 0)" stroke="rgb(204, 204, 204)" stroke-width="1px"></line><line x1="50" y1="118.66666666666667" x2="45" y2="118.66666666666667" style="visibility: inherit;" fill="rgb(0, 0, 0)" stroke="rgb(204, 204, 204)" stroke-width="1px"></line><line x1="50" y1="103.83333333333333" x2="45" y2="103.83333333333333" style="visibility: inherit;" fill="rgb(0, 0, 0)" stroke="rgb(204, 204, 204)" stroke-width="1px"></line><line x1="50" y1="89" x2="45" y2="89" style="visibility: inherit;" fill="rgb(0, 0, 0)" stroke="rgb(204, 204, 204)" stroke-width="1px"></line><line x1="50" y1="74.16666666666666" x2="45" y2="74.16666666666666" style="visibility: inherit;" fill="rgb(0, 0, 0)" stroke="rgb(204, 204, 204)" stroke-width="1px"></line><line x1="50" y1="59.33333333333334" x2="45" y2="59.33333333333334" style="visibility: inherit;" fill="rgb(0, 0, 0)" stroke="rgb(204, 204, 204)" stroke-width="1px"></line><line x1="50" y1="44.5" x2="45" y2="44.5" style="visibility: inherit;" fill="rgb(0, 0, 0)" stroke="rgb(204, 204, 204)" stroke-width="1px"></line><line x1="50" y1="29.666666666666657" x2="45" y2="29.666666666666657" style="visibility: inherit;" fill="rgb(0, 0, 0)" stroke="rgb(204, 204, 204)" stroke-width="1px"></line><line x1="50" y1="14.833333333333343" x2="45" y2="14.833333333333343" style="visibility: inherit;" fill="rgb(0, 0, 0)" stroke="rgb(204, 204, 204)" stroke-width="1px"></line><line x1="50" y1="0" x2="45" y2="0" style="visibility: inherit;" fill="rgb(0, 0, 0)" stroke="rgb(204, 204, 204)" stroke-width="1px"></line></g><g transform="translate(40, 0)"><text x="0" y="178" dx="0em" dy="0.3em" style="text-anchor: end; visibility: hidden; font-family: &quot;Helvetica Neue&quot;, sans-serif; font-size: 12px; font-weight: 200;" fill="rgb(50, 49, 63)" stroke="none" stroke-width="1px">19</text><text x="0" y="163.16666666666666" dx="0em" dy="0.3em" style="text-anchor: end; visibility: inherit; font-family: &quot;Helvetica Neue&quot;, sans-serif; font-size: 12px; font-weight: 200;" fill="rgb(50, 49, 63)" stroke="none" stroke-width="1px">19.5</text><text x="0" y="148.33333333333334" dx="0em" dy="0.3em" style="text-anchor: end; visibility: hidden; font-family: &quot;Helvetica Neue&quot;, sans-serif; font-size: 12px; font-weight: 200;" fill="rgb(50, 49, 63)" stroke="none" stroke-width="1px">20</text><text x="0" y="133.5" dx="0em" dy="0.3em" style="text-anchor: end; visibility: inherit; font-family: &quot;Helvetica Neue&quot;, sans-serif; font-size: 12px; font-weight: 200;" fill="rgb(50, 49, 63)" stroke="none" stroke-width="1px">20.5</text><text x="0" y="118.66666666666667" dx="0em" dy="0.3em" style="text-anchor: end; visibility: hidden; font-family: &quot;Helvetica Neue&quot;, sans-serif; font-size: 12px; font-weight: 200;" fill="rgb(50, 49, 63)" stroke="none" stroke-width="1px">21</text><text x="0" y="103.83333333333333" dx="0em" dy="0.3em" style="text-anchor: end; visibility: inherit; font-family: &quot;Helvetica Neue&quot;, sans-serif; font-size: 12px; font-weight: 200;" fill="rgb(50, 49, 63)" stroke="none" stroke-width="1px">21.5</text><text x="0" y="89" dx="0em" dy="0.3em" style="text-anchor: end; visibility: hidden; font-family: &quot;Helvetica Neue&quot;, sans-serif; font-size: 12px; font-weight: 200;" fill="rgb(50, 49, 63)" stroke="none" stroke-width="1px">22</text><text x="0" y="74.16666666666666" dx="0em" dy="0.3em" style="text-anchor: end; visibility: inherit; font-family: &quot;Helvetica Neue&quot;, sans-serif; font-size: 12px; font-weight: 200;" fill="rgb(50, 49, 63)" stroke="none" stroke-width="1px">22.5</text><text x="0" y="59.33333333333334" dx="0em" dy="0.3em" style="text-anchor: end; visibility: hidden; font-family: &quot;Helvetica Neue&quot;, sans-serif; font-size: 12px; font-weight: 200;" fill="rgb(50, 49, 63)" stroke="none" stroke-width="1px">23</text><text x="0" y="44.5" dx="0em" dy="0.3em" style="text-anchor: end; visibility: inherit; font-family: &quot;Helvetica Neue&quot;, sans-serif; font-size: 12px; font-weight: 200;" fill="rgb(50, 49, 63)" stroke="none" stroke-width="1px">23.5</text><text x="0" y="29.666666666666657" dx="0em" dy="0.3em" style="text-anchor: end; visibility: hidden; font-family: &quot;Helvetica Neue&quot;, sans-serif; font-size: 12px; font-weight: 200;" fill="rgb(50, 49, 63)" stroke="none" stroke-width="1px">24</text><text x="0" y="14.833333333333343" dx="0em" dy="0.3em" style="text-anchor: end; visibility: inherit; font-family: &quot;Helvetica Neue&quot;, sans-serif; font-size: 12px; font-weight: 200;" fill="rgb(50, 49, 63)" stroke="none" stroke-width="1px">24.5</text><text x="0" y="0" dx="0em" dy="0.3em" style="text-anchor: end; visibility: hidden; font-family: &quot;Helvetica Neue&quot;, sans-serif; font-size: 12px; font-weight: 200;" fill="rgb(50, 49, 63)" stroke="none" stroke-width="1px">25</text></g><line x1="50" y1="0" x2="50" y2="178" fill="rgb(0, 0, 0)" stroke="rgb(204, 204, 204)" stroke-width="1px"></line></g></g><g transform="translate(50, 0)" clip-path="url(#clip_0)"><clipPath id="clip_0"><rect width="280" height="178"></rect></clipPath><g><g><g><line x1="0" y1="0" x2="0" y2="178" fill="rgb(0, 0, 0)" stroke="rgb(60, 60, 60)" stroke-width="1px" opacity="0.25"></line><line x1="21.53846153846154" y1="0" x2="21.53846153846154" y2="178" fill="rgb(0, 0, 0)" stroke="rgb(60, 60, 60)" stroke-width="1px" opacity="0.25"></line><line x1="43.07692307692308" y1="0" x2="43.07692307692308" y2="178" fill="rgb(0, 0, 0)" stroke="rgb(60, 60, 60)" stroke-width="1px" opacity="0.25"></line><line x1="64.61538461538461" y1="0" x2="64.61538461538461" y2="178" fill="rgb(0, 0, 0)" stroke="rgb(60, 60, 60)" stroke-width="1px" opacity="0.25"></line><line x1="86.15384615384616" y1="0" x2="86.15384615384616" y2="178" fill="rgb(0, 0, 0)" stroke="rgb(60, 60, 60)" stroke-width="1px" opacity="0.25"></line><line x1="107.6923076923077" y1="0" x2="107.6923076923077" y2="178" fill="rgb(0, 0, 0)" stroke="rgb(60, 60, 60)" stroke-width="1px" opacity="0.25"></line><line x1="129.23076923076923" y1="0" x2="129.23076923076923" y2="178" fill="rgb(0, 0, 0)" stroke="rgb(60, 60, 60)" stroke-width="1px" opacity="0.25"></line><line x1="150.76923076923077" y1="0" x2="150.76923076923077" y2="178" fill="rgb(0, 0, 0)" stroke="rgb(60, 60, 60)" stroke-width="1px" opacity="0.25"></line><line x1="172.30769230769232" y1="0" x2="172.30769230769232" y2="178" fill="rgb(0, 0, 0)" stroke="rgb(60, 60, 60)" stroke-width="1px" opacity="0.25"></line><line x1="193.84615384615384" y1="0" x2="193.84615384615384" y2="178" fill="rgb(0, 0, 0)" stroke="rgb(60, 60, 60)" stroke-width="1px" opacity="0.25"></line><line x1="215.3846153846154" y1="0" x2="215.3846153846154" y2="178" fill="rgb(0, 0, 0)" stroke="rgb(60, 60, 60)" stroke-width="1px" opacity="0.25"></line><line x1="236.92307692307693" y1="0" x2="236.92307692307693" y2="178" fill="rgb(0, 0, 0)" stroke="rgb(60, 60, 60)" stroke-width="1px" opacity="0.25"></line><line x1="258.46153846153845" y1="0" x2="258.46153846153845" y2="178" fill="rgb(0, 0, 0)" stroke="rgb(60, 60, 60)" stroke-width="1px" opacity="0.25"></line><line x1="280" y1="0" x2="280" y2="178" fill="rgb(0, 0, 0)" stroke="rgb(60, 60, 60)" stroke-width="1px" opacity="0.25"></line></g><g><line x1="0" y1="178" x2="280" y2="178" fill="rgb(0, 0, 0)" stroke="rgb(60, 60, 60)" stroke-width="1px" opacity="0.25"></line><line x1="0" y1="163.16666666666666" x2="280" y2="163.16666666666666" fill="rgb(0, 0, 0)" stroke="rgb(60, 60, 60)" stroke-width="1px" opacity="0.25"></line><line x1="0" y1="148.33333333333334" x2="280" y2="148.33333333333334" fill="rgb(0, 0, 0)" stroke="rgb(60, 60, 60)" stroke-width="1px" opacity="0.25"></line><line x1="0" y1="133.5" x2="280" y2="133.5" fill="rgb(0, 0, 0)" stroke="rgb(60, 60, 60)" stroke-width="1px" opacity="0.25"></line><line x1="0" y1="118.66666666666667" x2="280" y2="118.66666666666667" fill="rgb(0, 0, 0)" stroke="rgb(60, 60, 60)" stroke-width="1px" opacity="0.25"></line><line x1="0" y1="103.83333333333333" x2="280" y2="103.83333333333333" fill="rgb(0, 0, 0)" stroke="rgb(60, 60, 60)" stroke-width="1px" opacity="0.25"></line><line x1="0" y1="89" x2="280" y2="89" fill="rgb(0, 0, 0)" stroke="rgb(60, 60, 60)" stroke-width="1px" opacity="0.25"></line><line x1="0" y1="74.16666666666666" x2="280" y2="74.16666666666666" fill="rgb(0, 0, 0)" stroke="rgb(60, 60, 60)" stroke-width="1px" opacity="0.25"></line><line x1="0" y1="59.33333333333334" x2="280" y2="59.33333333333334" fill="rgb(0, 0, 0)" stroke="rgb(60, 60, 60)" stroke-width="1px" opacity="0.25"></line><line x1="0" y1="44.5" x2="280" y2="44.5" fill="rgb(0, 0, 0)" stroke="rgb(60, 60, 60)" stroke-width="1px" opacity="0.25"></line><line x1="0" y1="29.666666666666657" x2="280" y2="29.666666666666657" fill="rgb(0, 0, 0)" stroke="rgb(60, 60, 60)" stroke-width="1px" opacity="0.25"></line><line x1="0" y1="14.833333333333343" x2="280" y2="14.833333333333343" fill="rgb(0, 0, 0)" stroke="rgb(60, 60, 60)" stroke-width="1px" opacity="0.25"></line><line x1="0" y1="0" x2="280" y2="0" fill="rgb(0, 0, 0)" stroke="rgb(60, 60, 60)" stroke-width="1px" opacity="0.25"></line></g></g></g><g><g><line x1="0" y1="741.6666666666666" x2="280" y2="741.6666666666666" fill="rgb(0, 0, 0)" stroke="rgb(153, 153, 153)" stroke-width="1.5px"></line></g></g><g><g><line x1="21.53846153846154" y1="0" x2="21.53846153846154" y2="178" fill="rgb(0, 0, 0)" stroke="rgb(153, 153, 153)" stroke-width="1.5px"></line></g></g><g><g><g><g><g><path stroke="rgb(255, 112, 67)" stroke-width="2px" d="M21.53846153846154,129.79166666666669L23.369230769230768,162.5725138121546L25.523076923076925,95.14586965924609L27.56923076923077,93.09556587382782L29.723076923076924,98.39147913133212L31.876923076923077,93.94097863837911L33.815384615384616,70.79776856005266L35.753846153846155,79.36700624332708L37.800000000000004,92.29768370874301L39.73846153846154,81.9592063081585L41.676923076923075,92.8216599354566L43.72307692307692,88.20431901973254L45.76923076923077,85.35293480346019L47.81538461538461,70.47077276298126L49.86153846153846,77.8260409422245L51.8,80.02458418687552L53.84615384615385,86.12714266754057L55.676923076923075,94.61461131212486L57.61538461538461,110.75231605761945L59.44615384615385,126.58168133521049L61.27692307692308,115.78903003328134L63,106.38037162943195L64.93846153846154,98.08082334696982L66.98461538461538,82.16251706877514L68.92307692307693,71.42840093745109L70.86153846153846,64.16794556788453L72.8,42.03703596454824L74.73846153846154,66.52791119505964L76.67692307692307,68.68865173838324L78.61538461538461,90.20104924131246L80.55384615384615,95.61740047568425L82.6,114.81564613796354L84.75384615384615,124.01112176316416L86.8,101.13589673944622L88.73846153846154,122.09445854837409L90.78461538461538,129.90214071430137L92.83076923076923,127.76652269627846L94.76923076923077,107.71170533764256L96.81538461538462,111.20325640358327L98.86153846153846,112.6216142285865L100.6923076923077,125.04570614644888L102.73846153846154,103.39766892472684L104.78461538461539,93.6151426827L106.83076923076923,80.75913984928037L108.76923076923077,67.52764533775449L110.81538461538462,90.63256838171012L112.86153846153846,86.09465358439407L114.90769230769232,88.05591546929321L116.73846153846154,88.23529741239325L118.67692307692309,74.28855379235135L120.72307692307693,82.72057665119257L122.76923076923077,60.662032674680276L124.60000000000001,72.3876619833214L124.70769230769231,74.13485951695044L124.70769230769231,95.27859869575045L124.81538461538462,91.97189013754428L124.92307692307693,78.02006290124905L124.92307692307693,91.37965003764086L125.03076923076924,90.22292858562722L125.03076923076924,82.24012970926984L125.13846153846154,63.796123487385984L125.24615384615385,65.76653086616771L126.32307692307691,50.45253038708343L128.26153846153846,73.27741467538915L130.20000000000002,86.12888702408443L132.03076923076924,91.60648681860141L133.86153846153846,53.063725849683166L135.9076923076923,69.05121083826073L137.73846153846154,63.68189484319059L139.56923076923076,62.85566783194025L141.5076923076923,79.09642944187668L143.33846153846153,80.27352481778952L145.27692307692308,82.6361389286885L147.1076923076923,81.73152237935597L148.93846153846155,99.31795220137737L150.87692307692308,112.15379270638054L152.7076923076923,92.95832036813655L154.64615384615385,89.38790590511051L156.4769230769231,82.97295340512377L158.41538461538462,103.14184322083365L160.35384615384615,89.88614249638067L162.18461538461537,91.12694212759244L164.01538461538462,101.2915733811886L165.95384615384617,102.47909112982902L167.8923076923077,110.48681394843241L169.72307692307692,100.06306915771111L171.55384615384614,91.61983592555148L173.4923076923077,91.12206709529411L175.32307692307694,104.10595777354055L177.36923076923077,115.32749252835298L179.20000000000002,104.68860223129185L181.0307692307692,96.77568444388594L182.75384615384615,86.84330436891665L184.04615384615383,75.27515984325862L185.87692307692308,76.47371280879801L187.81538461538463,88.71787406186036L189.75384615384615,111.31814468677628L191.6923076923077,102.1456138530922L193.5230769230769,103.17086388856443L195.46153846153845,108.22881641997223L197.5076923076923,91.18825795710617L199.33846153846153,94.29540561336088L201.27692307692305,91.88011187925004L203.2153846153846,107.53830729361465L205.15384615384613,106.8343622409881L206.98461538461538,109.08250008231494L208.92307692307693,93.99349173090638L210.75384615384615,82.47597830052851L212.69230769230768,110.48970909306118L214.41538461538462,133.88541436738626L216.35384615384615,114.78843563625611L218.1846153846154,118.34363286556744L220.12307692307695,122.63250928797187L221.95384615384614,123.28816585661477L223.8923076923077,118.18258101037182L225.72307692307692,118.97914061842053L227.44615384615383,126.67018723440486L229.27692307692308,122.33118499313234L231.1076923076923,115.29367651101313L233.04615384615386,85.63746130694469L234.98461538461538,86.98092699196994L236.92307692307693,57.772050863295746L238.75384615384613,55.25036119925555L240.6923076923077,63.77654257143533L242.52307692307693,61.523166149521046L244.46153846153845,79.42626458116477L246.29230769230767,88.99569097743301L248.23076923076923,79.83692635836971L250.06153846153848,70.3045770169312L252,61.87879071703698L253.93846153846155,67.03182048080528" style="fill: none;" fill="none"></path></g></g></g></g><g opacity="0.2"><g><g><g><path stroke="rgb(255, 112, 67)" stroke-width="2px" d="M21.53846153846154,129.79166666666669L23.369230769230768,189.125L25.523076923076925,-3.7083333333333144L27.56923076923077,89L29.723076923076924,111.25L31.876923076923077,81.58333333333334L33.815384615384616,0L35.753846153846155,107.54166666666667L37.800000000000004,137.20833333333334L39.73846153846154,44.5L41.676923076923075,133.5L43.72307692307692,70.45833333333334L45.76923076923077,74.16666666666666L47.81538461538461,11.125L49.86153846153846,107.54166666666667L51.8,89L53.84615384615385,111.25L55.676923076923075,129.79166666666669L57.61538461538461,178L59.44615384615385,192.83333333333334L61.27692307692308,70.45833333333334L63,66.75L64.93846153846154,63.04166666666666L66.98461538461538,14.833333333333343L68.92307692307693,25.958333333333343L70.86153846153846,33.375L72.8,-51.916666666666686L74.73846153846154,170.58333333333334L76.67692307692307,77.875L78.61538461538461,181.70833333333334L80.55384615384615,118.66666666666667L82.6,196.54166666666666L84.75384615384615,163.16666666666666L86.8,3.708333333333343L88.73846153846154,211.375L90.78461538461538,163.16666666666666L92.83076923076923,118.66666666666667L94.76923076923077,22.25L96.81538461538462,126.08333333333333L98.86153846153846,118.66666666666667L100.6923076923077,178L102.73846153846154,11.125L104.78461538461539,51.91666666666666L106.83076923076923,25.958333333333343L108.76923076923077,11.125L110.81538461538462,189.125L112.86153846153846,66.75L114.90769230769232,96.41666666666667L116.73846153846154,89L118.67692307692309,14.833333333333343L120.72307692307693,118.66666666666667L122.76923076923077,-33.375L124.60000000000001,122.375L124.70769230769231,81.58333333333334L124.70769230769231,185.41666666666666L124.81538461538462,77.875L124.92307692307693,18.541666666666657L124.92307692307693,148.33333333333334L125.03076923076924,85.29166666666666L125.03076923076924,48.20833333333334L125.13846153846154,-14.833333333333314L125.24615384615385,74.16666666666666L126.32307692307691,-14.833333333333314L128.26153846153846,170.58333333333334L130.20000000000002,140.91666666666666L132.03076923076924,114.95833333333333L133.86153846153846,-111.25L135.9076923076923,137.20833333333334L137.73846153846154,40.79166666666666L139.56923076923076,59.33333333333334L141.5076923076923,148.33333333333334L143.33846153846153,85.29166666666666L145.27692307692308,92.70833333333333L147.1076923076923,77.875L148.93846153846155,174.29166666666666L150.87692307692308,166.875L152.7076923076923,11.125L154.64615384615385,74.16666666666666L156.4769230769231,55.625L158.41538461538462,189.125L160.35384615384615,33.375L162.18461538461537,96.41666666666667L164.01538461538462,144.625L165.95384615384617,107.54166666666667L167.8923076923077,144.625L169.72307692307692,55.625L171.55384615384614,55.625L173.4923076923077,89L175.32307692307694,159.45833333333334L177.36923076923077,163.16666666666666L179.20000000000002,59.33333333333334L181.0307692307692,63.04166666666666L182.75384615384615,44.5L184.04615384615383,25.958333333333343L185.87692307692308,81.58333333333334L187.81538461538463,140.91666666666666L189.75384615384615,207.66666666666666L191.6923076923077,63.04166666666666L193.5230769230769,107.54166666666667L195.46153846153845,129.79166666666669L197.5076923076923,18.541666666666657L199.33846153846153,107.54166666666667L201.27692307692305,81.58333333333334L203.2153846153846,174.29166666666666L205.15384615384613,103.83333333333333L206.98461538461538,118.66666666666667L208.92307692307693,29.666666666666657L210.75384615384615,33.375L212.69230769230768,229.91666666666669L214.41538461538462,233.625L216.35384615384615,33.375L218.1846153846154,133.5L220.12307692307695,140.91666666666666L221.95384615384614,126.08333333333333L223.8923076923077,96.41666666666667L225.72307692307692,122.375L227.44615384615383,159.45833333333334L229.27692307692308,103.83333333333333L231.1076923076923,85.29166666666666L233.04615384615386,-40.791666666666686L234.98461538461538,92.70833333333333L236.92307692307693,-66.75L238.75384615384613,44.5L240.6923076923077,100.125L242.52307692307693,51.91666666666666L244.46153846153845,155.75L246.29230769230767,129.79166666666669L248.23076923076923,40.79166666666666L250.06153846153848,29.666666666666657L252,25.958333333333343L253.93846153846155,89" style="fill: none;" fill="none"></path></g></g></g></g></g></g><g transform="translate(50, 178)" clip-path="url(#clip_1)"><clipPath id="clip_1"><rect width="280" height="22"></rect></clipPath><g><g><line x1="0" y1="0" x2="0" y2="5" style="visibility: inherit;" fill="rgb(0, 0, 0)" stroke="rgb(204, 204, 204)" stroke-width="1px"></line><line x1="21.53846153846154" y1="0" x2="21.53846153846154" y2="5" style="visibility: inherit;" fill="rgb(0, 0, 0)" stroke="rgb(204, 204, 204)" stroke-width="1px"></line><line x1="43.07692307692308" y1="0" x2="43.07692307692308" y2="5" style="visibility: inherit;" fill="rgb(0, 0, 0)" stroke="rgb(204, 204, 204)" stroke-width="1px"></line><line x1="64.61538461538461" y1="0" x2="64.61538461538461" y2="5" style="visibility: inherit;" fill="rgb(0, 0, 0)" stroke="rgb(204, 204, 204)" stroke-width="1px"></line><line x1="86.15384615384616" y1="0" x2="86.15384615384616" y2="5" style="visibility: inherit;" fill="rgb(0, 0, 0)" stroke="rgb(204, 204, 204)" stroke-width="1px"></line><line x1="107.6923076923077" y1="0" x2="107.6923076923077" y2="5" style="visibility: inherit;" fill="rgb(0, 0, 0)" stroke="rgb(204, 204, 204)" stroke-width="1px"></line><line x1="129.23076923076923" y1="0" x2="129.23076923076923" y2="5" style="visibility: inherit;" fill="rgb(0, 0, 0)" stroke="rgb(204, 204, 204)" stroke-width="1px"></line><line x1="150.76923076923077" y1="0" x2="150.76923076923077" y2="5" style="visibility: inherit;" fill="rgb(0, 0, 0)" stroke="rgb(204, 204, 204)" stroke-width="1px"></line><line x1="172.30769230769232" y1="0" x2="172.30769230769232" y2="5" style="visibility: inherit;" fill="rgb(0, 0, 0)" stroke="rgb(204, 204, 204)" stroke-width="1px"></line><line x1="193.84615384615384" y1="0" x2="193.84615384615384" y2="5" style="visibility: inherit;" fill="rgb(0, 0, 0)" stroke="rgb(204, 204, 204)" stroke-width="1px"></line><line x1="215.3846153846154" y1="0" x2="215.3846153846154" y2="5" style="visibility: inherit;" fill="rgb(0, 0, 0)" stroke="rgb(204, 204, 204)" stroke-width="1px"></line><line x1="236.92307692307693" y1="0" x2="236.92307692307693" y2="5" style="visibility: inherit;" fill="rgb(0, 0, 0)" stroke="rgb(204, 204, 204)" stroke-width="1px"></line><line x1="258.46153846153845" y1="0" x2="258.46153846153845" y2="5" style="visibility: inherit;" fill="rgb(0, 0, 0)" stroke="rgb(204, 204, 204)" stroke-width="1px"></line><line x1="280" y1="0" x2="280" y2="5" style="visibility: inherit;" fill="rgb(0, 0, 0)" stroke="rgb(204, 204, 204)" stroke-width="1px"></line></g><g transform="translate(0, 8)"><text x="0" y="0" dx="0em" dy="0.95em" style="text-anchor: middle; visibility: hidden; font-family: &quot;Helvetica Neue&quot;, sans-serif; font-size: 12px; font-weight: 200;" fill="rgb(50, 49, 63)" stroke="none" stroke-width="1px">-200</text><text x="21.53846153846154" y="0" dx="0em" dy="0.95em" style="text-anchor: middle; visibility: inherit; font-family: &quot;Helvetica Neue&quot;, sans-serif; font-size: 12px; font-weight: 200;" fill="rgb(50, 49, 63)" stroke="none" stroke-width="1px">0</text><text x="43.07692307692308" y="0" dx="0em" dy="0.95em" style="text-anchor: middle; visibility: hidden; font-family: &quot;Helvetica Neue&quot;, sans-serif; font-size: 12px; font-weight: 200;" fill="rgb(50, 49, 63)" stroke="none" stroke-width="1px">200</text><text x="64.61538461538461" y="0" dx="0em" dy="0.95em" style="text-anchor: middle; visibility: inherit; font-family: &quot;Helvetica Neue&quot;, sans-serif; font-size: 12px; font-weight: 200;" fill="rgb(50, 49, 63)" stroke="none" stroke-width="1px">400</text><text x="86.15384615384616" y="0" dx="0em" dy="0.95em" style="text-anchor: middle; visibility: hidden; font-family: &quot;Helvetica Neue&quot;, sans-serif; font-size: 12px; font-weight: 200;" fill="rgb(50, 49, 63)" stroke="none" stroke-width="1px">600</text><text x="107.6923076923077" y="0" dx="0em" dy="0.95em" style="text-anchor: middle; visibility: inherit; font-family: &quot;Helvetica Neue&quot;, sans-serif; font-size: 12px; font-weight: 200;" fill="rgb(50, 49, 63)" stroke="none" stroke-width="1px">800</text><text x="129.23076923076923" y="0" dx="0em" dy="0.95em" style="text-anchor: middle; visibility: hidden; font-family: &quot;Helvetica Neue&quot;, sans-serif; font-size: 12px; font-weight: 200;" fill="rgb(50, 49, 63)" stroke="none" stroke-width="1px">1k</text><text x="150.76923076923077" y="0" dx="0em" dy="0.95em" style="text-anchor: middle; visibility: inherit; font-family: &quot;Helvetica Neue&quot;, sans-serif; font-size: 12px; font-weight: 200;" fill="rgb(50, 49, 63)" stroke="none" stroke-width="1px">1.2k</text><text x="172.30769230769232" y="0" dx="0em" dy="0.95em" style="text-anchor: middle; visibility: hidden; font-family: &quot;Helvetica Neue&quot;, sans-serif; font-size: 12px; font-weight: 200;" fill="rgb(50, 49, 63)" stroke="none" stroke-width="1px">1.4k</text><text x="193.84615384615384" y="0" dx="0em" dy="0.95em" style="text-anchor: middle; visibility: inherit; font-family: &quot;Helvetica Neue&quot;, sans-serif; font-size: 12px; font-weight: 200;" fill="rgb(50, 49, 63)" stroke="none" stroke-width="1px">1.6k</text><text x="215.3846153846154" y="0" dx="0em" dy="0.95em" style="text-anchor: middle; visibility: hidden; font-family: &quot;Helvetica Neue&quot;, sans-serif; font-size: 12px; font-weight: 200;" fill="rgb(50, 49, 63)" stroke="none" stroke-width="1px">1.8k</text><text x="236.92307692307693" y="0" dx="0em" dy="0.95em" style="text-anchor: middle; visibility: inherit; font-family: &quot;Helvetica Neue&quot;, sans-serif; font-size: 12px; font-weight: 200;" fill="rgb(50, 49, 63)" stroke="none" stroke-width="1px">2k</text><text x="258.46153846153845" y="0" dx="0em" dy="0.95em" style="text-anchor: middle; visibility: hidden; font-family: &quot;Helvetica Neue&quot;, sans-serif; font-size: 12px; font-weight: 200;" fill="rgb(50, 49, 63)" stroke="none" stroke-width="1px">2.2k</text><text x="280" y="0" dx="0em" dy="0.95em" style="text-anchor: middle; visibility: hidden; font-family: &quot;Helvetica Neue&quot;, sans-serif; font-size: 12px; font-weight: 200;" fill="rgb(50, 49, 63)" stroke="none" stroke-width="1px">2.4k</text></g><line x1="0" y1="0" x2="280" y2="0" fill="rgb(0, 0, 0)" stroke="rgb(204, 204, 204)" stroke-width="1px"></line></g></g></g></g></svg>