<svg viewBox="0 0 1112.2000732421875 400" xmlns="http://www.w3.org/2000/svg"><g><g><g><g><g><line x1="30" y1="378" x2="25" y2="378" style="visibility: inherit;" fill="rgb(0, 0, 0)" stroke="rgb(204, 204, 204)" stroke-width="1px"></line><line x1="30" y1="330.75" x2="25" y2="330.75" style="visibility: inherit;" fill="rgb(0, 0, 0)" stroke="rgb(204, 204, 204)" stroke-width="1px"></line><line x1="30" y1="283.5" x2="25" y2="283.5" style="visibility: inherit;" fill="rgb(0, 0, 0)" stroke="rgb(204, 204, 204)" stroke-width="1px"></line><line x1="30" y1="236.25" x2="25" y2="236.25" style="visibility: inherit;" fill="rgb(0, 0, 0)" stroke="rgb(204, 204, 204)" stroke-width="1px"></line><line x1="30" y1="189" x2="25" y2="189" style="visibility: inherit;" fill="rgb(0, 0, 0)" stroke="rgb(204, 204, 204)" stroke-width="1px"></line><line x1="30" y1="141.75" x2="25" y2="141.75" style="visibility: inherit;" fill="rgb(0, 0, 0)" stroke="rgb(204, 204, 204)" stroke-width="1px"></line><line x1="30" y1="94.5" x2="25" y2="94.5" style="visibility: inherit;" fill="rgb(0, 0, 0)" stroke="rgb(204, 204, 204)" stroke-width="1px"></line><line x1="30" y1="47.25" x2="25" y2="47.25" style="visibility: inherit;" fill="rgb(0, 0, 0)" stroke="rgb(204, 204, 204)" stroke-width="1px"></line><line x1="30" y1="0" x2="25" y2="0" style="visibility: inherit;" fill="rgb(0, 0, 0)" stroke="rgb(204, 204, 204)" stroke-width="1px"></line></g><g transform="translate(20, 0)"><text x="0" y="378" dx="0em" dy="0.3em" style="text-anchor: end; visibility: hidden; font-family: &quot;Helvetica Neue&quot;, sans-serif; font-size: 12px; font-weight: 200;" fill="rgb(50, 49, 63)" stroke="none" stroke-width="1px">-1</text><text x="0" y="330.75" dx="0em" dy="0.3em" style="text-anchor: end; visibility: inherit; font-family: &quot;Helvetica Neue&quot;, sans-serif; font-size: 12px; font-weight: 200;" fill="rgb(50, 49, 63)" stroke="none" stroke-width="1px">0</text><text x="0" y="283.5" dx="0em" dy="0.3em" style="text-anchor: end; visibility: inherit; font-family: &quot;Helvetica Neue&quot;, sans-serif; font-size: 12px; font-weight: 200;" fill="rgb(50, 49, 63)" stroke="none" stroke-width="1px">1</text><text x="0" y="236.25" dx="0em" dy="0.3em" style="text-anchor: end; visibility: inherit; font-family: &quot;Helvetica Neue&quot;, sans-serif; font-size: 12px; font-weight: 200;" fill="rgb(50, 49, 63)" stroke="none" stroke-width="1px">2</text><text x="0" y="189" dx="0em" dy="0.3em" style="text-anchor: end; visibility: inherit; font-family: &quot;Helvetica Neue&quot;, sans-serif; font-size: 12px; font-weight: 200;" fill="rgb(50, 49, 63)" stroke="none" stroke-width="1px">3</text><text x="0" y="141.75" dx="0em" dy="0.3em" style="text-anchor: end; visibility: inherit; font-family: &quot;Helvetica Neue&quot;, sans-serif; font-size: 12px; font-weight: 200;" fill="rgb(50, 49, 63)" stroke="none" stroke-width="1px">4</text><text x="0" y="94.5" dx="0em" dy="0.3em" style="text-anchor: end; visibility: inherit; font-family: &quot;Helvetica Neue&quot;, sans-serif; font-size: 12px; font-weight: 200;" fill="rgb(50, 49, 63)" stroke="none" stroke-width="1px">5</text><text x="0" y="47.25" dx="0em" dy="0.3em" style="text-anchor: end; visibility: inherit; font-family: &quot;Helvetica Neue&quot;, sans-serif; font-size: 12px; font-weight: 200;" fill="rgb(50, 49, 63)" stroke="none" stroke-width="1px">6</text><text x="0" y="0" dx="0em" dy="0.3em" style="text-anchor: end; visibility: hidden; font-family: &quot;Helvetica Neue&quot;, sans-serif; font-size: 12px; font-weight: 200;" fill="rgb(50, 49, 63)" stroke="none" stroke-width="1px">7</text></g><line x1="30" y1="0" x2="30" y2="378" fill="rgb(0, 0, 0)" stroke="rgb(204, 204, 204)" stroke-width="1px"></line></g></g><g transform="translate(30, 0)" clip-path="url(#clip_0)"><clipPath id="clip_0"><rect width="1082" height="378"></rect></clipPath><g><g><g><line x1="0" y1="0" x2="0" y2="378" fill="rgb(0, 0, 0)" stroke="rgb(60, 60, 60)" stroke-width="1px" opacity="0.25"></line><line x1="90.18333333333334" y1="0" x2="90.18333333333334" y2="378" fill="rgb(0, 0, 0)" stroke="rgb(60, 60, 60)" stroke-width="1px" opacity="0.25"></line><line x1="180.36666666666667" y1="0" x2="180.36666666666667" y2="378" fill="rgb(0, 0, 0)" stroke="rgb(60, 60, 60)" stroke-width="1px" opacity="0.25"></line><line x1="270.55" y1="0" x2="270.55" y2="378" fill="rgb(0, 0, 0)" stroke="rgb(60, 60, 60)" stroke-width="1px" opacity="0.25"></line><line x1="360.73333333333335" y1="0" x2="360.73333333333335" y2="378" fill="rgb(0, 0, 0)" stroke="rgb(60, 60, 60)" stroke-width="1px" opacity="0.25"></line><line x1="450.9166666666667" y1="0" x2="450.9166666666667" y2="378" fill="rgb(0, 0, 0)" stroke="rgb(60, 60, 60)" stroke-width="1px" opacity="0.25"></line><line x1="541.1" y1="0" x2="541.1" y2="378" fill="rgb(0, 0, 0)" stroke="rgb(60, 60, 60)" stroke-width="1px" opacity="0.25"></line><line x1="631.2833333333334" y1="0" x2="631.2833333333334" y2="378" fill="rgb(0, 0, 0)" stroke="rgb(60, 60, 60)" stroke-width="1px" opacity="0.25"></line><line x1="721.4666666666667" y1="0" x2="721.4666666666667" y2="378" fill="rgb(0, 0, 0)" stroke="rgb(60, 60, 60)" stroke-width="1px" opacity="0.25"></line><line x1="811.6500000000001" y1="0" x2="811.6500000000001" y2="378" fill="rgb(0, 0, 0)" stroke="rgb(60, 60, 60)" stroke-width="1px" opacity="0.25"></line><line x1="901.8333333333334" y1="0" x2="901.8333333333334" y2="378" fill="rgb(0, 0, 0)" stroke="rgb(60, 60, 60)" stroke-width="1px" opacity="0.25"></line><line x1="992.0166666666667" y1="0" x2="992.0166666666667" y2="378" fill="rgb(0, 0, 0)" stroke="rgb(60, 60, 60)" stroke-width="1px" opacity="0.25"></line><line x1="1082.2" y1="0" x2="1082.2" y2="378" fill="rgb(0, 0, 0)" stroke="rgb(60, 60, 60)" stroke-width="1px" opacity="0.25"></line></g><g><line x1="0" y1="378" x2="1082.2" y2="378" fill="rgb(0, 0, 0)" stroke="rgb(60, 60, 60)" stroke-width="1px" opacity="0.25"></line><line x1="0" y1="330.75" x2="1082.2" y2="330.75" fill="rgb(0, 0, 0)" stroke="rgb(60, 60, 60)" stroke-width="1px" opacity="0.25"></line><line x1="0" y1="283.5" x2="1082.2" y2="283.5" fill="rgb(0, 0, 0)" stroke="rgb(60, 60, 60)" stroke-width="1px" opacity="0.25"></line><line x1="0" y1="236.25" x2="1082.2" y2="236.25" fill="rgb(0, 0, 0)" stroke="rgb(60, 60, 60)" stroke-width="1px" opacity="0.25"></line><line x1="0" y1="189" x2="1082.2" y2="189" fill="rgb(0, 0, 0)" stroke="rgb(60, 60, 60)" stroke-width="1px" opacity="0.25"></line><line x1="0" y1="141.75" x2="1082.2" y2="141.75" fill="rgb(0, 0, 0)" stroke="rgb(60, 60, 60)" stroke-width="1px" opacity="0.25"></line><line x1="0" y1="94.5" x2="1082.2" y2="94.5" fill="rgb(0, 0, 0)" stroke="rgb(60, 60, 60)" stroke-width="1px" opacity="0.25"></line><line x1="0" y1="47.25" x2="1082.2" y2="47.25" fill="rgb(0, 0, 0)" stroke="rgb(60, 60, 60)" stroke-width="1px" opacity="0.25"></line><line x1="0" y1="0" x2="1082.2" y2="0" fill="rgb(0, 0, 0)" stroke="rgb(60, 60, 60)" stroke-width="1px" opacity="0.25"></line></g></g></g><g><g><line x1="0" y1="330.75" x2="1082.2" y2="330.75" fill="rgb(0, 0, 0)" stroke="rgb(153, 153, 153)" stroke-width="1.5px"></line></g></g><g><g><line x1="90.18333333333334" y1="0" x2="90.18333333333334" y2="378" fill="rgb(0, 0, 0)" stroke="rgb(153, 153, 153)" stroke-width="1.5px"></line></g></g><g><g><g><g><g><path stroke="rgb(255, 112, 67)" stroke-width="2px" d="M115.43466666666667,-52.92166923210624L124.45300000000002,4.280214120277776L133.47133333333335,49.64298654892207L141.58783333333332,76.02066799220245L149.70433333333335,104.46907084115202L158.27175,122.28375610235702L166.38825,142.72387223347855L174.50475,158.13257390269086L183.07216666666667,171.6345111758914L191.63958333333335,184.32255699471278L200.207,184.80350429618485L208.77441666666667,195.33831591303556L216.89091666666667,198.18420984584222L225.45833333333334,204.0308779786754L233.12391666666667,211.24281601930525L241.2404166666667,216.6751520069493L248.90600000000003,223.71907230586896L256.57158333333336,226.01298655759913L263.78625,224.92010988319583L271.90274999999997,228.95295268900685L280.47016666666667,221.17383232655283L288.5866666666667,225.32454457922492L296.7031666666667,222.9387819083646L304.8196666666667,228.12694584270525L312.9361666666667,229.70090196690862L321.0526666666667,235.46130104485363L329.1691666666666,233.06102403675135L337.28566666666666,239.93014581283424L345.85308333333336,240.79175463754942L354.87141666666673,246.69269824335777L363.4388333333333,246.4078996686556L371.55533333333335,246.95160111548114L380.12275,247.0500275102676L388.6901666666667,248.34115482450613L396.8066666666667,247.21227460710006L405.3740833333333,250.71566144137432L413.9415,251.3236028729976L421.6070833333334,251.71667032461664L430.1745,256.5873282329594L438.74191666666667,254.1081664111097L447.30933333333337,249.1995861656989L455.42583333333334,250.77293471429064L463.99325000000005,240.66964696114974L472.5606666666667,242.5966596852751L481.12808333333334,245.7676836352843L488.7936666666667,247.26491138759383L496.91016666666667,247.36523604985672L505.47758333333337,243.45263032894422L514.045,247.09036065151838L521.7105833333334,252.52085793370355L522.1615,254.00076427189123L522.1615,257.76390687110575L522.6124166666667,260.57652475361283L523.0633333333334,255.04237656301154L523.0633333333334,255.01710246332144L523.5142500000001,253.79753353250015L523.5142500000001,253.50602171978727L523.9651666666667,259.5821207501124L524.4160833333333,258.3371269378792L528.92525,257.8388776340367L537.0417500000001,260.62756029818263L545.1582500000001,260.4307906487682L552.8238333333334,258.81073517892764L560.4894166666667,253.32073498552424L569.0568333333334,254.930191958473L576.7224166666667,256.4382164629721L584.388,249.81129471635165L592.5045,254.6061846247729L600.1700833333333,253.35255249886256L608.2865833333334,255.07229443186264L615.9521666666667,253.9592156434747L623.6177500000001,254.07290176000788L631.73425,254.07753492199834L639.3998333333334,256.4721040059145L647.5163333333334,257.89363961960134L655.1819166666668,258.74734268293446L663.2984166666666,260.32834329106345L671.4149166666666,257.898428385262L679.0804999999999,256.7522939767049L686.7460833333334,257.6203566669818L694.8625833333334,256.3048574691243L702.9790833333333,258.63292358655326L710.6446666666667,261.0207806477408L718.31025,263.6750887351054L726.4267500000001,259.15895210519795L734.0923333333334,258.8650306686608L742.65975,261.50074044884155L750.3253333333334,261.63445723672913L757.9909166666667,259.985295936369L765.2055833333333,262.3516465335266L770.6165833333333,260.4701965182148L778.2821666666666,259.4348738258582L786.3986666666667,259.6134599797927L794.5151666666667,258.4089225634769L802.6316666666668,262.00710074701556L810.2972500000001,258.5860595539705L818.41375,259.4767605703152L826.9811666666667,257.8189491548872L834.64675,258.5628444716972L842.7632500000001,260.69722281646983L850.8797500000001,260.9509421967177L858.99625,262.9773586937797L866.6618333333333,260.52854370462774L874.7783333333334,256.40981479055944L882.4439166666667,254.53634748086162L890.5604166666667,255.49730339271184L897.7750833333333,258.81774739347674L905.8915833333333,262.7893740611794L913.5571666666666,266.7849118085759L921.6736666666667,261.4471252541658L929.3392500000001,259.6141935755671L937.45575,261.55908845307164L945.1213333333334,264.05726977501206L952.336,267.7878668675484L960.0015833333334,269.36634212699323L967.6671666666667,269.9359232762837L975.7836666666667,267.4261330981093L983.9001666666667,266.84487987909426L992.0166666666667,262.6004608021535L999.68225,263.1185428853411L1007.79875,264.76066223503085L1015.4643333333333,266.10590085401583L1023.5808333333333,263.71774169157936L1031.2464166666666,267.2837248869256L1039.3629166666667,269.32933630539253L1047.0285000000001,266.68056916946307L1055.145,267.3556103260412L1063.2615,268.01832965040137" style="fill: none;" fill="none"></path></g></g></g></g><g opacity="0.2"><g><g><g><path style="fill: none;" stroke="rgb(255, 112, 67)" stroke-width="2px" d="M90.18333333333334,-710.6290483474731L97.84891666666668,16.632957458496094L106.86725000000001,107.6144506931305L115.43466666666667,120.94195032119751L124.45300000000002,143.1668565273285L133.47133333333335,175.60119116306305L141.58783333333332,156.71306025981903L149.70433333333335,198.0041225552559L158.27175,184.15747386217117L166.38825,216.7841518521309L174.50475,215.83596467971802L183.07216666666667,223.52697265148163L191.63958333333335,234.09904164075851L200.207,186.7213835120201L208.77441666666667,237.8994450867176L216.89091666666667,209.8023945093155L225.45833333333334,228.10029244422913L233.12391666666667,241.13332334160805L241.2404166666667,239.31232497096062L248.90600000000003,253.20044115185738L256.57158333333336,235.64775824546814L263.78625,220.31678527593613L271.90274999999997,245.97886857390404L280.47016666666667,188.27071970701218L288.5866666666667,242.90709766745567L296.7031666666667,212.82031738758087L304.8196666666667,250.15257516503334L312.9361666666667,236.38823622465134L321.0526666666667,259.9515306651592L329.1691666666666,222.8509658575058L337.28566666666666,269.1616726219654L345.85308333333336,244.45958250761032L354.87141666666673,271.8196924030781L363.4388333333333,245.19491788744926L371.55533333333335,249.26769322156906L380.12275,247.46937185525894L388.6901666666667,253.8426408469677L396.8066666666667,242.4016584455967L405.3740833333333,265.64617931842804L413.9415,253.91465413570404L421.6070833333334,253.39201283454895L430.1745,277.348037391901L438.74191666666667,243.54062309861183L447.30933333333337,228.2759631872177L455.42583333333334,257.47973719239235L463.99325000000005,197.6010171175003L472.5606666666667,250.81131228804588L481.12808333333334,259.28558376431465L488.7936666666667,253.6475712954998L496.91016666666667,247.7929219007492L505.47758333333337,226.77301740646362L514.045,262.59824573993683L521.7105833333334,275.6715218424797L522.1615,260.3097496032715L522.1615,273.80659452080727L522.6124166666667,272.56704783439636L523.0633333333334,231.4496060013771L523.0633333333334,254.90935564041138L523.5142500000001,248.59834420681L523.5142500000001,252.26326578855515L523.9651666666667,285.48540665209293L524.4160833333333,253.02953562140465L528.92525,255.7147666811943L537.0417500000001,272.5161344110966L545.1582500000001,259.5919317305088L552.8238333333334,251.90419068932533L560.4894166666667,229.91601866483688L569.0568333333334,261.7915560901165L576.7224166666667,262.86715918779373L584.388,221.559694647789L592.5045,275.047549366951L600.1700833333333,248.00812250375748L608.2865833333334,262.40382394194603L615.9521666666667,249.21398600935936L623.6177500000001,254.5575635433197L631.73425,254.09728682041168L639.3998333333334,266.6805289685726L647.5163333333334,263.95386984944344L655.1819166666668,262.3868133723736L663.2984166666666,267.0683981180191L671.4149166666666,247.5393179655075L679.0804999999999,251.86614221334457L686.7460833333334,261.32104486227036L694.8625833333334,250.6966768205166L702.9790833333333,268.557836830616L710.6446666666667,271.2005921602249L718.31025,274.9908230602741L726.4267500000001,239.90594878792763L734.0923333333334,257.6119971871376L742.65975,272.73718732595444L750.3253333333334,262.2045130133629L757.9909166666667,252.95466095209122L765.2055833333333,272.4397727251053L770.6165833333333,252.44927805662155L778.2821666666666,255.0211297273636L786.3986666666667,260.3748009502888L794.5151666666667,253.27378937602043L802.6316666666668,277.3467024564743L810.2972500000001,244.00162079930305L818.41375,263.27395963668823L826.9811666666667,250.75143733620644L834.64675,261.73418766260147L842.7632500000001,269.7964147031307L850.8797500000001,262.0325879752636L858.99625,271.61629217863083L866.6618333333333,250.08885875344276L874.7783333333334,238.8510231077671L882.4439166666667,246.54946053028107L890.5604166666667,259.59401017427444L897.7750833333333,272.97332444787025L905.8915833333333,279.7210456430912L913.5571666666666,283.81852009892464L921.6736666666667,238.69129836559296L929.3392500000001,251.80011641979218L937.45575,269.850482404232L945.1213333333334,274.7074111998081L952.336,283.69199131429195L960.0015833333334,276.09563139081L967.6671666666667,272.36413764953613L975.7836666666667,256.7265012860298L983.9001666666667,264.36690562963486L992.0166666666667,244.50583210587502L999.68225,265.3272086083889L1007.79875,271.76127630472183L1015.4643333333333,271.84086549282074L1023.5808333333333,253.53664210438728L1031.2464166666666,282.4860742986202L1039.3629166666667,278.0501007735729L1047.0285000000001,255.38845664262772L1055.145,270.2334173619747L1063.2615,270.8436067700386" fill="none"></path></g></g></g></g></g></g><g transform="translate(30, 378)" clip-path="url(#clip_1)"><clipPath id="clip_1"><rect width="1082" height="22"></rect></clipPath><g><g><line x1="0" y1="0" x2="0" y2="5" style="visibility: inherit;" fill="rgb(0, 0, 0)" stroke="rgb(204, 204, 204)" stroke-width="1px"></line><line x1="90.18333333333334" y1="0" x2="90.18333333333334" y2="5" style="visibility: inherit;" fill="rgb(0, 0, 0)" stroke="rgb(204, 204, 204)" stroke-width="1px"></line><line x1="180.36666666666667" y1="0" x2="180.36666666666667" y2="5" style="visibility: inherit;" fill="rgb(0, 0, 0)" stroke="rgb(204, 204, 204)" stroke-width="1px"></line><line x1="270.55" y1="0" x2="270.55" y2="5" style="visibility: inherit;" fill="rgb(0, 0, 0)" stroke="rgb(204, 204, 204)" stroke-width="1px"></line><line x1="360.73333333333335" y1="0" x2="360.73333333333335" y2="5" style="visibility: inherit;" fill="rgb(0, 0, 0)" stroke="rgb(204, 204, 204)" stroke-width="1px"></line><line x1="450.9166666666667" y1="0" x2="450.9166666666667" y2="5" style="visibility: inherit;" fill="rgb(0, 0, 0)" stroke="rgb(204, 204, 204)" stroke-width="1px"></line><line x1="541.1" y1="0" x2="541.1" y2="5" style="visibility: inherit;" fill="rgb(0, 0, 0)" stroke="rgb(204, 204, 204)" stroke-width="1px"></line><line x1="631.2833333333334" y1="0" x2="631.2833333333334" y2="5" style="visibility: inherit;" fill="rgb(0, 0, 0)" stroke="rgb(204, 204, 204)" stroke-width="1px"></line><line x1="721.4666666666667" y1="0" x2="721.4666666666667" y2="5" style="visibility: inherit;" fill="rgb(0, 0, 0)" stroke="rgb(204, 204, 204)" stroke-width="1px"></line><line x1="811.6500000000001" y1="0" x2="811.6500000000001" y2="5" style="visibility: inherit;" fill="rgb(0, 0, 0)" stroke="rgb(204, 204, 204)" stroke-width="1px"></line><line x1="901.8333333333334" y1="0" x2="901.8333333333334" y2="5" style="visibility: inherit;" fill="rgb(0, 0, 0)" stroke="rgb(204, 204, 204)" stroke-width="1px"></line><line x1="992.0166666666667" y1="0" x2="992.0166666666667" y2="5" style="visibility: inherit;" fill="rgb(0, 0, 0)" stroke="rgb(204, 204, 204)" stroke-width="1px"></line><line x1="1082.2" y1="0" x2="1082.2" y2="5" style="visibility: inherit;" fill="rgb(0, 0, 0)" stroke="rgb(204, 204, 204)" stroke-width="1px"></line></g><g transform="translate(0, 8)"><text x="0" y="0" dx="0em" dy="0.95em" style="text-anchor: middle; visibility: hidden; font-family: &quot;Helvetica Neue&quot;, sans-serif; font-size: 12px; font-weight: 200;" fill="rgb(50, 49, 63)" stroke="none" stroke-width="1px">-200</text><text x="90.18333333333334" y="0" dx="0em" dy="0.95em" style="text-anchor: middle; visibility: inherit; font-family: &quot;Helvetica Neue&quot;, sans-serif; font-size: 12px; font-weight: 200;" fill="rgb(50, 49, 63)" stroke="none" stroke-width="1px">0</text><text x="180.36666666666667" y="0" dx="0em" dy="0.95em" style="text-anchor: middle; visibility: inherit; font-family: &quot;Helvetica Neue&quot;, sans-serif; font-size: 12px; font-weight: 200;" fill="rgb(50, 49, 63)" stroke="none" stroke-width="1px">200</text><text x="270.55" y="0" dx="0em" dy="0.95em" style="text-anchor: middle; visibility: inherit; font-family: &quot;Helvetica Neue&quot;, sans-serif; font-size: 12px; font-weight: 200;" fill="rgb(50, 49, 63)" stroke="none" stroke-width="1px">400</text><text x="360.73333333333335" y="0" dx="0em" dy="0.95em" style="text-anchor: middle; visibility: inherit; font-family: &quot;Helvetica Neue&quot;, sans-serif; font-size: 12px; font-weight: 200;" fill="rgb(50, 49, 63)" stroke="none" stroke-width="1px">600</text><text x="450.9166666666667" y="0" dx="0em" dy="0.95em" style="text-anchor: middle; visibility: inherit; font-family: &quot;Helvetica Neue&quot;, sans-serif; font-size: 12px; font-weight: 200;" fill="rgb(50, 49, 63)" stroke="none" stroke-width="1px">800</text><text x="541.1" y="0" dx="0em" dy="0.95em" style="text-anchor: middle; visibility: inherit; font-family: &quot;Helvetica Neue&quot;, sans-serif; font-size: 12px; font-weight: 200;" fill="rgb(50, 49, 63)" stroke="none" stroke-width="1px">1k</text><text x="631.2833333333334" y="0" dx="0em" dy="0.95em" style="text-anchor: middle; visibility: inherit; font-family: &quot;Helvetica Neue&quot;, sans-serif; font-size: 12px; font-weight: 200;" fill="rgb(50, 49, 63)" stroke="none" stroke-width="1px">1.2k</text><text x="721.4666666666667" y="0" dx="0em" dy="0.95em" style="text-anchor: middle; visibility: inherit; font-family: &quot;Helvetica Neue&quot;, sans-serif; font-size: 12px; font-weight: 200;" fill="rgb(50, 49, 63)" stroke="none" stroke-width="1px">1.4k</text><text x="811.6500000000001" y="0" dx="0em" dy="0.95em" style="text-anchor: middle; visibility: inherit; font-family: &quot;Helvetica Neue&quot;, sans-serif; font-size: 12px; font-weight: 200;" fill="rgb(50, 49, 63)" stroke="none" stroke-width="1px">1.6k</text><text x="901.8333333333334" y="0" dx="0em" dy="0.95em" style="text-anchor: middle; visibility: inherit; font-family: &quot;Helvetica Neue&quot;, sans-serif; font-size: 12px; font-weight: 200;" fill="rgb(50, 49, 63)" stroke="none" stroke-width="1px">1.8k</text><text x="992.0166666666667" y="0" dx="0em" dy="0.95em" style="text-anchor: middle; visibility: inherit; font-family: &quot;Helvetica Neue&quot;, sans-serif; font-size: 12px; font-weight: 200;" fill="rgb(50, 49, 63)" stroke="none" stroke-width="1px">2k</text><text x="1082.2" y="0" dx="0em" dy="0.95em" style="text-anchor: middle; visibility: hidden; font-family: &quot;Helvetica Neue&quot;, sans-serif; font-size: 12px; font-weight: 200;" fill="rgb(50, 49, 63)" stroke="none" stroke-width="1px">2.2k</text></g><line x1="0" y1="0" x2="1082.2" y2="0" fill="rgb(0, 0, 0)" stroke="rgb(204, 204, 204)" stroke-width="1px"></line></g></g></g></g></svg>