<svg viewBox="0 0 330 200" xmlns="http://www.w3.org/2000/svg"><g><g><g><g><g><line x1="50" y1="178" x2="45" y2="178" style="visibility: inherit;" fill="rgb(0, 0, 0)" stroke="rgb(204, 204, 204)" stroke-width="1px"></line><line x1="50" y1="158.22222222222243" x2="45" y2="158.22222222222243" style="visibility: inherit;" fill="rgb(0, 0, 0)" stroke="rgb(204, 204, 204)" stroke-width="1px"></line><line x1="50" y1="138.44444444444463" x2="45" y2="138.44444444444463" style="visibility: inherit;" fill="rgb(0, 0, 0)" stroke="rgb(204, 204, 204)" stroke-width="1px"></line><line x1="50" y1="118.6666666666668" x2="45" y2="118.6666666666668" style="visibility: inherit;" fill="rgb(0, 0, 0)" stroke="rgb(204, 204, 204)" stroke-width="1px"></line><line x1="50" y1="98.88888888888901" x2="45" y2="98.88888888888901" style="visibility: inherit;" fill="rgb(0, 0, 0)" stroke="rgb(204, 204, 204)" stroke-width="1px"></line><line x1="50" y1="79.1111111111112" x2="45" y2="79.1111111111112" style="visibility: inherit;" fill="rgb(0, 0, 0)" stroke="rgb(204, 204, 204)" stroke-width="1px"></line><line x1="50" y1="59.3333333333334" x2="45" y2="59.3333333333334" style="visibility: inherit;" fill="rgb(0, 0, 0)" stroke="rgb(204, 204, 204)" stroke-width="1px"></line><line x1="50" y1="39.5555555555556" x2="45" y2="39.5555555555556" style="visibility: inherit;" fill="rgb(0, 0, 0)" stroke="rgb(204, 204, 204)" stroke-width="1px"></line><line x1="50" y1="19.7777777777778" x2="45" y2="19.7777777777778" style="visibility: inherit;" fill="rgb(0, 0, 0)" stroke="rgb(204, 204, 204)" stroke-width="1px"></line><line x1="50" y1="0" x2="45" y2="0" style="visibility: inherit;" fill="rgb(0, 0, 0)" stroke="rgb(204, 204, 204)" stroke-width="1px"></line></g><g transform="translate(40, 0)"><text x="0" y="178" dx="0em" dy="0.3em" style="text-anchor: end; visibility: hidden; font-family: &quot;Helvetica Neue&quot;, sans-serif; font-size: 12px; font-weight: 200;" fill="rgb(50, 49, 63)" stroke="none" stroke-width="1px">0.93</text><text x="0" y="158.22222222222243" dx="0em" dy="0.3em" style="text-anchor: end; visibility: inherit; font-family: &quot;Helvetica Neue&quot;, sans-serif; font-size: 12px; font-weight: 200;" fill="rgb(50, 49, 63)" stroke="none" stroke-width="1px">0.94</text><text x="0" y="138.44444444444463" dx="0em" dy="0.3em" style="text-anchor: end; visibility: hidden; font-family: &quot;Helvetica Neue&quot;, sans-serif; font-size: 12px; font-weight: 200;" fill="rgb(50, 49, 63)" stroke="none" stroke-width="1px">0.95</text><text x="0" y="118.6666666666668" dx="0em" dy="0.3em" style="text-anchor: end; visibility: inherit; font-family: &quot;Helvetica Neue&quot;, sans-serif; font-size: 12px; font-weight: 200;" fill="rgb(50, 49, 63)" stroke="none" stroke-width="1px">0.96</text><text x="0" y="98.88888888888901" dx="0em" dy="0.3em" style="text-anchor: end; visibility: hidden; font-family: &quot;Helvetica Neue&quot;, sans-serif; font-size: 12px; font-weight: 200;" fill="rgb(50, 49, 63)" stroke="none" stroke-width="1px">0.97</text><text x="0" y="79.1111111111112" dx="0em" dy="0.3em" style="text-anchor: end; visibility: inherit; font-family: &quot;Helvetica Neue&quot;, sans-serif; font-size: 12px; font-weight: 200;" fill="rgb(50, 49, 63)" stroke="none" stroke-width="1px">0.98</text><text x="0" y="59.3333333333334" dx="0em" dy="0.3em" style="text-anchor: end; visibility: hidden; font-family: &quot;Helvetica Neue&quot;, sans-serif; font-size: 12px; font-weight: 200;" fill="rgb(50, 49, 63)" stroke="none" stroke-width="1px">0.99</text><text x="0" y="39.5555555555556" dx="0em" dy="0.3em" style="text-anchor: end; visibility: inherit; font-family: &quot;Helvetica Neue&quot;, sans-serif; font-size: 12px; font-weight: 200;" fill="rgb(50, 49, 63)" stroke="none" stroke-width="1px">1</text><text x="0" y="19.7777777777778" dx="0em" dy="0.3em" style="text-anchor: end; visibility: hidden; font-family: &quot;Helvetica Neue&quot;, sans-serif; font-size: 12px; font-weight: 200;" fill="rgb(50, 49, 63)" stroke="none" stroke-width="1px">1.01</text><text x="0" y="0" dx="0em" dy="0.3em" style="text-anchor: end; visibility: hidden; font-family: &quot;Helvetica Neue&quot;, sans-serif; font-size: 12px; font-weight: 200;" fill="rgb(50, 49, 63)" stroke="none" stroke-width="1px">1.02</text></g><line x1="50" y1="0" x2="50" y2="178" fill="rgb(0, 0, 0)" stroke="rgb(204, 204, 204)" stroke-width="1px"></line></g></g><g transform="translate(50, 0)" clip-path="url(#clip_0)"><clipPath id="clip_0"><rect width="280" height="178"></rect></clipPath><g><g><g><line x1="0" y1="0" x2="0" y2="178" fill="rgb(0, 0, 0)" stroke="rgb(60, 60, 60)" stroke-width="1px" opacity="0.25"></line><line x1="21.53846153846154" y1="0" x2="21.53846153846154" y2="178" fill="rgb(0, 0, 0)" stroke="rgb(60, 60, 60)" stroke-width="1px" opacity="0.25"></line><line x1="43.07692307692308" y1="0" x2="43.07692307692308" y2="178" fill="rgb(0, 0, 0)" stroke="rgb(60, 60, 60)" stroke-width="1px" opacity="0.25"></line><line x1="64.61538461538461" y1="0" x2="64.61538461538461" y2="178" fill="rgb(0, 0, 0)" stroke="rgb(60, 60, 60)" stroke-width="1px" opacity="0.25"></line><line x1="86.15384615384616" y1="0" x2="86.15384615384616" y2="178" fill="rgb(0, 0, 0)" stroke="rgb(60, 60, 60)" stroke-width="1px" opacity="0.25"></line><line x1="107.6923076923077" y1="0" x2="107.6923076923077" y2="178" fill="rgb(0, 0, 0)" stroke="rgb(60, 60, 60)" stroke-width="1px" opacity="0.25"></line><line x1="129.23076923076923" y1="0" x2="129.23076923076923" y2="178" fill="rgb(0, 0, 0)" stroke="rgb(60, 60, 60)" stroke-width="1px" opacity="0.25"></line><line x1="150.76923076923077" y1="0" x2="150.76923076923077" y2="178" fill="rgb(0, 0, 0)" stroke="rgb(60, 60, 60)" stroke-width="1px" opacity="0.25"></line><line x1="172.30769230769232" y1="0" x2="172.30769230769232" y2="178" fill="rgb(0, 0, 0)" stroke="rgb(60, 60, 60)" stroke-width="1px" opacity="0.25"></line><line x1="193.84615384615384" y1="0" x2="193.84615384615384" y2="178" fill="rgb(0, 0, 0)" stroke="rgb(60, 60, 60)" stroke-width="1px" opacity="0.25"></line><line x1="215.3846153846154" y1="0" x2="215.3846153846154" y2="178" fill="rgb(0, 0, 0)" stroke="rgb(60, 60, 60)" stroke-width="1px" opacity="0.25"></line><line x1="236.92307692307693" y1="0" x2="236.92307692307693" y2="178" fill="rgb(0, 0, 0)" stroke="rgb(60, 60, 60)" stroke-width="1px" opacity="0.25"></line><line x1="258.46153846153845" y1="0" x2="258.46153846153845" y2="178" fill="rgb(0, 0, 0)" stroke="rgb(60, 60, 60)" stroke-width="1px" opacity="0.25"></line><line x1="280" y1="0" x2="280" y2="178" fill="rgb(0, 0, 0)" stroke="rgb(60, 60, 60)" stroke-width="1px" opacity="0.25"></line></g><g><line x1="0" y1="178" x2="280" y2="178" fill="rgb(0, 0, 0)" stroke="rgb(60, 60, 60)" stroke-width="1px" opacity="0.25"></line><line x1="0" y1="158.22222222222243" x2="280" y2="158.22222222222243" fill="rgb(0, 0, 0)" stroke="rgb(60, 60, 60)" stroke-width="1px" opacity="0.25"></line><line x1="0" y1="138.44444444444463" x2="280" y2="138.44444444444463" fill="rgb(0, 0, 0)" stroke="rgb(60, 60, 60)" stroke-width="1px" opacity="0.25"></line><line x1="0" y1="118.6666666666668" x2="280" y2="118.6666666666668" fill="rgb(0, 0, 0)" stroke="rgb(60, 60, 60)" stroke-width="1px" opacity="0.25"></line><line x1="0" y1="98.88888888888901" x2="280" y2="98.88888888888901" fill="rgb(0, 0, 0)" stroke="rgb(60, 60, 60)" stroke-width="1px" opacity="0.25"></line><line x1="0" y1="79.1111111111112" x2="280" y2="79.1111111111112" fill="rgb(0, 0, 0)" stroke="rgb(60, 60, 60)" stroke-width="1px" opacity="0.25"></line><line x1="0" y1="59.3333333333334" x2="280" y2="59.3333333333334" fill="rgb(0, 0, 0)" stroke="rgb(60, 60, 60)" stroke-width="1px" opacity="0.25"></line><line x1="0" y1="39.5555555555556" x2="280" y2="39.5555555555556" fill="rgb(0, 0, 0)" stroke="rgb(60, 60, 60)" stroke-width="1px" opacity="0.25"></line><line x1="0" y1="19.7777777777778" x2="280" y2="19.7777777777778" fill="rgb(0, 0, 0)" stroke="rgb(60, 60, 60)" stroke-width="1px" opacity="0.25"></line><line x1="0" y1="0" x2="280" y2="0" fill="rgb(0, 0, 0)" stroke="rgb(60, 60, 60)" stroke-width="1px" opacity="0.25"></line></g></g></g><g><g><line x1="0" y1="2017.3333333333342" x2="280" y2="2017.3333333333342" fill="rgb(0, 0, 0)" stroke="rgb(153, 153, 153)" stroke-width="1.5px"></line></g></g><g><g><line x1="21.53846153846154" y1="0" x2="21.53846153846154" y2="178" fill="rgb(0, 0, 0)" stroke="rgb(153, 153, 153)" stroke-width="1.5px"></line></g></g><g><g><g><g><g><path stroke="rgb(255, 112, 67)" stroke-width="2px" d="M31.876923076923077,222.15171306355074L33.815384615384616,177.16749750656834L35.753846153846155,145.07429293655792L37.800000000000004,121.48512532447155L39.73846153846154,103.76403635587371L41.676923076923075,90.2318108076452L43.72307692307692,79.76871866602569L45.76923076923077,71.60045977945053L47.81538461538461,65.17568912545953L49.86153846153846,60.09237622547195L51.8,56.05163398568031L53.84615384615385,52.82771267990998L55.676923076923075,50.24788340154171L57.61538461538461,48.17858046327237L59.44615384615385,46.51562579248042L61.27692307692308,45.177187980439044L63,44.09861813267011L64.93846153846154,43.22860212177619L66.98461538461538,42.526254456932804L68.92307692307693,41.958897636154376L70.86153846153846,41.50034840049801L72.8,41.1295840604177L74.73846153846154,40.829697276349066L76.67692307692307,40.58707207781717L78.61538461538461,40.390731111849306L80.55384615384615,40.231816443403915L82.6,40.10317520431721L84.75384615384615,39.99902800996634L86.8,39.91470301368915L88.73846153846154,39.84642221334542L90.78461538461538,39.791129485714464L92.83076923076923,39.746352031047934L94.76923076923077,39.710088625366154L96.81538461538462,39.68071942059308L98.86153846153846,39.656933089529076L100.6923076923077,39.63766794883105L102.73846153846154,39.62206435747265L104.78461538461539,39.60942621774075L106.83076923076923,39.59918982923321L108.76923076923077,39.590898685637086L110.81538461538462,39.584183076543866L112.86153846153846,39.57874357569014L114.90769230769232,39.574337673496956L116.73846153846154,39.5707689540632L118.67692307692309,39.56787833156804L120.72307692307693,39.565536953751575L122.76923076923077,39.56364045504404L124.60000000000001,39.562104302457215L124.70769230769231,39.560860026319006L124.70769230769231,39.55985216753987L124.81538461538462,39.55903580513899L124.92307692307693,39.558374553700276L124.92307692307693,39.557838941416406L125.03076923076924,39.55740509637326L125.03076923076924,39.55705368248283L125.13846153846154,39.55676903762213L125.24615384615385,39.556538475541004L126.32307692307691,39.556351720423606L128.26153846153846,39.55620044888832L130.20000000000002,39.55607791901724L132.03076923076924,39.555978669868665L133.86153846153846,39.555898278089956L135.9076923076923,39.55583316076965L137.73846153846154,39.555780415753105L139.56923076923076,39.55573769229889L141.5076923076923,39.555703086306806L143.33846153846153,39.5556750554569L145.27692307692308,39.55565235047084L147.1076923076923,39.55563395943386L148.93846153846155,39.55561906269523L150.87692307692308,39.55560699633725L152.7076923076923,39.55559722258781L154.64615384615385,39.5555893058509L156.4769230769231,39.5555828932946L158.41538461538462,39.55557769912386L160.35384615384615,39.555573491845735L162.18461538461537,39.55557008395044L164.01538461538462,39.555567323555465L165.95384615384617,39.5555650876357L167.8923076923077,39.55556327654054L169.72307692307692,39.5555618095531L171.55384615384614,39.555560621293495L173.4923076923077,39.555559658803446L175.32307692307694,39.555558879186265L177.36923076923077,39.55555824769647L179.20000000000002,39.55555773618951L181.0307692307692,39.55555732186906L182.75384615384615,39.555556986269295L184.04615384615383,39.55555671443375L185.87692307692308,39.55555649424696L187.81538461538463,39.55555631589564L189.75384615384615,39.55555617143102L191.6923076923077,39.555556054414694L193.5230769230769,39.555555959631675L195.46153846153845,39.555555882857306L197.5076923076923,39.555555820669895L199.33846153846153,39.555555770298156L201.27692307692305,39.555555729496945L203.2153846153846,39.555555696448124L205.15384615384613,39.55555566967857L206.98461538461538,39.55555564799528L208.92307692307693,39.55555563043174L210.75384615384615,39.55555561620511L212.69230769230768,39.55555560468164L214.41538461538462,39.55555559534764L216.35384615384615,39.555555587787154L218.1846153846154,39.55555558166316L220.12307692307695,39.55555557670266L221.95384615384614,39.555555572684625L223.8923076923077,39.55555556943003L225.72307692307692,39.5555555667938L227.44615384615383,39.55555556465862L229.27692307692308,39.555555562929015L231.1076923076923,39.55555556152791L233.04615384615386,39.555555560393344L234.98461538461538,39.555555559474186L236.92307692307693,39.555555558729594L238.75384615384613,39.555555558126656L240.6923076923077,39.55555555763806L242.52307692307693,39.5555555572426L244.46153846153845,39.55555555692203L246.29230769230767,39.555555556662284L248.23076923076923,39.555555556452134L250.06153846153848,39.555555556281746L252,39.555555556143844L253.93846153846155,39.55555555603186" style="fill: none;" fill="none"></path></g></g></g></g><g opacity="0.2"><g><g><g><path stroke="rgb(255, 112, 67)" stroke-width="2px" d="M21.53846153846154,2017.3333333333342L23.369230769230768,39.5555555555556L25.523076923076925,39.5555555555556L27.56923076923077,39.5555555555556L29.723076923076924,39.5555555555556L31.876923076923077,39.5555555555556L33.815384615384616,39.5555555555556L35.753846153846155,39.5555555555556L37.800000000000004,39.5555555555556L39.73846153846154,39.5555555555556L41.676923076923075,39.5555555555556L43.72307692307692,39.5555555555556L45.76923076923077,39.5555555555556L47.81538461538461,39.5555555555556L49.86153846153846,39.5555555555556L51.8,39.5555555555556L53.84615384615385,39.5555555555556L55.676923076923075,39.5555555555556L57.61538461538461,39.5555555555556L59.44615384615385,39.5555555555556L61.27692307692308,39.5555555555556L63,39.5555555555556L64.93846153846154,39.5555555555556L66.98461538461538,39.5555555555556L68.92307692307693,39.5555555555556L70.86153846153846,39.5555555555556L72.8,39.5555555555556L74.73846153846154,39.5555555555556L76.67692307692307,39.5555555555556L78.61538461538461,39.5555555555556L80.55384615384615,39.5555555555556L82.6,39.5555555555556L84.75384615384615,39.5555555555556L86.8,39.5555555555556L88.73846153846154,39.5555555555556L90.78461538461538,39.5555555555556L92.83076923076923,39.5555555555556L94.76923076923077,39.5555555555556L96.81538461538462,39.5555555555556L98.86153846153846,39.5555555555556L100.6923076923077,39.5555555555556L102.73846153846154,39.5555555555556L104.78461538461539,39.5555555555556L106.83076923076923,39.5555555555556L108.76923076923077,39.5555555555556L110.81538461538462,39.5555555555556L112.86153846153846,39.5555555555556L114.90769230769232,39.5555555555556L116.73846153846154,39.5555555555556L118.67692307692309,39.5555555555556L120.72307692307693,39.5555555555556L122.76923076923077,39.5555555555556L124.60000000000001,39.5555555555556L124.70769230769231,39.5555555555556L124.70769230769231,39.5555555555556L124.81538461538462,39.5555555555556L124.92307692307693,39.5555555555556L124.92307692307693,39.5555555555556L125.03076923076924,39.5555555555556L125.03076923076924,39.5555555555556L125.13846153846154,39.5555555555556L125.24615384615385,39.5555555555556L126.32307692307691,39.5555555555556L128.26153846153846,39.5555555555556L130.20000000000002,39.5555555555556L132.03076923076924,39.5555555555556L133.86153846153846,39.5555555555556L135.9076923076923,39.5555555555556L137.73846153846154,39.5555555555556L139.56923076923076,39.5555555555556L141.5076923076923,39.5555555555556L143.33846153846153,39.5555555555556L145.27692307692308,39.5555555555556L147.1076923076923,39.5555555555556L148.93846153846155,39.5555555555556L150.87692307692308,39.5555555555556L152.7076923076923,39.5555555555556L154.64615384615385,39.5555555555556L156.4769230769231,39.5555555555556L158.41538461538462,39.5555555555556L160.35384615384615,39.5555555555556L162.18461538461537,39.5555555555556L164.01538461538462,39.5555555555556L165.95384615384617,39.5555555555556L167.8923076923077,39.5555555555556L169.72307692307692,39.5555555555556L171.55384615384614,39.5555555555556L173.4923076923077,39.5555555555556L175.32307692307694,39.5555555555556L177.36923076923077,39.5555555555556L179.20000000000002,39.5555555555556L181.0307692307692,39.5555555555556L182.75384615384615,39.5555555555556L184.04615384615383,39.5555555555556L185.87692307692308,39.5555555555556L187.81538461538463,39.5555555555556L189.75384615384615,39.5555555555556L191.6923076923077,39.5555555555556L193.5230769230769,39.5555555555556L195.46153846153845,39.5555555555556L197.5076923076923,39.5555555555556L199.33846153846153,39.5555555555556L201.27692307692305,39.5555555555556L203.2153846153846,39.5555555555556L205.15384615384613,39.5555555555556L206.98461538461538,39.5555555555556L208.92307692307693,39.5555555555556L210.75384615384615,39.5555555555556L212.69230769230768,39.5555555555556L214.41538461538462,39.5555555555556L216.35384615384615,39.5555555555556L218.1846153846154,39.5555555555556L220.12307692307695,39.5555555555556L221.95384615384614,39.5555555555556L223.8923076923077,39.5555555555556L225.72307692307692,39.5555555555556L227.44615384615383,39.5555555555556L229.27692307692308,39.5555555555556L231.1076923076923,39.5555555555556L233.04615384615386,39.5555555555556L234.98461538461538,39.5555555555556L236.92307692307693,39.5555555555556L238.75384615384613,39.5555555555556L240.6923076923077,39.5555555555556L242.52307692307693,39.5555555555556L244.46153846153845,39.5555555555556L246.29230769230767,39.5555555555556L248.23076923076923,39.5555555555556L250.06153846153848,39.5555555555556L252,39.5555555555556L253.93846153846155,39.5555555555556" style="fill: none;" fill="none"></path></g></g></g></g></g></g><g transform="translate(50, 178)" clip-path="url(#clip_1)"><clipPath id="clip_1"><rect width="280" height="22"></rect></clipPath><g><g><line x1="0" y1="0" x2="0" y2="5" style="visibility: inherit;" fill="rgb(0, 0, 0)" stroke="rgb(204, 204, 204)" stroke-width="1px"></line><line x1="21.53846153846154" y1="0" x2="21.53846153846154" y2="5" style="visibility: inherit;" fill="rgb(0, 0, 0)" stroke="rgb(204, 204, 204)" stroke-width="1px"></line><line x1="43.07692307692308" y1="0" x2="43.07692307692308" y2="5" style="visibility: inherit;" fill="rgb(0, 0, 0)" stroke="rgb(204, 204, 204)" stroke-width="1px"></line><line x1="64.61538461538461" y1="0" x2="64.61538461538461" y2="5" style="visibility: inherit;" fill="rgb(0, 0, 0)" stroke="rgb(204, 204, 204)" stroke-width="1px"></line><line x1="86.15384615384616" y1="0" x2="86.15384615384616" y2="5" style="visibility: inherit;" fill="rgb(0, 0, 0)" stroke="rgb(204, 204, 204)" stroke-width="1px"></line><line x1="107.6923076923077" y1="0" x2="107.6923076923077" y2="5" style="visibility: inherit;" fill="rgb(0, 0, 0)" stroke="rgb(204, 204, 204)" stroke-width="1px"></line><line x1="129.23076923076923" y1="0" x2="129.23076923076923" y2="5" style="visibility: inherit;" fill="rgb(0, 0, 0)" stroke="rgb(204, 204, 204)" stroke-width="1px"></line><line x1="150.76923076923077" y1="0" x2="150.76923076923077" y2="5" style="visibility: inherit;" fill="rgb(0, 0, 0)" stroke="rgb(204, 204, 204)" stroke-width="1px"></line><line x1="172.30769230769232" y1="0" x2="172.30769230769232" y2="5" style="visibility: inherit;" fill="rgb(0, 0, 0)" stroke="rgb(204, 204, 204)" stroke-width="1px"></line><line x1="193.84615384615384" y1="0" x2="193.84615384615384" y2="5" style="visibility: inherit;" fill="rgb(0, 0, 0)" stroke="rgb(204, 204, 204)" stroke-width="1px"></line><line x1="215.3846153846154" y1="0" x2="215.3846153846154" y2="5" style="visibility: inherit;" fill="rgb(0, 0, 0)" stroke="rgb(204, 204, 204)" stroke-width="1px"></line><line x1="236.92307692307693" y1="0" x2="236.92307692307693" y2="5" style="visibility: inherit;" fill="rgb(0, 0, 0)" stroke="rgb(204, 204, 204)" stroke-width="1px"></line><line x1="258.46153846153845" y1="0" x2="258.46153846153845" y2="5" style="visibility: inherit;" fill="rgb(0, 0, 0)" stroke="rgb(204, 204, 204)" stroke-width="1px"></line><line x1="280" y1="0" x2="280" y2="5" style="visibility: inherit;" fill="rgb(0, 0, 0)" stroke="rgb(204, 204, 204)" stroke-width="1px"></line></g><g transform="translate(0, 8)"><text x="0" y="0" dx="0em" dy="0.95em" style="text-anchor: middle; visibility: hidden; font-family: &quot;Helvetica Neue&quot;, sans-serif; font-size: 12px; font-weight: 200;" fill="rgb(50, 49, 63)" stroke="none" stroke-width="1px">-200</text><text x="21.53846153846154" y="0" dx="0em" dy="0.95em" style="text-anchor: middle; visibility: inherit; font-family: &quot;Helvetica Neue&quot;, sans-serif; font-size: 12px; font-weight: 200;" fill="rgb(50, 49, 63)" stroke="none" stroke-width="1px">0</text><text x="43.07692307692308" y="0" dx="0em" dy="0.95em" style="text-anchor: middle; visibility: hidden; font-family: &quot;Helvetica Neue&quot;, sans-serif; font-size: 12px; font-weight: 200;" fill="rgb(50, 49, 63)" stroke="none" stroke-width="1px">200</text><text x="64.61538461538461" y="0" dx="0em" dy="0.95em" style="text-anchor: middle; visibility: inherit; font-family: &quot;Helvetica Neue&quot;, sans-serif; font-size: 12px; font-weight: 200;" fill="rgb(50, 49, 63)" stroke="none" stroke-width="1px">400</text><text x="86.15384615384616" y="0" dx="0em" dy="0.95em" style="text-anchor: middle; visibility: hidden; font-family: &quot;Helvetica Neue&quot;, sans-serif; font-size: 12px; font-weight: 200;" fill="rgb(50, 49, 63)" stroke="none" stroke-width="1px">600</text><text x="107.6923076923077" y="0" dx="0em" dy="0.95em" style="text-anchor: middle; visibility: inherit; font-family: &quot;Helvetica Neue&quot;, sans-serif; font-size: 12px; font-weight: 200;" fill="rgb(50, 49, 63)" stroke="none" stroke-width="1px">800</text><text x="129.23076923076923" y="0" dx="0em" dy="0.95em" style="text-anchor: middle; visibility: hidden; font-family: &quot;Helvetica Neue&quot;, sans-serif; font-size: 12px; font-weight: 200;" fill="rgb(50, 49, 63)" stroke="none" stroke-width="1px">1k</text><text x="150.76923076923077" y="0" dx="0em" dy="0.95em" style="text-anchor: middle; visibility: inherit; font-family: &quot;Helvetica Neue&quot;, sans-serif; font-size: 12px; font-weight: 200;" fill="rgb(50, 49, 63)" stroke="none" stroke-width="1px">1.2k</text><text x="172.30769230769232" y="0" dx="0em" dy="0.95em" style="text-anchor: middle; visibility: hidden; font-family: &quot;Helvetica Neue&quot;, sans-serif; font-size: 12px; font-weight: 200;" fill="rgb(50, 49, 63)" stroke="none" stroke-width="1px">1.4k</text><text x="193.84615384615384" y="0" dx="0em" dy="0.95em" style="text-anchor: middle; visibility: inherit; font-family: &quot;Helvetica Neue&quot;, sans-serif; font-size: 12px; font-weight: 200;" fill="rgb(50, 49, 63)" stroke="none" stroke-width="1px">1.6k</text><text x="215.3846153846154" y="0" dx="0em" dy="0.95em" style="text-anchor: middle; visibility: hidden; font-family: &quot;Helvetica Neue&quot;, sans-serif; font-size: 12px; font-weight: 200;" fill="rgb(50, 49, 63)" stroke="none" stroke-width="1px">1.8k</text><text x="236.92307692307693" y="0" dx="0em" dy="0.95em" style="text-anchor: middle; visibility: inherit; font-family: &quot;Helvetica Neue&quot;, sans-serif; font-size: 12px; font-weight: 200;" fill="rgb(50, 49, 63)" stroke="none" stroke-width="1px">2k</text><text x="258.46153846153845" y="0" dx="0em" dy="0.95em" style="text-anchor: middle; visibility: hidden; font-family: &quot;Helvetica Neue&quot;, sans-serif; font-size: 12px; font-weight: 200;" fill="rgb(50, 49, 63)" stroke="none" stroke-width="1px">2.2k</text><text x="280" y="0" dx="0em" dy="0.95em" style="text-anchor: middle; visibility: hidden; font-family: &quot;Helvetica Neue&quot;, sans-serif; font-size: 12px; font-weight: 200;" fill="rgb(50, 49, 63)" stroke="none" stroke-width="1px">2.4k</text></g><line x1="0" y1="0" x2="280" y2="0" fill="rgb(0, 0, 0)" stroke="rgb(204, 204, 204)" stroke-width="1px"></line></g></g></g></g></svg>