<svg viewBox="0 0 330 200" xmlns="http://www.w3.org/2000/svg"><g><g><g><g><g><line x1="80" y1="178" x2="75" y2="178" style="visibility: inherit;" fill="rgb(0, 0, 0)" stroke="rgb(204, 204, 204)" stroke-width="1px"></line><line x1="80" y1="161.81818181816175" x2="75" y2="161.81818181816175" style="visibility: inherit;" fill="rgb(0, 0, 0)" stroke="rgb(204, 204, 204)" stroke-width="1px"></line><line x1="80" y1="145.6363636363603" x2="75" y2="145.6363636363603" style="visibility: inherit;" fill="rgb(0, 0, 0)" stroke="rgb(204, 204, 204)" stroke-width="1px"></line><line x1="80" y1="129.45454545452205" x2="75" y2="129.45454545452205" style="visibility: inherit;" fill="rgb(0, 0, 0)" stroke="rgb(204, 204, 204)" stroke-width="1px"></line><line x1="80" y1="113.27272727272059" x2="75" y2="113.27272727272059" style="visibility: inherit;" fill="rgb(0, 0, 0)" stroke="rgb(204, 204, 204)" stroke-width="1px"></line><line x1="80" y1="97.09090909091913" x2="75" y2="97.09090909091913" style="visibility: inherit;" fill="rgb(0, 0, 0)" stroke="rgb(204, 204, 204)" stroke-width="1px"></line><line x1="80" y1="80.90909090908087" x2="75" y2="80.90909090908087" style="visibility: inherit;" fill="rgb(0, 0, 0)" stroke="rgb(204, 204, 204)" stroke-width="1px"></line><line x1="80" y1="64.72727272727941" x2="75" y2="64.72727272727941" style="visibility: inherit;" fill="rgb(0, 0, 0)" stroke="rgb(204, 204, 204)" stroke-width="1px"></line><line x1="80" y1="48.545454545441174" x2="75" y2="48.545454545441174" style="visibility: inherit;" fill="rgb(0, 0, 0)" stroke="rgb(204, 204, 204)" stroke-width="1px"></line><line x1="80" y1="32.36363636363973" x2="75" y2="32.36363636363973" style="visibility: inherit;" fill="rgb(0, 0, 0)" stroke="rgb(204, 204, 204)" stroke-width="1px"></line><line x1="80" y1="16.181818181838253" x2="75" y2="16.181818181838253" style="visibility: inherit;" fill="rgb(0, 0, 0)" stroke="rgb(204, 204, 204)" stroke-width="1px"></line><line x1="80" y1="0" x2="75" y2="0" style="visibility: inherit;" fill="rgb(0, 0, 0)" stroke="rgb(204, 204, 204)" stroke-width="1px"></line></g><g transform="translate(70, 0)"><text x="0" y="178" dx="0em" dy="0.3em" style="text-anchor: end; visibility: hidden; font-family: &quot;Helvetica Neue&quot;, sans-serif; font-size: 12px; font-weight: 200;" fill="rgb(50, 49, 63)" stroke="none" stroke-width="1px">1.91e+3</text><text x="0" y="161.81818181816175" dx="0em" dy="0.3em" style="text-anchor: end; visibility: inherit; font-family: &quot;Helvetica Neue&quot;, sans-serif; font-size: 12px; font-weight: 200;" fill="rgb(50, 49, 63)" stroke="none" stroke-width="1px">1.91e+3</text><text x="0" y="145.6363636363603" dx="0em" dy="0.3em" style="text-anchor: end; visibility: hidden; font-family: &quot;Helvetica Neue&quot;, sans-serif; font-size: 12px; font-weight: 200;" fill="rgb(50, 49, 63)" stroke="none" stroke-width="1px">1.91e+3</text><text x="0" y="129.45454545452205" dx="0em" dy="0.3em" style="text-anchor: end; visibility: inherit; font-family: &quot;Helvetica Neue&quot;, sans-serif; font-size: 12px; font-weight: 200;" fill="rgb(50, 49, 63)" stroke="none" stroke-width="1px">1.91e+3</text><text x="0" y="113.27272727272059" dx="0em" dy="0.3em" style="text-anchor: end; visibility: hidden; font-family: &quot;Helvetica Neue&quot;, sans-serif; font-size: 12px; font-weight: 200;" fill="rgb(50, 49, 63)" stroke="none" stroke-width="1px">1.91e+3</text><text x="0" y="97.09090909091913" dx="0em" dy="0.3em" style="text-anchor: end; visibility: inherit; font-family: &quot;Helvetica Neue&quot;, sans-serif; font-size: 12px; font-weight: 200;" fill="rgb(50, 49, 63)" stroke="none" stroke-width="1px">1.91e+3</text><text x="0" y="80.90909090908087" dx="0em" dy="0.3em" style="text-anchor: end; visibility: hidden; font-family: &quot;Helvetica Neue&quot;, sans-serif; font-size: 12px; font-weight: 200;" fill="rgb(50, 49, 63)" stroke="none" stroke-width="1px">1.91e+3</text><text x="0" y="64.72727272727941" dx="0em" dy="0.3em" style="text-anchor: end; visibility: inherit; font-family: &quot;Helvetica Neue&quot;, sans-serif; font-size: 12px; font-weight: 200;" fill="rgb(50, 49, 63)" stroke="none" stroke-width="1px">1.91e+3</text><text x="0" y="48.545454545441174" dx="0em" dy="0.3em" style="text-anchor: end; visibility: hidden; font-family: &quot;Helvetica Neue&quot;, sans-serif; font-size: 12px; font-weight: 200;" fill="rgb(50, 49, 63)" stroke="none" stroke-width="1px">1.91e+3</text><text x="0" y="32.36363636363973" dx="0em" dy="0.3em" style="text-anchor: end; visibility: inherit; font-family: &quot;Helvetica Neue&quot;, sans-serif; font-size: 12px; font-weight: 200;" fill="rgb(50, 49, 63)" stroke="none" stroke-width="1px">1.91e+3</text><text x="0" y="16.181818181838253" dx="0em" dy="0.3em" style="text-anchor: end; visibility: hidden; font-family: &quot;Helvetica Neue&quot;, sans-serif; font-size: 12px; font-weight: 200;" fill="rgb(50, 49, 63)" stroke="none" stroke-width="1px">1.91e+3</text><text x="0" y="0" dx="0em" dy="0.3em" style="text-anchor: end; visibility: hidden; font-family: &quot;Helvetica Neue&quot;, sans-serif; font-size: 12px; font-weight: 200;" fill="rgb(50, 49, 63)" stroke="none" stroke-width="1px">1.91e+3</text></g><line x1="80" y1="0" x2="80" y2="178" fill="rgb(0, 0, 0)" stroke="rgb(204, 204, 204)" stroke-width="1px"></line></g></g><g transform="translate(80, 0)" clip-path="url(#clip_0)"><clipPath id="clip_0"><rect width="250" height="178"></rect></clipPath><g><g><g><line x1="0" y1="0" x2="0" y2="178" fill="rgb(0, 0, 0)" stroke="rgb(60, 60, 60)" stroke-width="1px" opacity="0.25"></line><line x1="19.230769230769234" y1="0" x2="19.230769230769234" y2="178" fill="rgb(0, 0, 0)" stroke="rgb(60, 60, 60)" stroke-width="1px" opacity="0.25"></line><line x1="38.46153846153847" y1="0" x2="38.46153846153847" y2="178" fill="rgb(0, 0, 0)" stroke="rgb(60, 60, 60)" stroke-width="1px" opacity="0.25"></line><line x1="57.69230769230769" y1="0" x2="57.69230769230769" y2="178" fill="rgb(0, 0, 0)" stroke="rgb(60, 60, 60)" stroke-width="1px" opacity="0.25"></line><line x1="76.92307692307693" y1="0" x2="76.92307692307693" y2="178" fill="rgb(0, 0, 0)" stroke="rgb(60, 60, 60)" stroke-width="1px" opacity="0.25"></line><line x1="96.15384615384616" y1="0" x2="96.15384615384616" y2="178" fill="rgb(0, 0, 0)" stroke="rgb(60, 60, 60)" stroke-width="1px" opacity="0.25"></line><line x1="115.38461538461539" y1="0" x2="115.38461538461539" y2="178" fill="rgb(0, 0, 0)" stroke="rgb(60, 60, 60)" stroke-width="1px" opacity="0.25"></line><line x1="134.6153846153846" y1="0" x2="134.6153846153846" y2="178" fill="rgb(0, 0, 0)" stroke="rgb(60, 60, 60)" stroke-width="1px" opacity="0.25"></line><line x1="153.84615384615387" y1="0" x2="153.84615384615387" y2="178" fill="rgb(0, 0, 0)" stroke="rgb(60, 60, 60)" stroke-width="1px" opacity="0.25"></line><line x1="173.07692307692307" y1="0" x2="173.07692307692307" y2="178" fill="rgb(0, 0, 0)" stroke="rgb(60, 60, 60)" stroke-width="1px" opacity="0.25"></line><line x1="192.30769230769232" y1="0" x2="192.30769230769232" y2="178" fill="rgb(0, 0, 0)" stroke="rgb(60, 60, 60)" stroke-width="1px" opacity="0.25"></line><line x1="211.53846153846155" y1="0" x2="211.53846153846155" y2="178" fill="rgb(0, 0, 0)" stroke="rgb(60, 60, 60)" stroke-width="1px" opacity="0.25"></line><line x1="230.76923076923077" y1="0" x2="230.76923076923077" y2="178" fill="rgb(0, 0, 0)" stroke="rgb(60, 60, 60)" stroke-width="1px" opacity="0.25"></line><line x1="250" y1="0" x2="250" y2="178" fill="rgb(0, 0, 0)" stroke="rgb(60, 60, 60)" stroke-width="1px" opacity="0.25"></line></g><g><line x1="0" y1="178" x2="250" y2="178" fill="rgb(0, 0, 0)" stroke="rgb(60, 60, 60)" stroke-width="1px" opacity="0.25"></line><line x1="0" y1="161.81818181816175" x2="250" y2="161.81818181816175" fill="rgb(0, 0, 0)" stroke="rgb(60, 60, 60)" stroke-width="1px" opacity="0.25"></line><line x1="0" y1="145.6363636363603" x2="250" y2="145.6363636363603" fill="rgb(0, 0, 0)" stroke="rgb(60, 60, 60)" stroke-width="1px" opacity="0.25"></line><line x1="0" y1="129.45454545452205" x2="250" y2="129.45454545452205" fill="rgb(0, 0, 0)" stroke="rgb(60, 60, 60)" stroke-width="1px" opacity="0.25"></line><line x1="0" y1="113.27272727272059" x2="250" y2="113.27272727272059" fill="rgb(0, 0, 0)" stroke="rgb(60, 60, 60)" stroke-width="1px" opacity="0.25"></line><line x1="0" y1="97.09090909091913" x2="250" y2="97.09090909091913" fill="rgb(0, 0, 0)" stroke="rgb(60, 60, 60)" stroke-width="1px" opacity="0.25"></line><line x1="0" y1="80.90909090908087" x2="250" y2="80.90909090908087" fill="rgb(0, 0, 0)" stroke="rgb(60, 60, 60)" stroke-width="1px" opacity="0.25"></line><line x1="0" y1="64.72727272727941" x2="250" y2="64.72727272727941" fill="rgb(0, 0, 0)" stroke="rgb(60, 60, 60)" stroke-width="1px" opacity="0.25"></line><line x1="0" y1="48.545454545441174" x2="250" y2="48.545454545441174" fill="rgb(0, 0, 0)" stroke="rgb(60, 60, 60)" stroke-width="1px" opacity="0.25"></line><line x1="0" y1="32.36363636363973" x2="250" y2="32.36363636363973" fill="rgb(0, 0, 0)" stroke="rgb(60, 60, 60)" stroke-width="1px" opacity="0.25"></line><line x1="0" y1="16.181818181838253" x2="250" y2="16.181818181838253" fill="rgb(0, 0, 0)" stroke="rgb(60, 60, 60)" stroke-width="1px" opacity="0.25"></line><line x1="0" y1="0" x2="250" y2="0" fill="rgb(0, 0, 0)" stroke="rgb(60, 60, 60)" stroke-width="1px" opacity="0.25"></line></g></g></g><g><g><line x1="0" y1="309105.0909090526" x2="250" y2="309105.0909090526" fill="rgb(0, 0, 0)" stroke="rgb(153, 153, 153)" stroke-width="1.5px"></line></g></g><g><g><line x1="19.230769230769234" y1="0" x2="19.230769230769234" y2="178" fill="rgb(0, 0, 0)" stroke="rgb(153, 153, 153)" stroke-width="1.5px"></line></g></g><g><g><g><g><g><path stroke="rgb(255, 112, 67)" stroke-width="2px" d="M19.230769230769234,12.136363636406287L20.865384615384617,-47.46153883887504L22.78846153846154,75.13088450268715L24.615384615384617,78.86018468535703L26.53846153846154,69.23211105887864L28.461538461538463,77.32099588320406L30.192307692307693,119.40079670317374L31.923076923076923,103.81971151513544L33.75,80.30743688462938L35.48076923076923,99.10605049648119L37.21153846153846,79.35719011748799L39.03846153846153,87.75045242757298L40.86538461538461,94.30284999069569L42.692307692307686,121.08821368182637L44.51923076923077,107.49760412894612L46.25,103.32874054333843L48.07692307692308,94.72918405820961L49.71153846153846,79.98417632279184L51.44230769230769,49.89142238624402L53.07692307692308,20.5043124530865L54.71153846153847,39.63921373521157L56.25,56.35505943553946L57.98076923076923,72.41858942715196L59.80769230769231,100.85754239103557L61.53846153846154,121.25766468363906L63.269230769230774,135.17133728038246L65,177.2711391266147L66.73076923076923,132.96482497861777L68.46153846153847,131.7840791408606L70.1923076923077,92.32757260335278L71.92307692307692,80.91781692454487L73.75,44.74760454266189L75.67307692307692,28.286011983824324L77.5,68.80373101209499L79.23076923076923,31.111041044972353L81.0576923076923,17.249081109386452L82.88461538461539,20.122027671197657L84.61538461538461,57.04886594083409L86.4423076923077,51.07725207754757L88.26923076923077,47.52088811708859L89.90384615384616,24.141154243414405L91.73076923076923,64.14097764753345L93.55769230769232,81.16435023358986L95.38461538461539,103.91961875852171L97.11538461538461,127.47778531360909L98.9423076923077,90.18788699932675L100.76923076923076,97.13772625179811L102.59615384615385,92.51682573794007L104.23076923076923,91.33741696605763L105.96153846153847,118.56494003452033L107.78846153846155,106.02960446081033L109.61538461538461,145.83830972057152L111.25,124.27781743882974L111.34615384615384,120.90700219566718L111.34615384615384,81.02430240938689L111.4423076923077,85.87172992716049L111.53846153846155,112.85736473701496L111.53846153846155,91.15689547290816L111.63461538461539,95.3589202671721L111.63461538461539,107.72875675016319L111.73076923076923,142.09102782382672L111.82692307692308,140.45872907891896L112.78846153846153,167.3186989473742L114.51923076923077,126.30445277043117L116.25,100.76930526507641L117.88461538461537,95.45858696658523L119.51923076923077,164.17741529975822L121.34615384615384,134.00978786150756L122.98076923076923,141.5992954827609L124.61538461538461,141.34023880962957L126.34615384615385,111.66850170240629L127.98076923076923,108.13012183117013L129.71153846153845,106.54384428619862L131.34615384615384,111.66551473743829L132.98076923076923,78.66205380793392L134.71153846153845,54.492624540803945L136.34615384615384,91.2833105211793L138.07692307692307,96.74110967132906L139.71153846153848,107.56848128996963L141.4423076923077,70.22046806224638L143.17307692307693,95.05293511535103L144.8076923076923,94.67151379508968L146.4423076923077,73.86684334874637L148.17307692307693,69.82441575667178L149.90384615384616,56.300313380890955L151.53846153846155,74.81143590619408L153.1730769230769,89.80544506590297L154.90384615384613,91.70085645413792L156.53846153846155,70.17704859851865L158.3653846153846,47.619772870234016L160,66.50038836150752L161.6346153846154,79.23031462133301L163.17307692307693,97.22791853512297L164.32692307692307,116.92896908752323L165.96153846153845,114.95447356840961L167.6923076923077,94.13922307687771L169.42307692307693,52.93621657152144L171.15384615384616,68.24333543939227L172.78846153846152,65.26937443060326L174.51923076923077,59.01728419345433L176.34615384615384,88.54172748629168L177.98076923076923,84.27444423706787L179.71153846153845,88.50430844510869L181.44230769230768,59.901481220372276L183.1730769230769,63.635463905198236L184.80769230769232,61.53699849005888L186.53846153846155,88.01932380604971L188.1730769230769,112.03337955873327L189.90384615384613,61.027682412335665L191.44230769230768,18.42950504793467L193.1730769230769,53.10225411607547L194.80769230769232,49.16191674287978L196.53846153846155,42.12706165232345L198.17307692307693,40.27201084738488L199.90384615384616,49.01915557998865L201.53846153846152,47.134416499152735L203.07692307692307,36.64160463683692L204.71153846153848,42.235344731096404L206.34615384615384,53.169075166242706L208.07692307692307,105.58395949673026L209.8076923076923,100.63827130808056L211.53846153846155,158.12317296658858L213.1730769230769,161.13113373931753L214.90384615384616,143.07186330388754L216.53846153846155,147.65976334225786L218.26923076923077,114.22395376165643L219.90384615384613,98.67049345598984L221.6346153846154,112.97446333577562L223.26923076923077,128.40386075654038L225,146.02466405584693L226.73076923076923,138.52198649669202" style="fill: none;" fill="none"></path></g></g></g></g><g opacity="0.2"><g><g><g><path stroke="rgb(255, 112, 67)" stroke-width="2px" d="M19.230769230769234,12.136363636369481L20.865384615384617,-95.73583984373073L22.78846153846154,254.8636363636121L24.615384615384617,86.30961470170121L26.53846153846154,45.85506924716077L28.461538461538463,99.78129438919953L30.192307692307693,248.12779651986295L31.923076923076923,52.59090909090993L33.75,-1.3550692471515617L35.48076923076923,167.21870561078208L37.21153846153846,5.4005237926203336L39.03846153846153,120.00856711646975L40.86538461538461,120.00856711646975L42.692307692307686,227.90052379259274L44.51923076923077,52.59090909090993L46.25,86.30961470170121L48.07692307692308,59.32674893465908L49.71153846153846,18.872203480118657L51.44230769230769,-75.50856711646054L53.07692307692308,-102.49143288350268L54.71153846153847,120.00856711646975L56.25,126.76416015624164L57.98076923076923,140.23583984373997L59.80769230769231,221.14493075282084L66.73076923076923,-55.28129438919032L68.46153846153847,126.76416015624164L70.1923076923077,-75.50856711646054L71.92307692307692,32.36363636363973L73.75,-109.22727272725183L81.0576923076923,-41.809614701692L82.88461538461539,32.36363636363973L84.61538461538461,214.40909090907167L86.4423076923077,25.627796519890552L88.26923076923077,32.36363636363973L89.90384615384616,-75.50856711646054L91.73076923076923,234.6363636363419L93.55769230769232,153.727272727261L95.38461538461539,200.91765802555062L98.9423076923077,-68.77272727271139L100.76923076923076,126.76416015624164L102.59615384615385,72.81818181818015L104.23076923076923,86.30961470170121L105.96153846153847,234.6363636363419L107.78846153846155,52.59090909090993L109.61538461538461,315.5454545454228L111.25,32.36363636363973L111.34615384615384,106.53688742897143L111.34615384615384,-88.99999999998164L111.4423076923077,106.53688742897143L111.53846153846155,227.90052379259274L111.53846153846155,-1.3550692471515617L111.63461538461539,113.27272727272059L111.63461538461539,160.46311257101019L111.73076923076923,288.5823419744034L111.82692307692308,133.4999999999908L112.78846153846153,281.8267489346315L116.25,-8.090909090900738L117.88461538461537,72.81818181818015L119.51923076923077,457.1363636363143L121.34615384615384,5.4005237926203336L122.98076923076923,173.95454545453123L124.61538461538461,140.23583984373997L126.34615384615385,-14.826748934649885L127.98076923076923,93.04545454545037L129.71153846153845,99.78129438919953L131.34615384615384,133.4999999999908L132.98076923076923,-62.036887428962245L136.34615384615384,248.12779651986295L138.07692307692307,120.00856711646975L139.71153846153848,153.727272727261L141.4423076923077,-88.99999999998164L143.17307692307693,200.91765802555062L144.8076923076923,93.04545454545037L146.4423076923077,-14.826748934649885L148.17307692307693,52.59090909090993L149.90384615384616,-1.3550692471515617L151.53846153846155,153.727272727261L153.1730769230769,153.727272727261L154.90384615384613,99.78129438919953L156.53846153846155,-21.58234197442178L158.3653846153846,-48.545454545441174L160,146.99143288351186L161.6346153846154,133.4999999999908L163.17307692307693,173.95454545453123L164.32692307692307,200.91765802555062L165.96153846153845,106.53688742897143L167.6923076923077,5.4005237926203336L169.42307692307693,-122.71870561077287L171.15384615384616,133.4999999999908L172.78846153846152,52.59090909090993L174.51923076923077,32.36363636363973L176.34615384615384,214.40909090907167L177.98076923076923,66.08234197443099L179.71153846153845,106.53688742897143L181.44230769230768,-62.036887428962245L183.1730769230769,79.5540216619293L184.80769230769232,52.59090909090993L186.53846153846155,200.91765802555062L193.1730769230769,200.91765802555062L194.80769230769232,32.36363636363973L196.53846153846155,12.136363636369481L198.17307692307693,32.36363636363973L199.90384615384616,86.30961470170121L201.53846153846152,39.099476207388875L203.07692307692307,-8.090909090900738L204.71153846153848,66.08234197443099L206.34615384615384,99.78129438919953L208.07692307692307,329.0368874289438L209.8076923076923,79.5540216619293L211.53846153846155,403.1903852982528L213.1730769230769,173.95454545453123L214.90384615384616,66.08234197443099L216.53846153846155,167.21870561078208L218.26923076923077,-28.318181818170956L219.90384615384613,32.36363636363973L221.6346153846154,173.95454545453123L223.26923076923077,194.18181818180145L225,221.14493075282084L226.73076923076923,106.53688742897143" style="fill: none;" fill="none"></path></g></g></g></g></g></g><g transform="translate(80, 178)" clip-path="url(#clip_1)"><clipPath id="clip_1"><rect width="250" height="22"></rect></clipPath><g><g><line x1="0" y1="0" x2="0" y2="5" style="visibility: inherit;" fill="rgb(0, 0, 0)" stroke="rgb(204, 204, 204)" stroke-width="1px"></line><line x1="19.230769230769234" y1="0" x2="19.230769230769234" y2="5" style="visibility: inherit;" fill="rgb(0, 0, 0)" stroke="rgb(204, 204, 204)" stroke-width="1px"></line><line x1="38.46153846153847" y1="0" x2="38.46153846153847" y2="5" style="visibility: inherit;" fill="rgb(0, 0, 0)" stroke="rgb(204, 204, 204)" stroke-width="1px"></line><line x1="57.69230769230769" y1="0" x2="57.69230769230769" y2="5" style="visibility: inherit;" fill="rgb(0, 0, 0)" stroke="rgb(204, 204, 204)" stroke-width="1px"></line><line x1="76.92307692307693" y1="0" x2="76.92307692307693" y2="5" style="visibility: inherit;" fill="rgb(0, 0, 0)" stroke="rgb(204, 204, 204)" stroke-width="1px"></line><line x1="96.15384615384616" y1="0" x2="96.15384615384616" y2="5" style="visibility: inherit;" fill="rgb(0, 0, 0)" stroke="rgb(204, 204, 204)" stroke-width="1px"></line><line x1="115.38461538461539" y1="0" x2="115.38461538461539" y2="5" style="visibility: inherit;" fill="rgb(0, 0, 0)" stroke="rgb(204, 204, 204)" stroke-width="1px"></line><line x1="134.6153846153846" y1="0" x2="134.6153846153846" y2="5" style="visibility: inherit;" fill="rgb(0, 0, 0)" stroke="rgb(204, 204, 204)" stroke-width="1px"></line><line x1="153.84615384615387" y1="0" x2="153.84615384615387" y2="5" style="visibility: inherit;" fill="rgb(0, 0, 0)" stroke="rgb(204, 204, 204)" stroke-width="1px"></line><line x1="173.07692307692307" y1="0" x2="173.07692307692307" y2="5" style="visibility: inherit;" fill="rgb(0, 0, 0)" stroke="rgb(204, 204, 204)" stroke-width="1px"></line><line x1="192.30769230769232" y1="0" x2="192.30769230769232" y2="5" style="visibility: inherit;" fill="rgb(0, 0, 0)" stroke="rgb(204, 204, 204)" stroke-width="1px"></line><line x1="211.53846153846155" y1="0" x2="211.53846153846155" y2="5" style="visibility: inherit;" fill="rgb(0, 0, 0)" stroke="rgb(204, 204, 204)" stroke-width="1px"></line><line x1="230.76923076923077" y1="0" x2="230.76923076923077" y2="5" style="visibility: inherit;" fill="rgb(0, 0, 0)" stroke="rgb(204, 204, 204)" stroke-width="1px"></line><line x1="250" y1="0" x2="250" y2="5" style="visibility: inherit;" fill="rgb(0, 0, 0)" stroke="rgb(204, 204, 204)" stroke-width="1px"></line></g><g transform="translate(0, 8)"><text x="0" y="0" dx="0em" dy="0.95em" style="text-anchor: middle; visibility: hidden; font-family: &quot;Helvetica Neue&quot;, sans-serif; font-size: 12px; font-weight: 200;" fill="rgb(50, 49, 63)" stroke="none" stroke-width="1px">-200</text><text x="19.230769230769234" y="0" dx="0em" dy="0.95em" style="text-anchor: middle; visibility: inherit; font-family: &quot;Helvetica Neue&quot;, sans-serif; font-size: 12px; font-weight: 200;" fill="rgb(50, 49, 63)" stroke="none" stroke-width="1px">0</text><text x="38.46153846153847" y="0" dx="0em" dy="0.95em" style="text-anchor: middle; visibility: hidden; font-family: &quot;Helvetica Neue&quot;, sans-serif; font-size: 12px; font-weight: 200;" fill="rgb(50, 49, 63)" stroke="none" stroke-width="1px">200</text><text x="57.69230769230769" y="0" dx="0em" dy="0.95em" style="text-anchor: middle; visibility: inherit; font-family: &quot;Helvetica Neue&quot;, sans-serif; font-size: 12px; font-weight: 200;" fill="rgb(50, 49, 63)" stroke="none" stroke-width="1px">400</text><text x="76.92307692307693" y="0" dx="0em" dy="0.95em" style="text-anchor: middle; visibility: hidden; font-family: &quot;Helvetica Neue&quot;, sans-serif; font-size: 12px; font-weight: 200;" fill="rgb(50, 49, 63)" stroke="none" stroke-width="1px">600</text><text x="96.15384615384616" y="0" dx="0em" dy="0.95em" style="text-anchor: middle; visibility: inherit; font-family: &quot;Helvetica Neue&quot;, sans-serif; font-size: 12px; font-weight: 200;" fill="rgb(50, 49, 63)" stroke="none" stroke-width="1px">800</text><text x="115.38461538461539" y="0" dx="0em" dy="0.95em" style="text-anchor: middle; visibility: hidden; font-family: &quot;Helvetica Neue&quot;, sans-serif; font-size: 12px; font-weight: 200;" fill="rgb(50, 49, 63)" stroke="none" stroke-width="1px">1k</text><text x="134.6153846153846" y="0" dx="0em" dy="0.95em" style="text-anchor: middle; visibility: inherit; font-family: &quot;Helvetica Neue&quot;, sans-serif; font-size: 12px; font-weight: 200;" fill="rgb(50, 49, 63)" stroke="none" stroke-width="1px">1.2k</text><text x="153.84615384615387" y="0" dx="0em" dy="0.95em" style="text-anchor: middle; visibility: hidden; font-family: &quot;Helvetica Neue&quot;, sans-serif; font-size: 12px; font-weight: 200;" fill="rgb(50, 49, 63)" stroke="none" stroke-width="1px">1.4k</text><text x="173.07692307692307" y="0" dx="0em" dy="0.95em" style="text-anchor: middle; visibility: inherit; font-family: &quot;Helvetica Neue&quot;, sans-serif; font-size: 12px; font-weight: 200;" fill="rgb(50, 49, 63)" stroke="none" stroke-width="1px">1.6k</text><text x="192.30769230769232" y="0" dx="0em" dy="0.95em" style="text-anchor: middle; visibility: hidden; font-family: &quot;Helvetica Neue&quot;, sans-serif; font-size: 12px; font-weight: 200;" fill="rgb(50, 49, 63)" stroke="none" stroke-width="1px">1.8k</text><text x="211.53846153846155" y="0" dx="0em" dy="0.95em" style="text-anchor: middle; visibility: inherit; font-family: &quot;Helvetica Neue&quot;, sans-serif; font-size: 12px; font-weight: 200;" fill="rgb(50, 49, 63)" stroke="none" stroke-width="1px">2k</text><text x="230.76923076923077" y="0" dx="0em" dy="0.95em" style="text-anchor: middle; visibility: hidden; font-family: &quot;Helvetica Neue&quot;, sans-serif; font-size: 12px; font-weight: 200;" fill="rgb(50, 49, 63)" stroke="none" stroke-width="1px">2.2k</text><text x="250" y="0" dx="0em" dy="0.95em" style="text-anchor: middle; visibility: hidden; font-family: &quot;Helvetica Neue&quot;, sans-serif; font-size: 12px; font-weight: 200;" fill="rgb(50, 49, 63)" stroke="none" stroke-width="1px">2.4k</text></g><line x1="0" y1="0" x2="250" y2="0" fill="rgb(0, 0, 0)" stroke="rgb(204, 204, 204)" stroke-width="1px"></line></g></g></g></g></svg>