<svg viewBox="0 0 330 200" xmlns="http://www.w3.org/2000/svg"><g><g><g><g><g><line x1="60" y1="178" x2="55" y2="178" style="visibility: inherit;" fill="rgb(0, 0, 0)" stroke="rgb(204, 204, 204)" stroke-width="1px"></line><line x1="60" y1="161.81818181818178" x2="55" y2="161.81818181818178" style="visibility: inherit;" fill="rgb(0, 0, 0)" stroke="rgb(204, 204, 204)" stroke-width="1px"></line><line x1="60" y1="145.63636363636357" x2="55" y2="145.63636363636357" style="visibility: inherit;" fill="rgb(0, 0, 0)" stroke="rgb(204, 204, 204)" stroke-width="1px"></line><line x1="60" y1="129.45454545454572" x2="55" y2="129.45454545454572" style="visibility: inherit;" fill="rgb(0, 0, 0)" stroke="rgb(204, 204, 204)" stroke-width="1px"></line><line x1="60" y1="113.27272727272714" x2="55" y2="113.27272727272714" style="visibility: inherit;" fill="rgb(0, 0, 0)" stroke="rgb(204, 204, 204)" stroke-width="1px"></line><line x1="60" y1="97.09090909090929" x2="55" y2="97.09090909090929" style="visibility: inherit;" fill="rgb(0, 0, 0)" stroke="rgb(204, 204, 204)" stroke-width="1px"></line><line x1="60" y1="80.90909090909072" x2="55" y2="80.90909090909072" style="visibility: inherit;" fill="rgb(0, 0, 0)" stroke="rgb(204, 204, 204)" stroke-width="1px"></line><line x1="60" y1="64.72727272727286" x2="55" y2="64.72727272727286" style="visibility: inherit;" fill="rgb(0, 0, 0)" stroke="rgb(204, 204, 204)" stroke-width="1px"></line><line x1="60" y1="48.54545454545428" x2="55" y2="48.54545454545428" style="visibility: inherit;" fill="rgb(0, 0, 0)" stroke="rgb(204, 204, 204)" stroke-width="1px"></line><line x1="60" y1="32.36363636363643" x2="55" y2="32.36363636363643" style="visibility: inherit;" fill="rgb(0, 0, 0)" stroke="rgb(204, 204, 204)" stroke-width="1px"></line><line x1="60" y1="16.181818181817846" x2="55" y2="16.181818181817846" style="visibility: inherit;" fill="rgb(0, 0, 0)" stroke="rgb(204, 204, 204)" stroke-width="1px"></line><line x1="60" y1="0" x2="55" y2="0" style="visibility: inherit;" fill="rgb(0, 0, 0)" stroke="rgb(204, 204, 204)" stroke-width="1px"></line></g><g transform="translate(50, 0)"><text x="0" y="178" dx="0em" dy="0.3em" style="text-anchor: end; visibility: hidden; font-family: &quot;Helvetica Neue&quot;, sans-serif; font-size: 12px; font-weight: 200;" fill="rgb(50, 49, 63)" stroke="none" stroke-width="1px">0.99</text><text x="0" y="161.81818181818178" dx="0em" dy="0.3em" style="text-anchor: end; visibility: inherit; font-family: &quot;Helvetica Neue&quot;, sans-serif; font-size: 12px; font-weight: 200;" fill="rgb(50, 49, 63)" stroke="none" stroke-width="1px">0.995</text><text x="0" y="145.63636363636357" dx="0em" dy="0.3em" style="text-anchor: end; visibility: hidden; font-family: &quot;Helvetica Neue&quot;, sans-serif; font-size: 12px; font-weight: 200;" fill="rgb(50, 49, 63)" stroke="none" stroke-width="1px">1</text><text x="0" y="129.45454545454572" dx="0em" dy="0.3em" style="text-anchor: end; visibility: inherit; font-family: &quot;Helvetica Neue&quot;, sans-serif; font-size: 12px; font-weight: 200;" fill="rgb(50, 49, 63)" stroke="none" stroke-width="1px">1</text><text x="0" y="113.27272727272714" dx="0em" dy="0.3em" style="text-anchor: end; visibility: hidden; font-family: &quot;Helvetica Neue&quot;, sans-serif; font-size: 12px; font-weight: 200;" fill="rgb(50, 49, 63)" stroke="none" stroke-width="1px">1.01</text><text x="0" y="97.09090909090929" dx="0em" dy="0.3em" style="text-anchor: end; visibility: inherit; font-family: &quot;Helvetica Neue&quot;, sans-serif; font-size: 12px; font-weight: 200;" fill="rgb(50, 49, 63)" stroke="none" stroke-width="1px">1.01</text><text x="0" y="80.90909090909072" dx="0em" dy="0.3em" style="text-anchor: end; visibility: hidden; font-family: &quot;Helvetica Neue&quot;, sans-serif; font-size: 12px; font-weight: 200;" fill="rgb(50, 49, 63)" stroke="none" stroke-width="1px">1.02</text><text x="0" y="64.72727272727286" dx="0em" dy="0.3em" style="text-anchor: end; visibility: inherit; font-family: &quot;Helvetica Neue&quot;, sans-serif; font-size: 12px; font-weight: 200;" fill="rgb(50, 49, 63)" stroke="none" stroke-width="1px">1.02</text><text x="0" y="48.54545454545428" dx="0em" dy="0.3em" style="text-anchor: end; visibility: hidden; font-family: &quot;Helvetica Neue&quot;, sans-serif; font-size: 12px; font-weight: 200;" fill="rgb(50, 49, 63)" stroke="none" stroke-width="1px">1.03</text><text x="0" y="32.36363636363643" dx="0em" dy="0.3em" style="text-anchor: end; visibility: inherit; font-family: &quot;Helvetica Neue&quot;, sans-serif; font-size: 12px; font-weight: 200;" fill="rgb(50, 49, 63)" stroke="none" stroke-width="1px">1.03</text><text x="0" y="16.181818181817846" dx="0em" dy="0.3em" style="text-anchor: end; visibility: hidden; font-family: &quot;Helvetica Neue&quot;, sans-serif; font-size: 12px; font-weight: 200;" fill="rgb(50, 49, 63)" stroke="none" stroke-width="1px">1.04</text><text x="0" y="0" dx="0em" dy="0.3em" style="text-anchor: end; visibility: hidden; font-family: &quot;Helvetica Neue&quot;, sans-serif; font-size: 12px; font-weight: 200;" fill="rgb(50, 49, 63)" stroke="none" stroke-width="1px">1.04</text></g><line x1="60" y1="0" x2="60" y2="178" fill="rgb(0, 0, 0)" stroke="rgb(204, 204, 204)" stroke-width="1px"></line></g></g><g transform="translate(60, 0)" clip-path="url(#clip_0)"><clipPath id="clip_0"><rect width="270" height="178"></rect></clipPath><g><g><g><line x1="0" y1="0" x2="0" y2="178" fill="rgb(0, 0, 0)" stroke="rgb(60, 60, 60)" stroke-width="1px" opacity="0.25"></line><line x1="20.76923076923077" y1="0" x2="20.76923076923077" y2="178" fill="rgb(0, 0, 0)" stroke="rgb(60, 60, 60)" stroke-width="1px" opacity="0.25"></line><line x1="41.53846153846154" y1="0" x2="41.53846153846154" y2="178" fill="rgb(0, 0, 0)" stroke="rgb(60, 60, 60)" stroke-width="1px" opacity="0.25"></line><line x1="62.307692307692314" y1="0" x2="62.307692307692314" y2="178" fill="rgb(0, 0, 0)" stroke="rgb(60, 60, 60)" stroke-width="1px" opacity="0.25"></line><line x1="83.07692307692308" y1="0" x2="83.07692307692308" y2="178" fill="rgb(0, 0, 0)" stroke="rgb(60, 60, 60)" stroke-width="1px" opacity="0.25"></line><line x1="103.84615384615385" y1="0" x2="103.84615384615385" y2="178" fill="rgb(0, 0, 0)" stroke="rgb(60, 60, 60)" stroke-width="1px" opacity="0.25"></line><line x1="124.61538461538463" y1="0" x2="124.61538461538463" y2="178" fill="rgb(0, 0, 0)" stroke="rgb(60, 60, 60)" stroke-width="1px" opacity="0.25"></line><line x1="145.3846153846154" y1="0" x2="145.3846153846154" y2="178" fill="rgb(0, 0, 0)" stroke="rgb(60, 60, 60)" stroke-width="1px" opacity="0.25"></line><line x1="166.15384615384616" y1="0" x2="166.15384615384616" y2="178" fill="rgb(0, 0, 0)" stroke="rgb(60, 60, 60)" stroke-width="1px" opacity="0.25"></line><line x1="186.9230769230769" y1="0" x2="186.9230769230769" y2="178" fill="rgb(0, 0, 0)" stroke="rgb(60, 60, 60)" stroke-width="1px" opacity="0.25"></line><line x1="207.6923076923077" y1="0" x2="207.6923076923077" y2="178" fill="rgb(0, 0, 0)" stroke="rgb(60, 60, 60)" stroke-width="1px" opacity="0.25"></line><line x1="228.46153846153845" y1="0" x2="228.46153846153845" y2="178" fill="rgb(0, 0, 0)" stroke="rgb(60, 60, 60)" stroke-width="1px" opacity="0.25"></line><line x1="249.23076923076925" y1="0" x2="249.23076923076925" y2="178" fill="rgb(0, 0, 0)" stroke="rgb(60, 60, 60)" stroke-width="1px" opacity="0.25"></line><line x1="270" y1="0" x2="270" y2="178" fill="rgb(0, 0, 0)" stroke="rgb(60, 60, 60)" stroke-width="1px" opacity="0.25"></line></g><g><line x1="0" y1="178" x2="270" y2="178" fill="rgb(0, 0, 0)" stroke="rgb(60, 60, 60)" stroke-width="1px" opacity="0.25"></line><line x1="0" y1="161.81818181818178" x2="270" y2="161.81818181818178" fill="rgb(0, 0, 0)" stroke="rgb(60, 60, 60)" stroke-width="1px" opacity="0.25"></line><line x1="0" y1="145.63636363636357" x2="270" y2="145.63636363636357" fill="rgb(0, 0, 0)" stroke="rgb(60, 60, 60)" stroke-width="1px" opacity="0.25"></line><line x1="0" y1="129.45454545454572" x2="270" y2="129.45454545454572" fill="rgb(0, 0, 0)" stroke="rgb(60, 60, 60)" stroke-width="1px" opacity="0.25"></line><line x1="0" y1="113.27272727272714" x2="270" y2="113.27272727272714" fill="rgb(0, 0, 0)" stroke="rgb(60, 60, 60)" stroke-width="1px" opacity="0.25"></line><line x1="0" y1="97.09090909090929" x2="270" y2="97.09090909090929" fill="rgb(0, 0, 0)" stroke="rgb(60, 60, 60)" stroke-width="1px" opacity="0.25"></line><line x1="0" y1="80.90909090909072" x2="270" y2="80.90909090909072" fill="rgb(0, 0, 0)" stroke="rgb(60, 60, 60)" stroke-width="1px" opacity="0.25"></line><line x1="0" y1="64.72727272727286" x2="270" y2="64.72727272727286" fill="rgb(0, 0, 0)" stroke="rgb(60, 60, 60)" stroke-width="1px" opacity="0.25"></line><line x1="0" y1="48.54545454545428" x2="270" y2="48.54545454545428" fill="rgb(0, 0, 0)" stroke="rgb(60, 60, 60)" stroke-width="1px" opacity="0.25"></line><line x1="0" y1="32.36363636363643" x2="270" y2="32.36363636363643" fill="rgb(0, 0, 0)" stroke="rgb(60, 60, 60)" stroke-width="1px" opacity="0.25"></line><line x1="0" y1="16.181818181817846" x2="270" y2="16.181818181817846" fill="rgb(0, 0, 0)" stroke="rgb(60, 60, 60)" stroke-width="1px" opacity="0.25"></line><line x1="0" y1="0" x2="270" y2="0" fill="rgb(0, 0, 0)" stroke="rgb(60, 60, 60)" stroke-width="1px" opacity="0.25"></line></g></g></g><g><g><line x1="0" y1="3382.0000000000036" x2="270" y2="3382.0000000000036" fill="rgb(0, 0, 0)" stroke="rgb(153, 153, 153)" stroke-width="1.5px"></line></g></g><g><g><line x1="20.76923076923077" y1="0" x2="20.76923076923077" y2="178" fill="rgb(0, 0, 0)" stroke="rgb(153, 153, 153)" stroke-width="1.5px"></line></g></g><g><g><g><g><g><path stroke="rgb(255, 112, 67)" stroke-width="2px" d="M20.76923076923077,145.63636363636357L22.534615384615385,145.63636363636357L24.611538461538462,145.63636363636428L26.584615384615386,100.65003776227348L28.661538461538463,113.7732052456119L30.73846153846154,157.9155244225523L32.607692307692304,154.8904420593566L34.47692307692308,152.73224977077084L36.45,151.14593390369973L38.31923076923077,149.95423248061633L40.18846153846154,120.62432585214003L42.161538461538456,125.78854437389415L44.13461538461539,129.82011298301936L46.107692307692304,51.882729739008596L48.08076923076923,43.72909027139514L49.95,10.715439136516551L51.92307692307693,37.08379358704835L53.68846153846154,58.184138906306245L55.55769230769231,75.1089047944037L57.323076923076925,88.71016054345954L59.088461538461544,99.65720276025672L60.75,108.47879278936931L62.61923076923077,115.59462732038686L64.59230769230768,69.76853151107592L66.46153846153847,58.50417798201596L68.33076923076923,49.40010006888414L70.2,67.7470283014684L72.06923076923077,82.58664665314876L73.93846153846154,68.9145732712016L75.8076923076923,83.5179558695258L77.67692307692307,69.67912215165374L79.64999999999999,84.12803356700232L81.72692307692309,95.82578769328401L83.7,79.65610130980461L85.56923076923077,92.20021102441368L87.54230769230769,102.35823551051988L89.51538461538462,110.58446164214612L91.38461538461539,91.61681930579957L93.3576923076923,101.88330182075393L95.33076923076922,110.19820015898202L97.09615384615384,116.9326429759486L99.06923076923077,122.3871317539576L101.0423076923077,126.8049987538369L103.01538461538462,104.7596971197634L104.88461538461539,86.90371584969715L106.8576923076923,98.06360753523617L108.83076923076922,81.48041468024635L110.80384615384615,93.6705384840286L112.56923076923076,103.54436904414727L114.43846153846154,85.92019220695815L116.41153846153847,97.26650889151956L118.38461538461539,55.213599763059946L120.15,72.39416741672643L120.25384615384615,86.31034381339212L120.25384615384615,97.58239197455842L120.3576923076923,106.71271508346148L120.46153846153847,114.1082532467325L120.46153846153847,94.47730991267825L120.56538461538462,78.57627904024497L120.56538461538462,65.6964658345019L120.66923076923077,55.26383144140543L120.77307692307691,72.4346489384008L121.81153846153846,60.7217669429876L123.68076923076924,51.234339439482824L125.55000000000001,69.17074423271676L127.31538461538462,83.69922516988485L129.08076923076922,-7.017609588912819L131.05384615384614,21.986662679634406L132.81923076923076,19.858917143190013L134.58461538461538,18.13544361333541L136.45384615384617,42.3606261214818L138.21923076923076,61.98302130375335L140.08846153846153,52.255966630535525L141.85384615384615,69.99824506012064L143.61923076923077,109.99071740259386L145.48846153846154,91.14220041012682L147.25384615384615,75.87490236496723L149.12307692307692,89.12958097080663L150.88846153846154,48.62341861362779L152.7576923076923,92.67710460903665L154.62692307692308,102.73936421325804L156.3923076923077,85.26860586960697L158.15769230769232,122.35970512451183L160.02692307692308,126.78227033263204L161.89615384615385,130.36454811996032L163.66153846153847,107.64500507488216L165.42692307692306,63.62091404413245L167.29615384615383,53.58266169095167L169.06153846153848,45.45167731540769L171.03461538461536,64.4867678268496L172.8,79.90519110313002L174.5653846153846,66.77292614752491L176.22692307692307,30.514530481869457L177.47307692307692,1.1452300311422903L179.23846153846154,28.59854547168382L181.1076923076923,50.835730959418285L182.97692307692307,68.84785119194993L184.84615384615384,83.43766857207659L186.61153846153846,120.87664500525894L188.48076923076923,125.58099154848696L190.45384615384614,129.3915122473614L192.21923076923076,106.85684631392061L194.08846153846153,88.6037669114203L195.9576923076923,99.43996029245032L197.82692307692307,108.2172769299528L199.59230769230768,115.32690340558702L201.46153846153845,121.08570085036415L203.22692307692307,74.50787809689817L205.09615384615384,88.0222903508285L206.7576923076923,98.96896427601892L208.62692307692308,82.21458246640051L210.3923076923077,94.26472088937085L212.26153846153846,104.02533301174483L214.02692307692308,111.93142883071471L215.89615384615385,118.33536644397958L217.66153846153844,123.52255591065864L219.3230769230769,102.10299169120195L221.08846153846156,110.37433236091395L222.85384615384615,117.07411830333552L224.72307692307692,71.25849623941733L226.59230769230768,59.76910335781956L228.46153846153845,50.462695123758664L230.22692307692307,42.924504454191236L232.09615384615387,62.43975769889168L233.86153846153846,78.24711282706899L235.73076923076923,65.42988279387662L237.49615384615385,80.6691141539852L239.3653846153846,93.01289155566133L241.13076923076923,77.39016356404997L243,64.73575389085363L244.86923076923077,80.10686974251576" style="fill: none;" fill="none"></path></g></g></g></g><g opacity="0.2"><g><g><g><path stroke="rgb(255, 112, 67)" stroke-width="2px" d="M20.76923076923077,145.63636363636357L22.534615384615385,145.63636363636357L24.611538461538462,145.63636363636357L26.584615384615386,10.788007389415185L28.661538461538463,145.63636363636357L30.73846153846154,280.48491278561687L32.607692307692304,145.63636363636357L34.47692307692308,145.63636363636357L36.45,145.63636363636357L38.31923076923077,145.63636363636357L40.18846153846154,10.788007389415185L42.161538461538456,145.63636363636357L44.13461538461539,145.63636363636357L46.107692307692304,-258.90909090909145L48.08076923076923,10.788007389415185L49.95,-124.06073466214303L51.92307692307693,145.63636363636357L53.68846153846154,145.63636363636357L55.55769230769231,145.63636363636357L57.323076923076925,145.63636363636357L59.088461538461544,145.63636363636357L60.75,145.63636363636357L62.61923076923077,145.63636363636357L64.59230769230768,-124.06073466214303L66.46153846153847,10.788007389415185L68.33076923076923,10.788007389415185L70.2,145.63636363636357L72.06923076923077,145.63636363636357L73.93846153846154,10.788007389415185L75.8076923076923,145.63636363636357L77.67692307692307,10.788007389415185L79.64999999999999,145.63636363636357L81.72692307692309,145.63636363636357L83.7,10.788007389415185L85.56923076923077,145.63636363636357L87.54230769230769,145.63636363636357L89.51538461538462,145.63636363636357L91.38461538461539,10.788007389415185L93.3576923076923,145.63636363636357L95.33076923076922,145.63636363636357L97.09615384615384,145.63636363636357L99.06923076923077,145.63636363636357L101.0423076923077,145.63636363636357L103.01538461538462,10.788007389415185L104.88461538461539,10.788007389415185L106.8576923076923,145.63636363636357L108.83076923076922,10.788007389415185L110.80384615384615,145.63636363636357L112.56923076923076,145.63636363636357L114.43846153846154,10.788007389415185L116.41153846153847,145.63636363636357L118.38461538461539,-124.06073466214303L120.15,145.63636363636357L120.25384615384615,145.63636363636357L120.25384615384615,145.63636363636357L120.3576923076923,145.63636363636357L120.46153846153847,145.63636363636357L120.46153846153847,10.788007389415185L120.56538461538462,10.788007389415185L120.56538461538462,10.788007389415185L120.66923076923077,10.788007389415185L120.77307692307691,145.63636363636357L121.81153846153846,10.788007389415185L123.68076923076924,10.788007389415185L125.55000000000001,145.63636363636357L127.31538461538462,145.63636363636357L129.08076923076922,-393.7574471560398L131.05384615384614,145.63636363636357L132.81923076923076,10.788007389415185L134.58461538461538,10.788007389415185L136.45384615384617,145.63636363636357L138.21923076923076,145.63636363636357L140.08846153846153,10.788007389415185L141.85384615384615,145.63636363636357L143.61923076923077,280.48491278561687L145.48846153846154,10.788007389415185L147.25384615384615,10.788007389415185L149.12307692307692,145.63636363636357L150.88846153846154,-124.06073466214303L152.7576923076923,280.48491278561687L154.62692307692308,145.63636363636357L156.3923076923077,10.788007389415185L158.15769230769232,280.48491278561687L160.02692307692308,145.63636363636357L161.89615384615385,145.63636363636357L163.66153846153847,10.788007389415185L165.42692307692306,-124.06073466214303L167.29615384615383,10.788007389415185L169.06153846153848,10.788007389415185L171.03461538461536,145.63636363636357L172.8,145.63636363636357L174.5653846153846,10.788007389415185L176.22692307692307,-124.06073466214303L177.47307692307692,-124.06073466214303L179.23846153846154,145.63636363636357L181.1076923076923,145.63636363636357L182.97692307692307,145.63636363636357L184.84615384615384,145.63636363636357L186.61153846153846,280.48491278561687L188.48076923076923,145.63636363636357L190.45384615384614,145.63636363636357L192.21923076923076,10.788007389415185L194.08846153846153,10.788007389415185L195.9576923076923,145.63636363636357L197.82692307692307,145.63636363636357L199.59230769230768,145.63636363636357L201.46153846153845,145.63636363636357L203.22692307692307,-124.06073466214303L205.09615384615384,145.63636363636357L206.7576923076923,145.63636363636357L208.62692307692308,10.788007389415185L210.3923076923077,145.63636363636357L212.26153846153846,145.63636363636357L214.02692307692308,145.63636363636357L215.89615384615385,145.63636363636357L217.66153846153844,145.63636363636357L219.3230769230769,10.788007389415185L221.08846153846156,145.63636363636357L222.85384615384615,145.63636363636357L224.72307692307692,-124.06073466214303L226.59230769230768,10.788007389415185L228.46153846153845,10.788007389415185L230.22692307692307,10.788007389415185L232.09615384615387,145.63636363636357L233.86153846153846,145.63636363636357L235.73076923076923,10.788007389415185L237.49615384615385,145.63636363636357L239.3653846153846,145.63636363636357L241.13076923076923,10.788007389415185L243,10.788007389415185L244.86923076923077,145.63636363636357" style="fill: none;" fill="none"></path></g></g></g></g></g></g><g transform="translate(60, 178)" clip-path="url(#clip_1)"><clipPath id="clip_1"><rect width="270" height="22"></rect></clipPath><g><g><line x1="0" y1="0" x2="0" y2="5" style="visibility: inherit;" fill="rgb(0, 0, 0)" stroke="rgb(204, 204, 204)" stroke-width="1px"></line><line x1="20.76923076923077" y1="0" x2="20.76923076923077" y2="5" style="visibility: inherit;" fill="rgb(0, 0, 0)" stroke="rgb(204, 204, 204)" stroke-width="1px"></line><line x1="41.53846153846154" y1="0" x2="41.53846153846154" y2="5" style="visibility: inherit;" fill="rgb(0, 0, 0)" stroke="rgb(204, 204, 204)" stroke-width="1px"></line><line x1="62.307692307692314" y1="0" x2="62.307692307692314" y2="5" style="visibility: inherit;" fill="rgb(0, 0, 0)" stroke="rgb(204, 204, 204)" stroke-width="1px"></line><line x1="83.07692307692308" y1="0" x2="83.07692307692308" y2="5" style="visibility: inherit;" fill="rgb(0, 0, 0)" stroke="rgb(204, 204, 204)" stroke-width="1px"></line><line x1="103.84615384615385" y1="0" x2="103.84615384615385" y2="5" style="visibility: inherit;" fill="rgb(0, 0, 0)" stroke="rgb(204, 204, 204)" stroke-width="1px"></line><line x1="124.61538461538463" y1="0" x2="124.61538461538463" y2="5" style="visibility: inherit;" fill="rgb(0, 0, 0)" stroke="rgb(204, 204, 204)" stroke-width="1px"></line><line x1="145.3846153846154" y1="0" x2="145.3846153846154" y2="5" style="visibility: inherit;" fill="rgb(0, 0, 0)" stroke="rgb(204, 204, 204)" stroke-width="1px"></line><line x1="166.15384615384616" y1="0" x2="166.15384615384616" y2="5" style="visibility: inherit;" fill="rgb(0, 0, 0)" stroke="rgb(204, 204, 204)" stroke-width="1px"></line><line x1="186.9230769230769" y1="0" x2="186.9230769230769" y2="5" style="visibility: inherit;" fill="rgb(0, 0, 0)" stroke="rgb(204, 204, 204)" stroke-width="1px"></line><line x1="207.6923076923077" y1="0" x2="207.6923076923077" y2="5" style="visibility: inherit;" fill="rgb(0, 0, 0)" stroke="rgb(204, 204, 204)" stroke-width="1px"></line><line x1="228.46153846153845" y1="0" x2="228.46153846153845" y2="5" style="visibility: inherit;" fill="rgb(0, 0, 0)" stroke="rgb(204, 204, 204)" stroke-width="1px"></line><line x1="249.23076923076925" y1="0" x2="249.23076923076925" y2="5" style="visibility: inherit;" fill="rgb(0, 0, 0)" stroke="rgb(204, 204, 204)" stroke-width="1px"></line><line x1="270" y1="0" x2="270" y2="5" style="visibility: inherit;" fill="rgb(0, 0, 0)" stroke="rgb(204, 204, 204)" stroke-width="1px"></line></g><g transform="translate(0, 8)"><text x="0" y="0" dx="0em" dy="0.95em" style="text-anchor: middle; visibility: hidden; font-family: &quot;Helvetica Neue&quot;, sans-serif; font-size: 12px; font-weight: 200;" fill="rgb(50, 49, 63)" stroke="none" stroke-width="1px">-200</text><text x="20.76923076923077" y="0" dx="0em" dy="0.95em" style="text-anchor: middle; visibility: inherit; font-family: &quot;Helvetica Neue&quot;, sans-serif; font-size: 12px; font-weight: 200;" fill="rgb(50, 49, 63)" stroke="none" stroke-width="1px">0</text><text x="41.53846153846154" y="0" dx="0em" dy="0.95em" style="text-anchor: middle; visibility: hidden; font-family: &quot;Helvetica Neue&quot;, sans-serif; font-size: 12px; font-weight: 200;" fill="rgb(50, 49, 63)" stroke="none" stroke-width="1px">200</text><text x="62.307692307692314" y="0" dx="0em" dy="0.95em" style="text-anchor: middle; visibility: inherit; font-family: &quot;Helvetica Neue&quot;, sans-serif; font-size: 12px; font-weight: 200;" fill="rgb(50, 49, 63)" stroke="none" stroke-width="1px">400</text><text x="83.07692307692308" y="0" dx="0em" dy="0.95em" style="text-anchor: middle; visibility: hidden; font-family: &quot;Helvetica Neue&quot;, sans-serif; font-size: 12px; font-weight: 200;" fill="rgb(50, 49, 63)" stroke="none" stroke-width="1px">600</text><text x="103.84615384615385" y="0" dx="0em" dy="0.95em" style="text-anchor: middle; visibility: inherit; font-family: &quot;Helvetica Neue&quot;, sans-serif; font-size: 12px; font-weight: 200;" fill="rgb(50, 49, 63)" stroke="none" stroke-width="1px">800</text><text x="124.61538461538463" y="0" dx="0em" dy="0.95em" style="text-anchor: middle; visibility: hidden; font-family: &quot;Helvetica Neue&quot;, sans-serif; font-size: 12px; font-weight: 200;" fill="rgb(50, 49, 63)" stroke="none" stroke-width="1px">1k</text><text x="145.3846153846154" y="0" dx="0em" dy="0.95em" style="text-anchor: middle; visibility: inherit; font-family: &quot;Helvetica Neue&quot;, sans-serif; font-size: 12px; font-weight: 200;" fill="rgb(50, 49, 63)" stroke="none" stroke-width="1px">1.2k</text><text x="166.15384615384616" y="0" dx="0em" dy="0.95em" style="text-anchor: middle; visibility: hidden; font-family: &quot;Helvetica Neue&quot;, sans-serif; font-size: 12px; font-weight: 200;" fill="rgb(50, 49, 63)" stroke="none" stroke-width="1px">1.4k</text><text x="186.9230769230769" y="0" dx="0em" dy="0.95em" style="text-anchor: middle; visibility: inherit; font-family: &quot;Helvetica Neue&quot;, sans-serif; font-size: 12px; font-weight: 200;" fill="rgb(50, 49, 63)" stroke="none" stroke-width="1px">1.6k</text><text x="207.6923076923077" y="0" dx="0em" dy="0.95em" style="text-anchor: middle; visibility: hidden; font-family: &quot;Helvetica Neue&quot;, sans-serif; font-size: 12px; font-weight: 200;" fill="rgb(50, 49, 63)" stroke="none" stroke-width="1px">1.8k</text><text x="228.46153846153845" y="0" dx="0em" dy="0.95em" style="text-anchor: middle; visibility: inherit; font-family: &quot;Helvetica Neue&quot;, sans-serif; font-size: 12px; font-weight: 200;" fill="rgb(50, 49, 63)" stroke="none" stroke-width="1px">2k</text><text x="249.23076923076925" y="0" dx="0em" dy="0.95em" style="text-anchor: middle; visibility: hidden; font-family: &quot;Helvetica Neue&quot;, sans-serif; font-size: 12px; font-weight: 200;" fill="rgb(50, 49, 63)" stroke="none" stroke-width="1px">2.2k</text><text x="270" y="0" dx="0em" dy="0.95em" style="text-anchor: middle; visibility: hidden; font-family: &quot;Helvetica Neue&quot;, sans-serif; font-size: 12px; font-weight: 200;" fill="rgb(50, 49, 63)" stroke="none" stroke-width="1px">2.4k</text></g><line x1="0" y1="0" x2="270" y2="0" fill="rgb(0, 0, 0)" stroke="rgb(204, 204, 204)" stroke-width="1px"></line></g></g></g></g></svg>