<svg viewBox="0 0 330 200" xmlns="http://www.w3.org/2000/svg"><g><g><g><g><g><line x1="40" y1="178" x2="35" y2="178" style="visibility: inherit;" fill="rgb(0, 0, 0)" stroke="rgb(204, 204, 204)" stroke-width="1px"></line><line x1="40" y1="161.81818181818173" x2="35" y2="161.81818181818173" style="visibility: inherit;" fill="rgb(0, 0, 0)" stroke="rgb(204, 204, 204)" stroke-width="1px"></line><line x1="40" y1="145.63636363636363" x2="35" y2="145.63636363636363" style="visibility: inherit;" fill="rgb(0, 0, 0)" stroke="rgb(204, 204, 204)" stroke-width="1px"></line><line x1="40" y1="129.4545454545455" x2="35" y2="129.4545454545455" style="visibility: inherit;" fill="rgb(0, 0, 0)" stroke="rgb(204, 204, 204)" stroke-width="1px"></line><line x1="40" y1="113.27272727272725" x2="35" y2="113.27272727272725" style="visibility: inherit;" fill="rgb(0, 0, 0)" stroke="rgb(204, 204, 204)" stroke-width="1px"></line><line x1="40" y1="97.09090909090914" x2="35" y2="97.09090909090914" style="visibility: inherit;" fill="rgb(0, 0, 0)" stroke="rgb(204, 204, 204)" stroke-width="1px"></line><line x1="40" y1="80.90909090909088" x2="35" y2="80.90909090909088" style="visibility: inherit;" fill="rgb(0, 0, 0)" stroke="rgb(204, 204, 204)" stroke-width="1px"></line><line x1="40" y1="64.72727272727275" x2="35" y2="64.72727272727275" style="visibility: inherit;" fill="rgb(0, 0, 0)" stroke="rgb(204, 204, 204)" stroke-width="1px"></line><line x1="40" y1="48.545454545454646" x2="35" y2="48.545454545454646" style="visibility: inherit;" fill="rgb(0, 0, 0)" stroke="rgb(204, 204, 204)" stroke-width="1px"></line><line x1="40" y1="32.363636363636374" x2="35" y2="32.363636363636374" style="visibility: inherit;" fill="rgb(0, 0, 0)" stroke="rgb(204, 204, 204)" stroke-width="1px"></line><line x1="40" y1="16.181818181818272" x2="35" y2="16.181818181818272" style="visibility: inherit;" fill="rgb(0, 0, 0)" stroke="rgb(204, 204, 204)" stroke-width="1px"></line><line x1="40" y1="0" x2="35" y2="0" style="visibility: inherit;" fill="rgb(0, 0, 0)" stroke="rgb(204, 204, 204)" stroke-width="1px"></line></g><g transform="translate(30, 0)"><text x="0" y="178" dx="0em" dy="0.3em" style="text-anchor: end; visibility: hidden; font-family: &quot;Helvetica Neue&quot;, sans-serif; font-size: 12px; font-weight: 200;" fill="rgb(50, 49, 63)" stroke="none" stroke-width="1px">6.8</text><text x="0" y="161.81818181818173" dx="0em" dy="0.3em" style="text-anchor: end; visibility: inherit; font-family: &quot;Helvetica Neue&quot;, sans-serif; font-size: 12px; font-weight: 200;" fill="rgb(50, 49, 63)" stroke="none" stroke-width="1px">6.9</text><text x="0" y="145.63636363636363" dx="0em" dy="0.3em" style="text-anchor: end; visibility: hidden; font-family: &quot;Helvetica Neue&quot;, sans-serif; font-size: 12px; font-weight: 200;" fill="rgb(50, 49, 63)" stroke="none" stroke-width="1px">7</text><text x="0" y="129.4545454545455" dx="0em" dy="0.3em" style="text-anchor: end; visibility: inherit; font-family: &quot;Helvetica Neue&quot;, sans-serif; font-size: 12px; font-weight: 200;" fill="rgb(50, 49, 63)" stroke="none" stroke-width="1px">7.1</text><text x="0" y="113.27272727272725" dx="0em" dy="0.3em" style="text-anchor: end; visibility: hidden; font-family: &quot;Helvetica Neue&quot;, sans-serif; font-size: 12px; font-weight: 200;" fill="rgb(50, 49, 63)" stroke="none" stroke-width="1px">7.2</text><text x="0" y="97.09090909090914" dx="0em" dy="0.3em" style="text-anchor: end; visibility: inherit; font-family: &quot;Helvetica Neue&quot;, sans-serif; font-size: 12px; font-weight: 200;" fill="rgb(50, 49, 63)" stroke="none" stroke-width="1px">7.3</text><text x="0" y="80.90909090909088" dx="0em" dy="0.3em" style="text-anchor: end; visibility: hidden; font-family: &quot;Helvetica Neue&quot;, sans-serif; font-size: 12px; font-weight: 200;" fill="rgb(50, 49, 63)" stroke="none" stroke-width="1px">7.4</text><text x="0" y="64.72727272727275" dx="0em" dy="0.3em" style="text-anchor: end; visibility: inherit; font-family: &quot;Helvetica Neue&quot;, sans-serif; font-size: 12px; font-weight: 200;" fill="rgb(50, 49, 63)" stroke="none" stroke-width="1px">7.5</text><text x="0" y="48.545454545454646" dx="0em" dy="0.3em" style="text-anchor: end; visibility: hidden; font-family: &quot;Helvetica Neue&quot;, sans-serif; font-size: 12px; font-weight: 200;" fill="rgb(50, 49, 63)" stroke="none" stroke-width="1px">7.6</text><text x="0" y="32.363636363636374" dx="0em" dy="0.3em" style="text-anchor: end; visibility: inherit; font-family: &quot;Helvetica Neue&quot;, sans-serif; font-size: 12px; font-weight: 200;" fill="rgb(50, 49, 63)" stroke="none" stroke-width="1px">7.7</text><text x="0" y="16.181818181818272" dx="0em" dy="0.3em" style="text-anchor: end; visibility: hidden; font-family: &quot;Helvetica Neue&quot;, sans-serif; font-size: 12px; font-weight: 200;" fill="rgb(50, 49, 63)" stroke="none" stroke-width="1px">7.8</text><text x="0" y="0" dx="0em" dy="0.3em" style="text-anchor: end; visibility: hidden; font-family: &quot;Helvetica Neue&quot;, sans-serif; font-size: 12px; font-weight: 200;" fill="rgb(50, 49, 63)" stroke="none" stroke-width="1px">7.9</text></g><line x1="40" y1="0" x2="40" y2="178" fill="rgb(0, 0, 0)" stroke="rgb(204, 204, 204)" stroke-width="1px"></line></g></g><g transform="translate(40, 0)" clip-path="url(#clip_0)"><clipPath id="clip_0"><rect width="290" height="178"></rect></clipPath><g><g><g><line x1="0" y1="0" x2="0" y2="178" fill="rgb(0, 0, 0)" stroke="rgb(60, 60, 60)" stroke-width="1px" opacity="0.25"></line><line x1="22.30769230769231" y1="0" x2="22.30769230769231" y2="178" fill="rgb(0, 0, 0)" stroke="rgb(60, 60, 60)" stroke-width="1px" opacity="0.25"></line><line x1="44.61538461538462" y1="0" x2="44.61538461538462" y2="178" fill="rgb(0, 0, 0)" stroke="rgb(60, 60, 60)" stroke-width="1px" opacity="0.25"></line><line x1="66.92307692307692" y1="0" x2="66.92307692307692" y2="178" fill="rgb(0, 0, 0)" stroke="rgb(60, 60, 60)" stroke-width="1px" opacity="0.25"></line><line x1="89.23076923076924" y1="0" x2="89.23076923076924" y2="178" fill="rgb(0, 0, 0)" stroke="rgb(60, 60, 60)" stroke-width="1px" opacity="0.25"></line><line x1="111.53846153846155" y1="0" x2="111.53846153846155" y2="178" fill="rgb(0, 0, 0)" stroke="rgb(60, 60, 60)" stroke-width="1px" opacity="0.25"></line><line x1="133.84615384615384" y1="0" x2="133.84615384615384" y2="178" fill="rgb(0, 0, 0)" stroke="rgb(60, 60, 60)" stroke-width="1px" opacity="0.25"></line><line x1="156.15384615384616" y1="0" x2="156.15384615384616" y2="178" fill="rgb(0, 0, 0)" stroke="rgb(60, 60, 60)" stroke-width="1px" opacity="0.25"></line><line x1="178.46153846153848" y1="0" x2="178.46153846153848" y2="178" fill="rgb(0, 0, 0)" stroke="rgb(60, 60, 60)" stroke-width="1px" opacity="0.25"></line><line x1="200.76923076923077" y1="0" x2="200.76923076923077" y2="178" fill="rgb(0, 0, 0)" stroke="rgb(60, 60, 60)" stroke-width="1px" opacity="0.25"></line><line x1="223.0769230769231" y1="0" x2="223.0769230769231" y2="178" fill="rgb(0, 0, 0)" stroke="rgb(60, 60, 60)" stroke-width="1px" opacity="0.25"></line><line x1="245.3846153846154" y1="0" x2="245.3846153846154" y2="178" fill="rgb(0, 0, 0)" stroke="rgb(60, 60, 60)" stroke-width="1px" opacity="0.25"></line><line x1="267.6923076923077" y1="0" x2="267.6923076923077" y2="178" fill="rgb(0, 0, 0)" stroke="rgb(60, 60, 60)" stroke-width="1px" opacity="0.25"></line><line x1="290" y1="0" x2="290" y2="178" fill="rgb(0, 0, 0)" stroke="rgb(60, 60, 60)" stroke-width="1px" opacity="0.25"></line></g><g><line x1="0" y1="178" x2="290" y2="178" fill="rgb(0, 0, 0)" stroke="rgb(60, 60, 60)" stroke-width="1px" opacity="0.25"></line><line x1="0" y1="161.81818181818173" x2="290" y2="161.81818181818173" fill="rgb(0, 0, 0)" stroke="rgb(60, 60, 60)" stroke-width="1px" opacity="0.25"></line><line x1="0" y1="145.63636363636363" x2="290" y2="145.63636363636363" fill="rgb(0, 0, 0)" stroke="rgb(60, 60, 60)" stroke-width="1px" opacity="0.25"></line><line x1="0" y1="129.4545454545455" x2="290" y2="129.4545454545455" fill="rgb(0, 0, 0)" stroke="rgb(60, 60, 60)" stroke-width="1px" opacity="0.25"></line><line x1="0" y1="113.27272727272725" x2="290" y2="113.27272727272725" fill="rgb(0, 0, 0)" stroke="rgb(60, 60, 60)" stroke-width="1px" opacity="0.25"></line><line x1="0" y1="97.09090909090914" x2="290" y2="97.09090909090914" fill="rgb(0, 0, 0)" stroke="rgb(60, 60, 60)" stroke-width="1px" opacity="0.25"></line><line x1="0" y1="80.90909090909088" x2="290" y2="80.90909090909088" fill="rgb(0, 0, 0)" stroke="rgb(60, 60, 60)" stroke-width="1px" opacity="0.25"></line><line x1="0" y1="64.72727272727275" x2="290" y2="64.72727272727275" fill="rgb(0, 0, 0)" stroke="rgb(60, 60, 60)" stroke-width="1px" opacity="0.25"></line><line x1="0" y1="48.545454545454646" x2="290" y2="48.545454545454646" fill="rgb(0, 0, 0)" stroke="rgb(60, 60, 60)" stroke-width="1px" opacity="0.25"></line><line x1="0" y1="32.363636363636374" x2="290" y2="32.363636363636374" fill="rgb(0, 0, 0)" stroke="rgb(60, 60, 60)" stroke-width="1px" opacity="0.25"></line><line x1="0" y1="16.181818181818272" x2="290" y2="16.181818181818272" fill="rgb(0, 0, 0)" stroke="rgb(60, 60, 60)" stroke-width="1px" opacity="0.25"></line><line x1="0" y1="0" x2="290" y2="0" fill="rgb(0, 0, 0)" stroke="rgb(60, 60, 60)" stroke-width="1px" opacity="0.25"></line></g></g></g><g><g><line x1="0" y1="1278.3636363636358" x2="290" y2="1278.3636363636358" fill="rgb(0, 0, 0)" stroke="rgb(153, 153, 153)" stroke-width="1.5px"></line></g></g><g><g><line x1="22.30769230769231" y1="0" x2="22.30769230769231" y2="178" fill="rgb(0, 0, 0)" stroke="rgb(153, 153, 153)" stroke-width="1.5px"></line></g></g><g><g><g><g><g><path stroke="rgb(255, 112, 67)" stroke-width="2px" d="M22.30769230769231,165.86363636363635L24.203846153846154,225.4651624180451L26.434615384615384,102.87126972039266L28.553846153846155,99.1434388938151L30.784615384615385,108.77236873158611L33.01538461538462,100.68056111541841L35.02307692307692,58.602011513742056L37.03076923076923,74.18244178281806L39.150000000000006,97.69276881354308L41.15769230769231,78.8955293298423L43.16538461538462,98.64543902424569L45.28461538461538,90.25027971114918L47.40384615384615,83.69640120800139L49.52307692307692,56.912518083711646L51.64230769230769,70.50298244636456L53.65,74.67302107894801L55.769230769230774,83.27095148100024L57.66538461538461,98.01465800074897L59.67307692307692,128.10890684379945L61.56923076923077,157.49468844037867L63.46538461538462,138.35871803952932L65.25,121.64452750224356L67.25769230769231,105.57982059868743L69.37692307692308,77.1399027813891L71.38461538461539,56.74153576175985L73.3923076923077,42.82801571721163L75.4,0.7283372185041799L77.40769230769232,45.036000705595086L79.41538461538461,46.21783823420532L81.42307692307692,85.67522820691545L83.43076923076923,97.08445095605397L85.55,133.25423193196977L87.78076923076924,149.71422788695673L89.9,109.1952014623705L91.9076923076923,146.88809438654897L94.02692307692307,160.74897189187263L96.14615384615385,157.87639541197063L98.15384615384616,120.94985685631688L100.27307692307693,126.92295993868176L102.3923076923077,130.47928360727852L104.28846153846153,153.86023121700515L106.4076923076923,113.86014453764864L108.52692307692308,96.83655871163064L110.64615384615385,74.07985654281234L112.65384615384616,50.52305059354042L114.77307692307691,87.8127900756911L116.89230769230768,80.86406838369315L119.01153846153846,85.4846279029875L120.9076923076923,86.66500666378934L122.91538461538462,59.43702309342804L125.03461538461539,71.97198566477807L127.15384615384615,32.16297827589702L129.05,53.723225834881504L129.16153846153847,57.09508901688528L129.16153846153847,96.97739146911991L129.27307692307693,92.13088827024387L129.3846153846154,65.14601681699833L129.3846153846154,86.84459742766728L129.49615384615385,82.64228898115059L129.49615384615385,70.27097658733672L129.6076923076923,35.91001699247221L129.71923076923076,37.54211722184681L130.83461538461538,10.68072574436863L132.8423076923077,51.695081229995694L134.85,77.23031727543984L136.74615384615385,82.54110729127518L138.6423076923077,13.822337049176127L140.76153846153846,43.99125769077958L142.65769230769232,36.40155141449401L144.55384615384617,36.659201027691324L146.56153846153848,66.33229071514786L148.4576923076923,69.87052002702988L150.4653846153846,71.4554294697378L152.36153846153846,66.33389700493935L154.2576923076923,99.33622355435402L156.26538461538462,123.50598012265652L158.16153846153844,86.71682006583828L160.16923076923075,81.2577499551625L162.06538461538463,70.43059500748498L164.07307692307694,107.77878373873313L166.08076923076925,82.94519803393008L167.97692307692307,83.3269740558029L169.87307692307695,104.13317795945107L171.88076923076923,108.17560150294112L173.88846153846154,121.6984544505112L175.7846153846154,103.18756603719298L177.68076923076922,88.19374650822162L179.68846153846152,86.29724257204711L181.5846153846154,107.82016546380464L183.70384615384614,130.37797052022088L185.6,111.49902993366017L187.49615384615385,98.76921419779818L189.28076923076924,80.77169980834944L190.61923076923077,61.06946096122404L192.51538461538462,63.04550091997389L194.52307692307693,83.86200240758863L196.53076923076924,125.0635299220047L198.53846153846155,109.7564592203641L200.43461538461537,112.73045924381253L202.44230769230768,118.9825810828081L204.56153846153848,89.45816338747532L206.4576923076923,93.72671351957852L208.4653846153846,89.49787548665698L210.47307692307692,118.09904161549407L212.48076923076923,114.3637134429745L214.37692307692308,116.46233516195485L216.3846153846154,89.97887564258627L218.2807692307692,65.96516199462823L220.28846153846152,116.97238239479782L222.0730769230769,159.5693012969649L224.08076923076922,124.89551821380982L225.9769230769231,128.8362788443168L227.9846153846154,135.87147677330822L229.88076923076923,137.7268052773572L231.88846153846154,128.98113162996356L233.78461538461536,130.86456999202295L235.56923076923076,141.35757442101718L237.46538461538464,135.76523645468274L239.36153846153846,124.83014944531362L241.36923076923077,72.4166732481168L243.37692307692308,77.36099506635972L245.3846153846154,19.874971987216895L247.2807692307692,16.867363673265288L249.28846153846155,34.92816574917356L251.1846153846154,30.341506339652682L253.1923076923077,63.7770746806718L255.08846153846153,79.3303395822902L257.0961538461538,65.0262114252638L258.9923076923077,49.59668579989403L261,31.974517845387396L263.0076923076923,39.478596992155445" style="fill: none;" fill="none"></path></g></g></g></g><g opacity="0.2"><g><g><g><path stroke="rgb(255, 112, 67)" stroke-width="2px" d="M22.30769230769231,165.86363636363635L24.203846153846154,273.74239852211684L26.434615384615384,-76.86363636363626L28.553846153846155,91.69694397666238L30.784615384615385,132.15148943120784L33.01538461538462,78.21214693242855L35.02307692307692,-70.1211606805974L37.03076923076923,125.4090909090909L39.150000000000006,179.34851056879214L41.15769230769231,10.787853067571518L43.16538461538462,172.60603488575325L45.28461538461538,57.98487420515583L47.40384615384615,57.98487420515583L49.52307692307692,-49.89388795332468L51.64230769230769,125.4090909090909L53.65,91.69694397666238L55.769230769230774,118.66669238697398L57.66538461538461,159.12123784151942L59.67307692307692,253.51512579484412L61.56923076923077,280.48487420515573L63.46538461538462,57.98487420515583L65.25,51.24239852211696L67.25769230769231,37.75760147788313L69.37692307692308,-43.15156659212971L77.40769230769232,233.2878530675714L79.41538461538461,51.24239852211696L81.42307692307692,253.51512579484412L83.43076923076923,145.63636363636363L85.55,287.22727272727263L94.02692307692307,219.80305602333758L96.14615384615385,145.63636363636363L98.15384615384616,-36.40909090909085L100.27307692307693,152.37876215848053L102.3923076923077,145.63636363636363L104.28846153846153,253.51512579484412L106.4076923076923,-56.63636363636354L108.52692307692308,24.27272727272731L110.64615384615385,-22.924293864856992L114.77307692307691,246.7727272727272L116.89230769230768,51.24239852211696L119.01153846153846,105.18181818181819L120.9076923076923,91.69694397666238L122.91538461538462,-56.63636363636354L125.03461538461539,125.4090909090909L127.15384615384615,-137.54545454545445L129.05,145.63636363636363L129.16153846153847,71.46967124938966L129.16153846153847,266.99999999999994L129.27307692307693,71.46967124938966L129.3846153846154,-49.89388795332468L129.3846153846154,179.34851056879214L129.49615384615385,64.72727272727275L129.49615384615385,17.53032875061038L129.6076923076923,-110.57570613514281L129.71923076923076,44.50000000000003L130.83461538461538,-103.8333847739479L134.85,186.09090909090907L136.74615384615385,105.18181818181819L138.6423076923077,-279.13636363636346L140.76153846153846,172.60603488575325L142.65769230769232,4.045454545454589L144.55384615384617,37.75760147788313L146.56153846153848,192.83330761302597L148.4576923076923,84.95454545454548L150.4653846153846,78.21214693242855L152.36153846153846,44.50000000000003L154.2576923076923,240.0303287506103L158.16153846153844,-70.1211606805974L160.16923076923075,57.98487420515583L162.06538461538463,24.27272727272731L164.07307692307694,266.99999999999994L166.08076923076925,-22.924293864856992L167.97692307692307,84.95454545454548L169.87307692307695,192.83330761302597L171.88076923076923,125.4090909090909L173.88846153846154,179.34851056879214L175.7846153846154,24.27272727272731L177.68076923076922,24.27272727272731L179.68846153846152,78.21214693242855L181.5846153846154,199.57578329606486L183.70384615384614,226.5454545454545L185.6,31.015125794844238L187.49615384615385,44.50000000000003L189.28076923076924,4.045454545454589L190.61923076923077,-22.924293864856992L192.51538461538462,71.46967124938966L194.52307692307693,172.60603488575325L196.53076923076924,300.7121469324284L198.53846153846155,44.50000000000003L200.43461538461537,125.4090909090909L202.44230769230768,145.63636363636363L204.56153846153848,-36.40909090909085L206.4576923076923,111.9242167039351L208.4653846153846,71.46967124938966L210.47307692307692,240.0303287506103L212.48076923076923,98.43941965970127L214.37692307692308,125.4090909090909L216.3846153846154,-22.924293864856992L224.08076923076922,-22.924293864856992L225.9769230769231,145.63636363636363L227.9846153846154,165.86363636363635L229.88076923076923,145.63636363636363L231.88846153846154,91.69694397666238L233.78461538461536,138.8939651142467L235.56923076923076,186.09090909090907L237.46538461538464,111.9242167039351L239.36153846153846,78.21214693242855L241.36923076923077,-151.03025158968825L243.37692307692308,98.43941965970127L245.3846153846154,-225.19702113758422L247.2807692307692,4.045454545454589L249.28846153846155,111.9242167039351L251.1846153846154,10.787853067571518L253.1923076923077,206.31818181818178L255.08846153846153,145.63636363636363L257.0961538461538,4.045454545454589L258.9923076923077,-16.18181818181813L261,-43.15156659212971L263.0076923076923,71.46967124938966" style="fill: none;" fill="none"></path></g></g></g></g></g></g><g transform="translate(40, 178)" clip-path="url(#clip_1)"><clipPath id="clip_1"><rect width="290" height="22"></rect></clipPath><g><g><line x1="0" y1="0" x2="0" y2="5" style="visibility: inherit;" fill="rgb(0, 0, 0)" stroke="rgb(204, 204, 204)" stroke-width="1px"></line><line x1="22.30769230769231" y1="0" x2="22.30769230769231" y2="5" style="visibility: inherit;" fill="rgb(0, 0, 0)" stroke="rgb(204, 204, 204)" stroke-width="1px"></line><line x1="44.61538461538462" y1="0" x2="44.61538461538462" y2="5" style="visibility: inherit;" fill="rgb(0, 0, 0)" stroke="rgb(204, 204, 204)" stroke-width="1px"></line><line x1="66.92307692307692" y1="0" x2="66.92307692307692" y2="5" style="visibility: inherit;" fill="rgb(0, 0, 0)" stroke="rgb(204, 204, 204)" stroke-width="1px"></line><line x1="89.23076923076924" y1="0" x2="89.23076923076924" y2="5" style="visibility: inherit;" fill="rgb(0, 0, 0)" stroke="rgb(204, 204, 204)" stroke-width="1px"></line><line x1="111.53846153846155" y1="0" x2="111.53846153846155" y2="5" style="visibility: inherit;" fill="rgb(0, 0, 0)" stroke="rgb(204, 204, 204)" stroke-width="1px"></line><line x1="133.84615384615384" y1="0" x2="133.84615384615384" y2="5" style="visibility: inherit;" fill="rgb(0, 0, 0)" stroke="rgb(204, 204, 204)" stroke-width="1px"></line><line x1="156.15384615384616" y1="0" x2="156.15384615384616" y2="5" style="visibility: inherit;" fill="rgb(0, 0, 0)" stroke="rgb(204, 204, 204)" stroke-width="1px"></line><line x1="178.46153846153848" y1="0" x2="178.46153846153848" y2="5" style="visibility: inherit;" fill="rgb(0, 0, 0)" stroke="rgb(204, 204, 204)" stroke-width="1px"></line><line x1="200.76923076923077" y1="0" x2="200.76923076923077" y2="5" style="visibility: inherit;" fill="rgb(0, 0, 0)" stroke="rgb(204, 204, 204)" stroke-width="1px"></line><line x1="223.0769230769231" y1="0" x2="223.0769230769231" y2="5" style="visibility: inherit;" fill="rgb(0, 0, 0)" stroke="rgb(204, 204, 204)" stroke-width="1px"></line><line x1="245.3846153846154" y1="0" x2="245.3846153846154" y2="5" style="visibility: inherit;" fill="rgb(0, 0, 0)" stroke="rgb(204, 204, 204)" stroke-width="1px"></line><line x1="267.6923076923077" y1="0" x2="267.6923076923077" y2="5" style="visibility: inherit;" fill="rgb(0, 0, 0)" stroke="rgb(204, 204, 204)" stroke-width="1px"></line><line x1="290" y1="0" x2="290" y2="5" style="visibility: inherit;" fill="rgb(0, 0, 0)" stroke="rgb(204, 204, 204)" stroke-width="1px"></line></g><g transform="translate(0, 8)"><text x="0" y="0" dx="0em" dy="0.95em" style="text-anchor: middle; visibility: hidden; font-family: &quot;Helvetica Neue&quot;, sans-serif; font-size: 12px; font-weight: 200;" fill="rgb(50, 49, 63)" stroke="none" stroke-width="1px">-200</text><text x="22.30769230769231" y="0" dx="0em" dy="0.95em" style="text-anchor: middle; visibility: inherit; font-family: &quot;Helvetica Neue&quot;, sans-serif; font-size: 12px; font-weight: 200;" fill="rgb(50, 49, 63)" stroke="none" stroke-width="1px">0</text><text x="44.61538461538462" y="0" dx="0em" dy="0.95em" style="text-anchor: middle; visibility: hidden; font-family: &quot;Helvetica Neue&quot;, sans-serif; font-size: 12px; font-weight: 200;" fill="rgb(50, 49, 63)" stroke="none" stroke-width="1px">200</text><text x="66.92307692307692" y="0" dx="0em" dy="0.95em" style="text-anchor: middle; visibility: inherit; font-family: &quot;Helvetica Neue&quot;, sans-serif; font-size: 12px; font-weight: 200;" fill="rgb(50, 49, 63)" stroke="none" stroke-width="1px">400</text><text x="89.23076923076924" y="0" dx="0em" dy="0.95em" style="text-anchor: middle; visibility: hidden; font-family: &quot;Helvetica Neue&quot;, sans-serif; font-size: 12px; font-weight: 200;" fill="rgb(50, 49, 63)" stroke="none" stroke-width="1px">600</text><text x="111.53846153846155" y="0" dx="0em" dy="0.95em" style="text-anchor: middle; visibility: inherit; font-family: &quot;Helvetica Neue&quot;, sans-serif; font-size: 12px; font-weight: 200;" fill="rgb(50, 49, 63)" stroke="none" stroke-width="1px">800</text><text x="133.84615384615384" y="0" dx="0em" dy="0.95em" style="text-anchor: middle; visibility: hidden; font-family: &quot;Helvetica Neue&quot;, sans-serif; font-size: 12px; font-weight: 200;" fill="rgb(50, 49, 63)" stroke="none" stroke-width="1px">1k</text><text x="156.15384615384616" y="0" dx="0em" dy="0.95em" style="text-anchor: middle; visibility: inherit; font-family: &quot;Helvetica Neue&quot;, sans-serif; font-size: 12px; font-weight: 200;" fill="rgb(50, 49, 63)" stroke="none" stroke-width="1px">1.2k</text><text x="178.46153846153848" y="0" dx="0em" dy="0.95em" style="text-anchor: middle; visibility: hidden; font-family: &quot;Helvetica Neue&quot;, sans-serif; font-size: 12px; font-weight: 200;" fill="rgb(50, 49, 63)" stroke="none" stroke-width="1px">1.4k</text><text x="200.76923076923077" y="0" dx="0em" dy="0.95em" style="text-anchor: middle; visibility: inherit; font-family: &quot;Helvetica Neue&quot;, sans-serif; font-size: 12px; font-weight: 200;" fill="rgb(50, 49, 63)" stroke="none" stroke-width="1px">1.6k</text><text x="223.0769230769231" y="0" dx="0em" dy="0.95em" style="text-anchor: middle; visibility: hidden; font-family: &quot;Helvetica Neue&quot;, sans-serif; font-size: 12px; font-weight: 200;" fill="rgb(50, 49, 63)" stroke="none" stroke-width="1px">1.8k</text><text x="245.3846153846154" y="0" dx="0em" dy="0.95em" style="text-anchor: middle; visibility: inherit; font-family: &quot;Helvetica Neue&quot;, sans-serif; font-size: 12px; font-weight: 200;" fill="rgb(50, 49, 63)" stroke="none" stroke-width="1px">2k</text><text x="267.6923076923077" y="0" dx="0em" dy="0.95em" style="text-anchor: middle; visibility: hidden; font-family: &quot;Helvetica Neue&quot;, sans-serif; font-size: 12px; font-weight: 200;" fill="rgb(50, 49, 63)" stroke="none" stroke-width="1px">2.2k</text><text x="290" y="0" dx="0em" dy="0.95em" style="text-anchor: middle; visibility: hidden; font-family: &quot;Helvetica Neue&quot;, sans-serif; font-size: 12px; font-weight: 200;" fill="rgb(50, 49, 63)" stroke="none" stroke-width="1px">2.4k</text></g><line x1="0" y1="0" x2="290" y2="0" fill="rgb(0, 0, 0)" stroke="rgb(204, 204, 204)" stroke-width="1px"></line></g></g></g></g></svg>